%TF.GenerationSoftware,KiCad,Pcbnew,9.0.0*%
%TF.CreationDate,2025-03-06T09:36:57-05:00*%
%TF.ProjectId,PCB_Tutorial_Lect,5043425f-5475-4746-9f72-69616c5f4c65,rev?*%
%TF.SameCoordinates,Original*%
%TF.FileFunction,Soldermask,Top*%
%TF.FilePolarity,Negative*%
%FSLAX46Y46*%
G04 Gerber Fmt 4.6, Leading zero omitted, Abs format (unit mm)*
G04 Created by KiCad (PCBNEW 9.0.0) date 2025-03-06 09:36:57*
%MOMM*%
%LPD*%
G01*
G04 APERTURE LIST*
G04 Aperture macros list*
%AMRoundRect*
0 Rectangle with rounded corners*
0 $1 Rounding radius*
0 $2 $3 $4 $5 $6 $7 $8 $9 X,Y pos of 4 corners*
0 Add a 4 corners polygon primitive as box body*
4,1,4,$2,$3,$4,$5,$6,$7,$8,$9,$2,$3,0*
0 Add four circle primitives for the rounded corners*
1,1,$1+$1,$2,$3*
1,1,$1+$1,$4,$5*
1,1,$1+$1,$6,$7*
1,1,$1+$1,$8,$9*
0 Add four rect primitives between the rounded corners*
20,1,$1+$1,$2,$3,$4,$5,0*
20,1,$1+$1,$4,$5,$6,$7,0*
20,1,$1+$1,$6,$7,$8,$9,0*
20,1,$1+$1,$8,$9,$2,$3,0*%
G04 Aperture macros list end*
%ADD10C,10.160000*%
%ADD11RoundRect,0.250000X-0.650000X1.000000X-0.650000X-1.000000X0.650000X-1.000000X0.650000X1.000000X0*%
%ADD12R,2.400000X2.400000*%
%ADD13C,2.400000*%
%ADD14RoundRect,0.250000X0.350000X0.450000X-0.350000X0.450000X-0.350000X-0.450000X0.350000X-0.450000X0*%
%ADD15RoundRect,0.250000X-0.262500X-0.450000X0.262500X-0.450000X0.262500X0.450000X-0.262500X0.450000X0*%
%ADD16RoundRect,0.250000X-0.250000X-0.475000X0.250000X-0.475000X0.250000X0.475000X-0.250000X0.475000X0*%
%ADD17RoundRect,0.243750X-0.243750X-0.456250X0.243750X-0.456250X0.243750X0.456250X-0.243750X0.456250X0*%
%ADD18RoundRect,0.250000X0.450000X-0.350000X0.450000X0.350000X-0.450000X0.350000X-0.450000X-0.350000X0*%
%ADD19RoundRect,0.250000X-1.000000X-0.650000X1.000000X-0.650000X1.000000X0.650000X-1.000000X0.650000X0*%
%ADD20RoundRect,0.250000X0.250000X0.475000X-0.250000X0.475000X-0.250000X-0.475000X0.250000X-0.475000X0*%
%ADD21RoundRect,0.243750X0.243750X0.456250X-0.243750X0.456250X-0.243750X-0.456250X0.243750X-0.456250X0*%
%ADD22RoundRect,0.250000X-0.350000X-0.450000X0.350000X-0.450000X0.350000X0.450000X-0.350000X0.450000X0*%
%ADD23C,4.000000*%
%ADD24RoundRect,0.250000X-0.475000X0.337500X-0.475000X-0.337500X0.475000X-0.337500X0.475000X0.337500X0*%
%ADD25RoundRect,0.250000X0.262500X0.450000X-0.262500X0.450000X-0.262500X-0.450000X0.262500X-0.450000X0*%
%ADD26R,1.701800X0.558800*%
%ADD27C,3.175000*%
%ADD28RoundRect,0.102000X0.939800X0.939800X-0.939800X0.939800X-0.939800X-0.939800X0.939800X-0.939800X0*%
%ADD29C,2.083600*%
%ADD30RoundRect,0.102000X0.762000X0.762000X-0.762000X0.762000X-0.762000X-0.762000X0.762000X-0.762000X0*%
%ADD31C,1.728000*%
%ADD32RoundRect,0.102000X0.750000X0.750000X-0.750000X0.750000X-0.750000X-0.750000X0.750000X-0.750000X0*%
%ADD33C,1.704000*%
%ADD34R,1.905000X2.000000*%
%ADD35O,1.905000X2.000000*%
%ADD36R,1.371600X1.371600*%
%ADD37C,1.371600*%
%ADD38R,6.451600X4.114800*%
%ADD39RoundRect,0.250000X0.625000X-0.400000X0.625000X0.400000X-0.625000X0.400000X-0.625000X-0.400000X0*%
%ADD40R,1.270000X1.270000*%
%ADD41C,1.270000*%
G04 APERTURE END LIST*
D10*
%TO.C,J1*%
X56000000Y-48000000D03*
%TD*%
D11*
%TO.C,D1*%
X100464000Y-72446000D03*
X100464000Y-76446000D03*
%TD*%
D12*
%TO.C,C3*%
X90486220Y-88446000D03*
D13*
X97986220Y-88446000D03*
%TD*%
D14*
%TO.C,R7*%
X171229000Y-95676354D03*
X169229000Y-95676354D03*
%TD*%
D15*
%TO.C,R2*%
X167175000Y-91000000D03*
X169000000Y-91000000D03*
%TD*%
D16*
%TO.C,C11*%
X65054000Y-85446000D03*
X66954000Y-85446000D03*
%TD*%
D17*
%TO.C,D5*%
X61000000Y-88500000D03*
X62875000Y-88500000D03*
%TD*%
D18*
%TO.C,R10*%
X75464000Y-77446000D03*
X75464000Y-75446000D03*
%TD*%
D10*
%TO.C,J5*%
X104785000Y-54785000D03*
%TD*%
D19*
%TO.C,D6*%
X73964000Y-71946000D03*
X77964000Y-71946000D03*
%TD*%
D10*
%TO.C,J2*%
X167500000Y-49000000D03*
%TD*%
D17*
%TO.C,D2*%
X79026500Y-99000000D03*
X80901500Y-99000000D03*
%TD*%
D18*
%TO.C,R11*%
X72964000Y-77446000D03*
X72964000Y-75446000D03*
%TD*%
D20*
%TO.C,C7*%
X62914000Y-82446000D03*
X61014000Y-82446000D03*
%TD*%
D21*
%TO.C,D3*%
X170937500Y-98000000D03*
X169062500Y-98000000D03*
%TD*%
D22*
%TO.C,R9*%
X47964000Y-76946000D03*
X49964000Y-76946000D03*
%TD*%
D16*
%TO.C,C4*%
X92514000Y-76946000D03*
X94414000Y-76946000D03*
%TD*%
D14*
%TO.C,R13*%
X74901500Y-66946000D03*
X72901500Y-66946000D03*
%TD*%
D23*
%TO.C,H3*%
X52500000Y-164500000D03*
%TD*%
D24*
%TO.C,C9*%
X52464000Y-76908500D03*
X52464000Y-78983500D03*
%TD*%
D23*
%TO.C,H4*%
X167500000Y-164500000D03*
%TD*%
D12*
%TO.C,C5*%
X162000000Y-72000000D03*
D13*
X169500000Y-72000000D03*
%TD*%
D17*
%TO.C,D4*%
X49125000Y-85000000D03*
X51000000Y-85000000D03*
%TD*%
%TO.C,D7*%
X77062500Y-67000000D03*
X78937500Y-67000000D03*
%TD*%
D25*
%TO.C,R1*%
X169000000Y-88500000D03*
X167175000Y-88500000D03*
%TD*%
D26*
%TO.C,U5*%
X59079200Y-75041000D03*
X59079200Y-76311000D03*
X59079200Y-77581000D03*
X59079200Y-78851000D03*
X69848800Y-78851000D03*
X69848800Y-77581000D03*
X69848800Y-76311000D03*
X69848800Y-75041000D03*
%TD*%
D25*
%TO.C,R3*%
X169000000Y-83500000D03*
X167175000Y-83500000D03*
%TD*%
D16*
%TO.C,C1*%
X167137500Y-86000000D03*
X169037500Y-86000000D03*
%TD*%
D10*
%TO.C,J3*%
X152000000Y-49000000D03*
%TD*%
D27*
%TO.C,U2*%
X172674000Y-156756000D03*
X172674000Y-103416000D03*
X48214000Y-156756000D03*
X48214000Y-103416000D03*
D28*
X143464000Y-107226000D03*
D29*
X140924000Y-107226000D03*
X138384000Y-107226000D03*
X135844000Y-107226000D03*
X133304000Y-107226000D03*
X130764000Y-107226000D03*
X128224000Y-107226000D03*
X125684000Y-107226000D03*
X123144000Y-107226000D03*
X120604000Y-107226000D03*
D28*
X120604000Y-152946000D03*
D29*
X123144000Y-152946000D03*
X125684000Y-152946000D03*
X128224000Y-152946000D03*
X130764000Y-152946000D03*
X133304000Y-152946000D03*
X135844000Y-152946000D03*
X138384000Y-152946000D03*
X140924000Y-152946000D03*
X143464000Y-152946000D03*
D28*
X143464000Y-109766000D03*
D29*
X140924000Y-109766000D03*
X138384000Y-109766000D03*
X135844000Y-109766000D03*
X133304000Y-109766000D03*
X130764000Y-109766000D03*
X128224000Y-109766000D03*
X125684000Y-109766000D03*
X123144000Y-109766000D03*
X120604000Y-109766000D03*
D28*
X120604000Y-150406000D03*
D29*
X123144000Y-150406000D03*
X125684000Y-150406000D03*
X128224000Y-150406000D03*
X130764000Y-150406000D03*
X133304000Y-150406000D03*
X135844000Y-150406000D03*
X138384000Y-150406000D03*
X140924000Y-150406000D03*
X143464000Y-150406000D03*
D28*
X79964000Y-107226000D03*
D29*
X77424000Y-107226000D03*
X74884000Y-107226000D03*
X72344000Y-107226000D03*
X69804000Y-107226000D03*
X67264000Y-107226000D03*
X64724000Y-107226000D03*
X62184000Y-107226000D03*
X59644000Y-107226000D03*
X57104000Y-107226000D03*
D28*
X57104000Y-152946000D03*
D29*
X59644000Y-152946000D03*
X62184000Y-152946000D03*
X64724000Y-152946000D03*
X67264000Y-152946000D03*
X69804000Y-152946000D03*
X72344000Y-152946000D03*
X74884000Y-152946000D03*
X77424000Y-152946000D03*
X79964000Y-152946000D03*
D28*
X79964000Y-109766000D03*
D29*
X77424000Y-109766000D03*
X74884000Y-109766000D03*
X72344000Y-109766000D03*
X69804000Y-109766000D03*
X67264000Y-109766000D03*
X64724000Y-109766000D03*
X62184000Y-109766000D03*
X59644000Y-109766000D03*
X57104000Y-109766000D03*
D28*
X57104000Y-150406000D03*
D29*
X59644000Y-150406000D03*
X62184000Y-150406000D03*
X64724000Y-150406000D03*
X67264000Y-150406000D03*
X69804000Y-150406000D03*
X72344000Y-150406000D03*
X74884000Y-150406000D03*
X77424000Y-150406000D03*
X79964000Y-150406000D03*
D30*
X46944000Y-152946000D03*
D31*
X49484000Y-152946000D03*
X52024000Y-152946000D03*
D30*
X46944000Y-117386000D03*
D31*
X46944000Y-114846000D03*
X46944000Y-112306000D03*
D30*
X46944000Y-147866000D03*
D31*
X46944000Y-145326000D03*
X46944000Y-142786000D03*
X46944000Y-140246000D03*
X46944000Y-137706000D03*
D30*
X46944000Y-132626000D03*
D31*
X46944000Y-130086000D03*
X46944000Y-127546000D03*
X46944000Y-125006000D03*
X46944000Y-122466000D03*
D30*
X46944000Y-107226000D03*
D31*
X49484000Y-107226000D03*
X52024000Y-107226000D03*
D32*
X117120000Y-110000000D03*
D33*
X117120000Y-107460000D03*
X114580000Y-110000000D03*
X114580000Y-107460000D03*
X112040000Y-110000000D03*
X112040000Y-107460000D03*
X109500000Y-110000000D03*
X109500000Y-107460000D03*
%TD*%
D10*
%TO.C,J4*%
X55964000Y-62000000D03*
%TD*%
D24*
%TO.C,C8*%
X55464000Y-76958500D03*
X55464000Y-79033500D03*
%TD*%
D34*
%TO.C,Q1*%
X90099000Y-73471000D03*
D35*
X92639000Y-73471000D03*
X95179000Y-73471000D03*
%TD*%
D36*
%TO.C,U1*%
X164620000Y-94120000D03*
D37*
X164620000Y-91580000D03*
X164620000Y-89040000D03*
X164620000Y-86500000D03*
X157000000Y-86500000D03*
X157000000Y-89040000D03*
X157000000Y-91580000D03*
X157000000Y-94120000D03*
%TD*%
D16*
%TO.C,C2*%
X155500000Y-98712500D03*
X157400000Y-98712500D03*
%TD*%
D38*
%TO.C,L1*%
X116150199Y-88500000D03*
X137849801Y-88500000D03*
%TD*%
D15*
%TO.C,R4*%
X163125000Y-83500000D03*
X164950000Y-83500000D03*
%TD*%
D39*
%TO.C,R12*%
X78964000Y-78546000D03*
X78964000Y-75446000D03*
%TD*%
D16*
%TO.C,C12*%
X65054000Y-88456000D03*
X66954000Y-88456000D03*
%TD*%
%TO.C,C6*%
X51054000Y-89021000D03*
X52954000Y-89021000D03*
%TD*%
D22*
%TO.C,R8*%
X48964000Y-82946000D03*
X50964000Y-82946000D03*
%TD*%
D16*
%TO.C,C10*%
X65054000Y-82436000D03*
X66954000Y-82436000D03*
%TD*%
D23*
%TO.C,H1*%
X51500000Y-38000000D03*
%TD*%
D40*
%TO.C,U4*%
X50304000Y-92446000D03*
D41*
X52844000Y-92446000D03*
X60464000Y-92446000D03*
X65544000Y-92446000D03*
%TD*%
D22*
%TO.C,R6*%
X78964000Y-96946000D03*
X80964000Y-96946000D03*
%TD*%
D14*
%TO.C,R5*%
X62964000Y-85446000D03*
X60964000Y-85446000D03*
%TD*%
D23*
%TO.C,H2*%
X167500000Y-38000000D03*
%TD*%
M02*
