%TF.GenerationSoftware,KiCad,Pcbnew,9.0.0*%
%TF.CreationDate,2025-03-06T09:36:57-05:00*%
%TF.ProjectId,PCB_Tutorial_Lect,5043425f-5475-4746-9f72-69616c5f4c65,rev?*%
%TF.SameCoordinates,Original*%
%TF.FileFunction,Soldermask,Bot*%
%TF.FilePolarity,Negative*%
%FSLAX46Y46*%
G04 Gerber Fmt 4.6, Leading zero omitted, Abs format (unit mm)*
G04 Created by KiCad (PCBNEW 9.0.0) date 2025-03-06 09:36:57*
%MOMM*%
%LPD*%
G01*
G04 APERTURE LIST*
%ADD10C,10.160000*%
%ADD11R,2.400000X2.400000*%
%ADD12C,2.400000*%
%ADD13C,4.000000*%
%ADD14C,3.175000*%
%ADD15R,1.879600X1.879600*%
%ADD16C,1.879600*%
%ADD17R,1.524000X1.524000*%
%ADD18C,1.524000*%
%ADD19R,1.500000X1.500000*%
%ADD20C,1.500000*%
%ADD21R,1.905000X2.000000*%
%ADD22O,1.905000X2.000000*%
%ADD23R,1.371600X1.371600*%
%ADD24C,1.371600*%
%ADD25R,1.270000X1.270000*%
%ADD26C,1.270000*%
G04 APERTURE END LIST*
D10*
%TO.C,J1*%
X56000000Y-48000000D03*
%TD*%
D11*
%TO.C,C3*%
X90486220Y-88446000D03*
D12*
X97986220Y-88446000D03*
%TD*%
D10*
%TO.C,J5*%
X104785000Y-54785000D03*
%TD*%
%TO.C,J2*%
X167500000Y-49000000D03*
%TD*%
D13*
%TO.C,H3*%
X52500000Y-164500000D03*
%TD*%
%TO.C,H4*%
X167500000Y-164500000D03*
%TD*%
D11*
%TO.C,C5*%
X162000000Y-72000000D03*
D12*
X169500000Y-72000000D03*
%TD*%
D10*
%TO.C,J3*%
X152000000Y-49000000D03*
%TD*%
D14*
%TO.C,U2*%
X172674000Y-156756000D03*
X172674000Y-103416000D03*
X48214000Y-156756000D03*
X48214000Y-103416000D03*
D15*
X143464000Y-107226000D03*
D16*
X140924000Y-107226000D03*
X138384000Y-107226000D03*
X135844000Y-107226000D03*
X133304000Y-107226000D03*
X130764000Y-107226000D03*
X128224000Y-107226000D03*
X125684000Y-107226000D03*
X123144000Y-107226000D03*
X120604000Y-107226000D03*
D15*
X120604000Y-152946000D03*
D16*
X123144000Y-152946000D03*
X125684000Y-152946000D03*
X128224000Y-152946000D03*
X130764000Y-152946000D03*
X133304000Y-152946000D03*
X135844000Y-152946000D03*
X138384000Y-152946000D03*
X140924000Y-152946000D03*
X143464000Y-152946000D03*
D15*
X143464000Y-109766000D03*
D16*
X140924000Y-109766000D03*
X138384000Y-109766000D03*
X135844000Y-109766000D03*
X133304000Y-109766000D03*
X130764000Y-109766000D03*
X128224000Y-109766000D03*
X125684000Y-109766000D03*
X123144000Y-109766000D03*
X120604000Y-109766000D03*
D15*
X120604000Y-150406000D03*
D16*
X123144000Y-150406000D03*
X125684000Y-150406000D03*
X128224000Y-150406000D03*
X130764000Y-150406000D03*
X133304000Y-150406000D03*
X135844000Y-150406000D03*
X138384000Y-150406000D03*
X140924000Y-150406000D03*
X143464000Y-150406000D03*
D15*
X79964000Y-107226000D03*
D16*
X77424000Y-107226000D03*
X74884000Y-107226000D03*
X72344000Y-107226000D03*
X69804000Y-107226000D03*
X67264000Y-107226000D03*
X64724000Y-107226000D03*
X62184000Y-107226000D03*
X59644000Y-107226000D03*
X57104000Y-107226000D03*
D15*
X57104000Y-152946000D03*
D16*
X59644000Y-152946000D03*
X62184000Y-152946000D03*
X64724000Y-152946000D03*
X67264000Y-152946000D03*
X69804000Y-152946000D03*
X72344000Y-152946000D03*
X74884000Y-152946000D03*
X77424000Y-152946000D03*
X79964000Y-152946000D03*
D15*
X79964000Y-109766000D03*
D16*
X77424000Y-109766000D03*
X74884000Y-109766000D03*
X72344000Y-109766000D03*
X69804000Y-109766000D03*
X67264000Y-109766000D03*
X64724000Y-109766000D03*
X62184000Y-109766000D03*
X59644000Y-109766000D03*
X57104000Y-109766000D03*
D15*
X57104000Y-150406000D03*
D16*
X59644000Y-150406000D03*
X62184000Y-150406000D03*
X64724000Y-150406000D03*
X67264000Y-150406000D03*
X69804000Y-150406000D03*
X72344000Y-150406000D03*
X74884000Y-150406000D03*
X77424000Y-150406000D03*
X79964000Y-150406000D03*
D17*
X46944000Y-152946000D03*
D18*
X49484000Y-152946000D03*
X52024000Y-152946000D03*
D17*
X46944000Y-117386000D03*
D18*
X46944000Y-114846000D03*
X46944000Y-112306000D03*
D17*
X46944000Y-147866000D03*
D18*
X46944000Y-145326000D03*
X46944000Y-142786000D03*
X46944000Y-140246000D03*
X46944000Y-137706000D03*
D17*
X46944000Y-132626000D03*
D18*
X46944000Y-130086000D03*
X46944000Y-127546000D03*
X46944000Y-125006000D03*
X46944000Y-122466000D03*
D17*
X46944000Y-107226000D03*
D18*
X49484000Y-107226000D03*
X52024000Y-107226000D03*
D19*
X117120000Y-110000000D03*
D20*
X117120000Y-107460000D03*
X114580000Y-110000000D03*
X114580000Y-107460000D03*
X112040000Y-110000000D03*
X112040000Y-107460000D03*
X109500000Y-110000000D03*
X109500000Y-107460000D03*
%TD*%
D10*
%TO.C,J4*%
X55964000Y-62000000D03*
%TD*%
D21*
%TO.C,Q1*%
X90099000Y-73471000D03*
D22*
X92639000Y-73471000D03*
X95179000Y-73471000D03*
%TD*%
D23*
%TO.C,U1*%
X164620000Y-94120000D03*
D24*
X164620000Y-91580000D03*
X164620000Y-89040000D03*
X164620000Y-86500000D03*
X157000000Y-86500000D03*
X157000000Y-89040000D03*
X157000000Y-91580000D03*
X157000000Y-94120000D03*
%TD*%
D13*
%TO.C,H1*%
X51500000Y-38000000D03*
%TD*%
D25*
%TO.C,U4*%
X50304000Y-92446000D03*
D26*
X52844000Y-92446000D03*
X60464000Y-92446000D03*
X65544000Y-92446000D03*
%TD*%
D13*
%TO.C,H2*%
X167500000Y-38000000D03*
%TD*%
M02*
