%TF.GenerationSoftware,KiCad,Pcbnew,9.0.0*%
%TF.CreationDate,2025-03-06T09:36:57-05:00*%
%TF.ProjectId,PCB_Tutorial_Lect,5043425f-5475-4746-9f72-69616c5f4c65,rev?*%
%TF.SameCoordinates,Original*%
%TF.FileFunction,Copper,L2,Bot*%
%TF.FilePolarity,Positive*%
%FSLAX46Y46*%
G04 Gerber Fmt 4.6, Leading zero omitted, Abs format (unit mm)*
G04 Created by KiCad (PCBNEW 9.0.0) date 2025-03-06 09:36:57*
%MOMM*%
%LPD*%
G01*
G04 APERTURE LIST*
%TA.AperFunction,ComponentPad*%
%ADD10C,10.160000*%
%TD*%
%TA.AperFunction,ComponentPad*%
%ADD11R,2.400000X2.400000*%
%TD*%
%TA.AperFunction,ComponentPad*%
%ADD12C,2.400000*%
%TD*%
%TA.AperFunction,ComponentPad*%
%ADD13R,1.879600X1.879600*%
%TD*%
%TA.AperFunction,ComponentPad*%
%ADD14C,1.879600*%
%TD*%
%TA.AperFunction,ComponentPad*%
%ADD15R,1.524000X1.524000*%
%TD*%
%TA.AperFunction,ComponentPad*%
%ADD16C,1.524000*%
%TD*%
%TA.AperFunction,ComponentPad*%
%ADD17R,1.500000X1.500000*%
%TD*%
%TA.AperFunction,ComponentPad*%
%ADD18C,1.500000*%
%TD*%
%TA.AperFunction,ComponentPad*%
%ADD19R,1.905000X2.000000*%
%TD*%
%TA.AperFunction,ComponentPad*%
%ADD20O,1.905000X2.000000*%
%TD*%
%TA.AperFunction,ComponentPad*%
%ADD21R,1.371600X1.371600*%
%TD*%
%TA.AperFunction,ComponentPad*%
%ADD22C,1.371600*%
%TD*%
%TA.AperFunction,ComponentPad*%
%ADD23R,1.270000X1.270000*%
%TD*%
%TA.AperFunction,ComponentPad*%
%ADD24C,1.270000*%
%TD*%
%TA.AperFunction,ViaPad*%
%ADD25C,0.600000*%
%TD*%
%TA.AperFunction,Conductor*%
%ADD26C,0.400000*%
%TD*%
%TA.AperFunction,Conductor*%
%ADD27C,0.500126*%
%TD*%
G04 APERTURE END LIST*
D10*
%TO.P,J1,1,Pin_1*%
%TO.N,/Power_stage/VIN*%
X56000000Y-48000000D03*
%TD*%
D11*
%TO.P,C3,1*%
%TO.N,/Power_stage/VIN*%
X90486220Y-88446000D03*
D12*
%TO.P,C3,2*%
%TO.N,GND*%
X97986220Y-88446000D03*
%TD*%
D10*
%TO.P,J5,1,Pin_1*%
%TO.N,/VSW*%
X104785000Y-54785000D03*
%TD*%
%TO.P,J2,1,Pin_1*%
%TO.N,GND*%
X167500000Y-49000000D03*
%TD*%
D11*
%TO.P,C5,1*%
%TO.N,/VOUT*%
X162000000Y-72000000D03*
D12*
%TO.P,C5,2*%
%TO.N,GND*%
X169500000Y-72000000D03*
%TD*%
D10*
%TO.P,J3,1,Pin_1*%
%TO.N,/VOUT*%
X152000000Y-49000000D03*
%TD*%
D13*
%TO.P,U2,J1_1,3.3V_J1*%
%TO.N,+3.3V*%
X143464000Y-107226000D03*
D14*
%TO.P,U2,J1_2,GPIO32*%
%TO.N,unconnected-(U2A-GPIO32-PadJ1_2)*%
X140924000Y-107226000D03*
%TO.P,U2,J1_3,GPIO19/SCIRXDB*%
%TO.N,unconnected-(U2A-GPIO19{slash}SCIRXDB-PadJ1_3)*%
X138384000Y-107226000D03*
%TO.P,U2,J1_4,GPIO18/SCITXDB*%
%TO.N,unconnected-(U2A-GPIO18{slash}SCITXDB-PadJ1_4)*%
X135844000Y-107226000D03*
%TO.P,U2,J1_5,GPIO67*%
%TO.N,unconnected-(U2A-GPIO67-PadJ1_5)*%
X133304000Y-107226000D03*
%TO.P,U2,J1_6,GPIO111*%
%TO.N,unconnected-(U2A-GPIO111-PadJ1_6)*%
X130764000Y-107226000D03*
%TO.P,U2,J1_7,GPIO60/SPICLKA*%
%TO.N,unconnected-(U2A-GPIO60{slash}SPICLKA-PadJ1_7)*%
X128224000Y-107226000D03*
%TO.P,U2,J1_8,GPIO22*%
%TO.N,unconnected-(U2A-GPIO22-PadJ1_8)*%
X125684000Y-107226000D03*
%TO.P,U2,J1_9,GPIO105/I2CSCLA*%
%TO.N,unconnected-(U2A-GPIO105{slash}I2CSCLA-PadJ1_9)*%
X123144000Y-107226000D03*
%TO.P,U2,J1_10,GPIO104/I2CSDAA*%
%TO.N,unconnected-(U2A-GPIO104{slash}I2CSDAA-PadJ1_10)*%
X120604000Y-107226000D03*
D13*
%TO.P,U2,J2_1,GPIO29/OPXBAR6*%
%TO.N,unconnected-(U2B-GPIO29{slash}OPXBAR6-PadJ2_1)*%
X120604000Y-152946000D03*
D14*
%TO.P,U2,J2_2,GPIO125/SD1CLK2*%
%TO.N,unconnected-(U2B-GPIO125{slash}SD1CLK2-PadJ2_2)*%
X123144000Y-152946000D03*
%TO.P,U2,J2_3,GPIO124/SD1D2*%
%TO.N,unconnected-(U2B-GPIO124{slash}SD1D2-PadJ2_3)*%
X125684000Y-152946000D03*
%TO.P,U2,J2_4,GPIO59/SPIAMISO*%
%TO.N,unconnected-(U2B-GPIO59{slash}SPIAMISO-PadJ2_4)*%
X128224000Y-152946000D03*
%TO.P,U2,J2_5,GPIO58/SPIAMOSI*%
%TO.N,unconnected-(U2B-GPIO58{slash}SPIAMOSI-PadJ2_5)*%
X130764000Y-152946000D03*
%TO.P,U2,J2_6,~{RESET_J2}*%
%TO.N,unconnected-(U2B-~{RESET_J2}-PadJ2_6)*%
X133304000Y-152946000D03*
%TO.P,U2,J2_7,GPIO122/SD1D1*%
%TO.N,unconnected-(U2B-GPIO122{slash}SD1D1-PadJ2_7)*%
X135844000Y-152946000D03*
%TO.P,U2,J2_8,GPIO123/SD1CLK1*%
%TO.N,unconnected-(U2B-GPIO123{slash}SD1CLK1-PadJ2_8)*%
X138384000Y-152946000D03*
%TO.P,U2,J2_9,GPIO61/SPIACS*%
%TO.N,unconnected-(U2B-GPIO61{slash}SPIACS-PadJ2_9)*%
X140924000Y-152946000D03*
%TO.P,U2,J2_10,GND_J2*%
%TO.N,GND*%
X143464000Y-152946000D03*
D13*
%TO.P,U2,J3_1,+5V_J3*%
%TO.N,unconnected-(U2C-+5V_J3-PadJ3_1)*%
X143464000Y-109766000D03*
D14*
%TO.P,U2,J3_2,GND_J3*%
%TO.N,GND*%
X140924000Y-109766000D03*
%TO.P,U2,J3_3,ADCIN14/ANALOGIN*%
%TO.N,/VFILT*%
X138384000Y-109766000D03*
%TO.P,U2,J3_4,ADCINC3/ANALOGIN*%
%TO.N,unconnected-(U2C-ADCINC3{slash}ANALOGIN-PadJ3_4)*%
X135844000Y-109766000D03*
%TO.P,U2,J3_5,ADCINB3/ANALOGIN*%
%TO.N,unconnected-(U2C-ADCINB3{slash}ANALOGIN-PadJ3_5)*%
X133304000Y-109766000D03*
%TO.P,U2,J3_6,ADCINA3/ANALOGIN*%
%TO.N,unconnected-(U2C-ADCINA3{slash}ANALOGIN-PadJ3_6)*%
X130764000Y-109766000D03*
%TO.P,U2,J3_7,ADCINC2/ANALOGIN*%
%TO.N,unconnected-(U2C-ADCINC2{slash}ANALOGIN-PadJ3_7)*%
X128224000Y-109766000D03*
%TO.P,U2,J3_8,ADCINB2/ANALOGIN*%
%TO.N,unconnected-(U2C-ADCINB2{slash}ANALOGIN-PadJ3_8)*%
X125684000Y-109766000D03*
%TO.P,U2,J3_9,ADCINA2/ANALOGIN*%
%TO.N,unconnected-(U2C-ADCINA2{slash}ANALOGIN-PadJ3_9)*%
X123144000Y-109766000D03*
%TO.P,U2,J3_10,ADCINA0/ANALOGIN(DACA)*%
%TO.N,unconnected-(U2C-ADCINA0{slash}ANALOGIN(DACA)-PadJ3_10)*%
X120604000Y-109766000D03*
D13*
%TO.P,U2,J4_1,PWM/BASED/DAC2*%
%TO.N,unconnected-(U2D-PWM{slash}BASED{slash}DAC2-PadJ4_1)*%
X120604000Y-150406000D03*
D14*
%TO.P,U2,J4_2,PWM/BASED/DAC1*%
%TO.N,unconnected-(U2D-PWM{slash}BASED{slash}DAC1-PadJ4_2)*%
X123144000Y-150406000D03*
%TO.P,U2,J4_3,GPIO16/OPXBAR7*%
%TO.N,unconnected-(U2D-GPIO16{slash}OPXBAR7-PadJ4_3)*%
X125684000Y-150406000D03*
%TO.P,U2,J4_4,GPIO24/OPXBAR1*%
%TO.N,unconnected-(U2D-GPIO24{slash}OPXBAR1-PadJ4_4)*%
X128224000Y-150406000D03*
%TO.P,U2,J4_5,GPIO5/PWMOUT3B*%
%TO.N,unconnected-(U2D-GPIO5{slash}PWMOUT3B-PadJ4_5)*%
X130764000Y-150406000D03*
%TO.P,U2,J4_6,GPIO4/PWMOUT3A*%
%TO.N,unconnected-(U2D-GPIO4{slash}PWMOUT3A-PadJ4_6)*%
X133304000Y-150406000D03*
%TO.P,U2,J4_7,GPIO3/PWMOUT2B*%
%TO.N,unconnected-(U2D-GPIO3{slash}PWMOUT2B-PadJ4_7)*%
X135844000Y-150406000D03*
%TO.P,U2,J4_8,GPIO2//PWMOUT2A*%
%TO.N,unconnected-(U2D-GPIO2{slash}{slash}PWMOUT2A-PadJ4_8)*%
X138384000Y-150406000D03*
%TO.P,U2,J4_9,GPIO1/PWMOUT1B*%
%TO.N,unconnected-(U2D-GPIO1{slash}PWMOUT1B-PadJ4_9)*%
X140924000Y-150406000D03*
%TO.P,U2,J4_10,GPIO0/PWMOUT1A*%
%TO.N,unconnected-(U2D-GPIO0{slash}PWMOUT1A-PadJ4_10)*%
X143464000Y-150406000D03*
D13*
%TO.P,U2,J5_1,3.3V_J5*%
%TO.N,unconnected-(U2E-3.3V_J5-PadJ5_1)*%
X79964000Y-107226000D03*
D14*
%TO.P,U2,J5_2,GPIO95*%
%TO.N,unconnected-(U2E-GPIO95-PadJ5_2)*%
X77424000Y-107226000D03*
%TO.P,U2,J5_3,GPIO139/SCICRX*%
%TO.N,unconnected-(U2E-GPIO139{slash}SCICRX-PadJ5_3)*%
X74884000Y-107226000D03*
%TO.P,U2,J5_4,GPIO56/SCICIX*%
%TO.N,unconnected-(U2E-GPIO56{slash}SCICIX-PadJ5_4)*%
X72344000Y-107226000D03*
%TO.P,U2,J5_5,GPIO97*%
%TO.N,unconnected-(U2E-GPIO97-PadJ5_5)*%
X69804000Y-107226000D03*
%TO.P,U2,J5_6,GPIO94*%
%TO.N,unconnected-(U2E-GPIO94-PadJ5_6)*%
X67264000Y-107226000D03*
%TO.P,U2,J5_7,GPIO65/SPIBCLK*%
%TO.N,unconnected-(U2E-GPIO65{slash}SPIBCLK-PadJ5_7)*%
X64724000Y-107226000D03*
%TO.P,U2,J5_8,GPIO52*%
%TO.N,unconnected-(U2E-GPIO52-PadJ5_8)*%
X62184000Y-107226000D03*
%TO.P,U2,J5_9,GPIO41/I2CSCLB/J5*%
%TO.N,unconnected-(U2E-GPIO41{slash}I2CSCLB{slash}J5-PadJ5_9)*%
X59644000Y-107226000D03*
%TO.P,U2,J5_10,GPIO40/I2CSDAB/J5*%
%TO.N,unconnected-(U2E-GPIO40{slash}I2CSDAB{slash}J5-PadJ5_10)*%
X57104000Y-107226000D03*
D13*
%TO.P,U2,J6_1,GPIO25/OPXBAR2*%
%TO.N,unconnected-(U2F-GPIO25{slash}OPXBAR2-PadJ6_1)*%
X57104000Y-152946000D03*
D14*
%TO.P,U2,J6_2,GPIO27/SD2CLK2*%
%TO.N,unconnected-(U2F-GPIO27{slash}SD2CLK2-PadJ6_2)*%
X59644000Y-152946000D03*
%TO.P,U2,J6_3,GPIO26/SD2D2*%
%TO.N,unconnected-(U2F-GPIO26{slash}SD2D2-PadJ6_3)*%
X62184000Y-152946000D03*
%TO.P,U2,J6_4,GPIO64/SPIBMISO*%
%TO.N,unconnected-(U2F-GPIO64{slash}SPIBMISO-PadJ6_4)*%
X64724000Y-152946000D03*
%TO.P,U2,J6_5,GPIO63/SPIBMOSI*%
%TO.N,unconnected-(U2F-GPIO63{slash}SPIBMOSI-PadJ6_5)*%
X67264000Y-152946000D03*
%TO.P,U2,J6_6,~{RESET_J6}*%
%TO.N,unconnected-(U2F-~{RESET_J6}-PadJ6_6)*%
X69804000Y-152946000D03*
%TO.P,U2,J6_7,GPIO130/SD2D1*%
%TO.N,unconnected-(U2F-GPIO130{slash}SD2D1-PadJ6_7)*%
X72344000Y-152946000D03*
%TO.P,U2,J6_8,GPIO131/SD2CLK1*%
%TO.N,unconnected-(U2F-GPIO131{slash}SD2CLK1-PadJ6_8)*%
X74884000Y-152946000D03*
%TO.P,U2,J6_9,GPIO66/SPIBCS*%
%TO.N,unconnected-(U2F-GPIO66{slash}SPIBCS-PadJ6_9)*%
X77424000Y-152946000D03*
%TO.P,U2,J6_10,GND_J6*%
%TO.N,GND*%
X79964000Y-152946000D03*
D13*
%TO.P,U2,J7_1,+5V_J7*%
%TO.N,+5V*%
X79964000Y-109766000D03*
D14*
%TO.P,U2,J7_2,GND_J7*%
%TO.N,GND*%
X77424000Y-109766000D03*
%TO.P,U2,J7_3,ADCIN15/ANALOGIN*%
%TO.N,unconnected-(U2G-ADCIN15{slash}ANALOGIN-PadJ7_3)*%
X74884000Y-109766000D03*
%TO.P,U2,J7_4,ADCINC5/ANALOGIN*%
%TO.N,unconnected-(U2G-ADCINC5{slash}ANALOGIN-PadJ7_4)*%
X72344000Y-109766000D03*
%TO.P,U2,J7_5,ADCINB5/ANALOGIN*%
%TO.N,unconnected-(U2G-ADCINB5{slash}ANALOGIN-PadJ7_5)*%
X69804000Y-109766000D03*
%TO.P,U2,J7_6,ADCINA5/ANALOGIN*%
%TO.N,unconnected-(U2G-ADCINA5{slash}ANALOGIN-PadJ7_6)*%
X67264000Y-109766000D03*
%TO.P,U2,J7_7,ADCINC4/ANALOGIN*%
%TO.N,unconnected-(U2G-ADCINC4{slash}ANALOGIN-PadJ7_7)*%
X64724000Y-109766000D03*
%TO.P,U2,J7_8,ADCINB4/ANALOGIN*%
%TO.N,unconnected-(U2G-ADCINB4{slash}ANALOGIN-PadJ7_8)*%
X62184000Y-109766000D03*
%TO.P,U2,J7_9,ADCINA4/ANALOGIN*%
%TO.N,unconnected-(U2G-ADCINA4{slash}ANALOGIN-PadJ7_9)*%
X59644000Y-109766000D03*
%TO.P,U2,J7_10,ADCINA1/ANALOGIN(DACB)*%
%TO.N,unconnected-(U2G-ADCINA1{slash}ANALOGIN(DACB)-PadJ7_10)*%
X57104000Y-109766000D03*
D13*
%TO.P,U2,J8_1,PWM/BASED/DAC4*%
%TO.N,unconnected-(U2H-PWM{slash}BASED{slash}DAC4-PadJ8_1)*%
X57104000Y-150406000D03*
D14*
%TO.P,U2,J8_2,PWM/BASED/DAC3*%
%TO.N,unconnected-(U2H-PWM{slash}BASED{slash}DAC3-PadJ8_2)*%
X59644000Y-150406000D03*
%TO.P,U2,J8_3,GPIO15/OPXBAR4*%
%TO.N,unconnected-(U2H-GPIO15{slash}OPXBAR4-PadJ8_3)*%
X62184000Y-150406000D03*
%TO.P,U2,J8_4,GPIO14/OPXBAR3*%
%TO.N,unconnected-(U2H-GPIO14{slash}OPXBAR3-PadJ8_4)*%
X64724000Y-150406000D03*
%TO.P,U2,J8_5,GPIO11/PWMOUT6B*%
%TO.N,/PWM*%
X67264000Y-150406000D03*
%TO.P,U2,J8_6,GPIO10/PWMOUT6A*%
%TO.N,unconnected-(U2H-GPIO10{slash}PWMOUT6A-PadJ8_6)*%
X69804000Y-150406000D03*
%TO.P,U2,J8_7,GPIO9/PWMOUT5B*%
%TO.N,unconnected-(U2H-GPIO9{slash}PWMOUT5B-PadJ8_7)*%
X72344000Y-150406000D03*
%TO.P,U2,J8_8,GPIO8/PWMOUT5A*%
%TO.N,unconnected-(U2H-GPIO8{slash}PWMOUT5A-PadJ8_8)*%
X74884000Y-150406000D03*
%TO.P,U2,J8_9,GPIO7/PWMOUT4B*%
%TO.N,unconnected-(U2H-GPIO7{slash}PWMOUT4B-PadJ8_9)*%
X77424000Y-150406000D03*
%TO.P,U2,J8_10,GPIO6/PWMOUT4A*%
%TO.N,unconnected-(U2H-GPIO6{slash}PWMOUT4A-PadJ8_10)*%
X79964000Y-150406000D03*
D15*
%TO.P,U2,J10_1,+3V_J10*%
%TO.N,unconnected-(U2I-+3V_J10-PadJ10_1)*%
X46944000Y-152946000D03*
D16*
%TO.P,U2,J10_2,GND_J10*%
%TO.N,GND*%
X49484000Y-152946000D03*
%TO.P,U2,J10_3,GND_J10__1*%
X52024000Y-152946000D03*
D15*
%TO.P,U2,J12_1,CANH*%
%TO.N,unconnected-(U2J-CANH-PadJ12_1)*%
X46944000Y-117386000D03*
D16*
%TO.P,U2,J12_2,CANL*%
%TO.N,unconnected-(U2J-CANL-PadJ12_2)*%
X46944000Y-114846000D03*
%TO.P,U2,J12_3,GND_J12*%
%TO.N,GND*%
X46944000Y-112306000D03*
D15*
%TO.P,U2,J14_1,EQEP1A*%
%TO.N,unconnected-(U2K-EQEP1A-PadJ14_1)*%
X46944000Y-147866000D03*
D16*
%TO.P,U2,J14_2,EQEP1B*%
%TO.N,unconnected-(U2K-EQEP1B-PadJ14_2)*%
X46944000Y-145326000D03*
%TO.P,U2,J14_3,EQEP1I*%
%TO.N,unconnected-(U2K-EQEP1I-PadJ14_3)*%
X46944000Y-142786000D03*
%TO.P,U2,J14_4,+5V_J14*%
%TO.N,unconnected-(U2K-+5V_J14-PadJ14_4)*%
X46944000Y-140246000D03*
%TO.P,U2,J14_5,GND_J14*%
%TO.N,GND*%
X46944000Y-137706000D03*
D15*
%TO.P,U2,J15_1,EQEP2A*%
%TO.N,unconnected-(U2L-EQEP2A-PadJ15_1)*%
X46944000Y-132626000D03*
D16*
%TO.P,U2,J15_2,EQEP2B*%
%TO.N,unconnected-(U2L-EQEP2B-PadJ15_2)*%
X46944000Y-130086000D03*
%TO.P,U2,J15_3,EQEP2I*%
%TO.N,unconnected-(U2L-EQEP2I-PadJ15_3)*%
X46944000Y-127546000D03*
%TO.P,U2,J15_4,+5V_J15*%
%TO.N,unconnected-(U2L-+5V_J15-PadJ15_4)*%
X46944000Y-125006000D03*
%TO.P,U2,J15_5,GND_J15*%
%TO.N,GND*%
X46944000Y-122466000D03*
D15*
%TO.P,U2,J16_1,+5V_J16*%
%TO.N,unconnected-(U2N-+5V_J16-PadJ16_1)*%
X46944000Y-107226000D03*
D16*
%TO.P,U2,J16_2,GND_J16*%
%TO.N,GND*%
X49484000Y-107226000D03*
%TO.P,U2,J16_3,GND_J16__1*%
X52024000Y-107226000D03*
D17*
%TO.P,U2,J21_1,ADCIND0*%
%TO.N,unconnected-(U2M-ADCIND0-PadJ21_1)*%
X117120000Y-110000000D03*
D18*
%TO.P,U2,J21_2,TP21/GND*%
%TO.N,GND*%
X117120000Y-107460000D03*
%TO.P,U2,J21_3,ADCIND1*%
%TO.N,unconnected-(U2M-ADCIND1-PadJ21_3)*%
X114580000Y-110000000D03*
%TO.P,U2,J21_4,TP22/GND*%
%TO.N,GND*%
X114580000Y-107460000D03*
%TO.P,U2,J21_5,ADCIND2*%
%TO.N,unconnected-(U2M-ADCIND2-PadJ21_5)*%
X112040000Y-110000000D03*
%TO.P,U2,J21_6,TP23/GND*%
%TO.N,GND*%
X112040000Y-107460000D03*
%TO.P,U2,J21_7,ADCIND3*%
%TO.N,unconnected-(U2M-ADCIND3-PadJ21_7)*%
X109500000Y-110000000D03*
%TO.P,U2,J21_8,TP24/GND*%
%TO.N,GND*%
X109500000Y-107460000D03*
%TD*%
D10*
%TO.P,J4,1,Pin_1*%
%TO.N,GND*%
X55964000Y-62000000D03*
%TD*%
D19*
%TO.P,Q1,1,G*%
%TO.N,/VG*%
X90099000Y-73471000D03*
D20*
%TO.P,Q1,2,D*%
%TO.N,/Power_stage/VIN*%
X92639000Y-73471000D03*
%TO.P,Q1,3,S*%
%TO.N,/VSW*%
X95179000Y-73471000D03*
%TD*%
D21*
%TO.P,U1,1,1OUT*%
%TO.N,/VFILT*%
X164620000Y-94120000D03*
D22*
%TO.P,U1,2,1IN-*%
%TO.N,Net-(U1-1IN-)*%
X164620000Y-91580000D03*
%TO.P,U1,3,1IN+*%
%TO.N,Net-(U1-1IN+)*%
X164620000Y-89040000D03*
%TO.P,U1,4,GND*%
%TO.N,GND*%
X164620000Y-86500000D03*
%TO.P,U1,5,2IN+*%
%TO.N,unconnected-(U1-2IN+-Pad5)*%
X157000000Y-86500000D03*
%TO.P,U1,6,2IN-*%
%TO.N,unconnected-(U1-2IN--Pad6)*%
X157000000Y-89040000D03*
%TO.P,U1,7,2OUT*%
%TO.N,unconnected-(U1-2OUT-Pad7)*%
X157000000Y-91580000D03*
%TO.P,U1,8,VCC*%
%TO.N,+3.3V*%
X157000000Y-94120000D03*
%TD*%
D23*
%TO.P,U4,1,+VIN(VCC)*%
%TO.N,+5V*%
X50304000Y-92446000D03*
D24*
%TO.P,U4,2,-VIN(GGND)*%
%TO.N,GND*%
X52844000Y-92446000D03*
%TO.P,U4,5,-VOUT*%
%TO.N,/VSW*%
X60464000Y-92446000D03*
%TO.P,U4,7,+VOUT*%
%TO.N,/GD/ISO_12*%
X65544000Y-92446000D03*
%TD*%
D25*
%TO.N,GND*%
X171000000Y-85000000D03*
X82500000Y-96000000D03*
X55000000Y-88500000D03*
X53500000Y-82000000D03*
X162000000Y-97500000D03*
%TO.N,/VFILT*%
X165000000Y-101500000D03*
%TO.N,/VSW*%
X91000000Y-75500000D03*
%TD*%
D26*
%TO.N,GND*%
X170964000Y-84964000D02*
X171000000Y-85000000D01*
D27*
%TO.N,/VFILT*%
X165000000Y-101500000D02*
X165000000Y-100500000D01*
X165000000Y-100500000D02*
X164620000Y-100120000D01*
X164620000Y-100120000D02*
X164620000Y-94120000D01*
%TO.N,/VSW*%
X93150000Y-75500000D02*
X91000000Y-75500000D01*
X95179000Y-73471000D02*
X93150000Y-75500000D01*
%TD*%
%TA.AperFunction,Conductor*%
%TO.N,GND*%
G36*
X78780420Y-151230417D02*
G01*
X78794315Y-151246453D01*
X78864299Y-151342778D01*
X78865400Y-151344293D01*
X79025708Y-151504601D01*
X79025713Y-151504605D01*
X79123967Y-151575991D01*
X79166633Y-151631321D01*
X79172612Y-151700934D01*
X79140006Y-151762729D01*
X79138157Y-151764330D01*
X79137991Y-151766439D01*
X79828057Y-152456504D01*
X79767919Y-152472619D01*
X79652080Y-152539498D01*
X79557498Y-152634080D01*
X79490619Y-152749919D01*
X79474504Y-152810057D01*
X78784439Y-152119991D01*
X78775531Y-152120693D01*
X78739296Y-152148634D01*
X78669682Y-152154612D01*
X78607888Y-152122005D01*
X78593991Y-152105967D01*
X78522605Y-152007713D01*
X78522601Y-152007708D01*
X78362293Y-151847400D01*
X78311965Y-151810835D01*
X78264456Y-151776317D01*
X78221791Y-151720989D01*
X78215812Y-151651376D01*
X78248417Y-151589580D01*
X78264456Y-151575682D01*
X78362293Y-151504600D01*
X78522600Y-151344293D01*
X78593682Y-151246456D01*
X78649011Y-151203791D01*
X78718624Y-151197812D01*
X78780420Y-151230417D01*
G37*
%TD.AperFunction*%
%TA.AperFunction,Conductor*%
G36*
X142280420Y-151230417D02*
G01*
X142294315Y-151246453D01*
X142364299Y-151342778D01*
X142365400Y-151344293D01*
X142525708Y-151504601D01*
X142525713Y-151504605D01*
X142623967Y-151575991D01*
X142666633Y-151631321D01*
X142672612Y-151700934D01*
X142640006Y-151762729D01*
X142638157Y-151764330D01*
X142637991Y-151766439D01*
X143328057Y-152456504D01*
X143267919Y-152472619D01*
X143152080Y-152539498D01*
X143057498Y-152634080D01*
X142990619Y-152749919D01*
X142974504Y-152810057D01*
X142284439Y-152119991D01*
X142275531Y-152120693D01*
X142239296Y-152148634D01*
X142169682Y-152154612D01*
X142107888Y-152122005D01*
X142093991Y-152105967D01*
X142022605Y-152007713D01*
X142022601Y-152007708D01*
X141862293Y-151847400D01*
X141811965Y-151810835D01*
X141764456Y-151776317D01*
X141721791Y-151720989D01*
X141715812Y-151651376D01*
X141748417Y-151589580D01*
X141764456Y-151575682D01*
X141862293Y-151504600D01*
X142022600Y-151344293D01*
X142093682Y-151246456D01*
X142149011Y-151203791D01*
X142218624Y-151197812D01*
X142280420Y-151230417D01*
G37*
%TD.AperFunction*%
%TA.AperFunction,Conductor*%
G36*
X111574075Y-107652993D02*
G01*
X111639901Y-107767007D01*
X111732993Y-107860099D01*
X111847007Y-107925925D01*
X111910590Y-107942962D01*
X111349873Y-108503677D01*
X111349873Y-108503678D01*
X111384858Y-108529096D01*
X111561764Y-108619234D01*
X111612560Y-108667209D01*
X111629355Y-108735030D01*
X111606818Y-108801164D01*
X111561764Y-108840204D01*
X111384594Y-108930476D01*
X111332272Y-108968491D01*
X111225354Y-109046172D01*
X111225352Y-109046174D01*
X111225351Y-109046174D01*
X111086174Y-109185351D01*
X111086174Y-109185352D01*
X111086172Y-109185354D01*
X111036485Y-109253741D01*
X110970476Y-109344594D01*
X110880485Y-109521213D01*
X110832511Y-109572009D01*
X110764690Y-109588804D01*
X110698555Y-109566267D01*
X110659515Y-109521213D01*
X110612391Y-109428727D01*
X110569524Y-109344595D01*
X110453828Y-109185354D01*
X110314646Y-109046172D01*
X110155405Y-108930476D01*
X109980025Y-108841116D01*
X109980024Y-108841115D01*
X109978235Y-108840204D01*
X109927439Y-108792230D01*
X109910644Y-108724409D01*
X109933181Y-108658274D01*
X109978236Y-108619234D01*
X110155141Y-108529097D01*
X110190125Y-108503678D01*
X110190126Y-108503678D01*
X109629410Y-107942962D01*
X109692993Y-107925925D01*
X109807007Y-107860099D01*
X109900099Y-107767007D01*
X109965925Y-107652993D01*
X109982962Y-107589410D01*
X110543678Y-108150126D01*
X110543678Y-108150125D01*
X110569097Y-108115141D01*
X110659515Y-107937685D01*
X110707489Y-107886888D01*
X110775310Y-107870093D01*
X110841445Y-107892630D01*
X110880485Y-107937684D01*
X110970905Y-108115145D01*
X110996319Y-108150125D01*
X110996320Y-108150125D01*
X111557037Y-107589408D01*
X111574075Y-107652993D01*
G37*
%TD.AperFunction*%
%TA.AperFunction,Conductor*%
G36*
X114114075Y-107652993D02*
G01*
X114179901Y-107767007D01*
X114272993Y-107860099D01*
X114387007Y-107925925D01*
X114450590Y-107942962D01*
X113889873Y-108503677D01*
X113889873Y-108503678D01*
X113924858Y-108529096D01*
X114101764Y-108619234D01*
X114152560Y-108667209D01*
X114169355Y-108735030D01*
X114146818Y-108801164D01*
X114101764Y-108840204D01*
X113924594Y-108930476D01*
X113872272Y-108968491D01*
X113765354Y-109046172D01*
X113765352Y-109046174D01*
X113765351Y-109046174D01*
X113626174Y-109185351D01*
X113626174Y-109185352D01*
X113626172Y-109185354D01*
X113576485Y-109253741D01*
X113510476Y-109344594D01*
X113420485Y-109521213D01*
X113372511Y-109572009D01*
X113304690Y-109588804D01*
X113238555Y-109566267D01*
X113199515Y-109521213D01*
X113152391Y-109428727D01*
X113109524Y-109344595D01*
X112993828Y-109185354D01*
X112854646Y-109046172D01*
X112695405Y-108930476D01*
X112520025Y-108841116D01*
X112520024Y-108841115D01*
X112518235Y-108840204D01*
X112467439Y-108792230D01*
X112450644Y-108724409D01*
X112473181Y-108658274D01*
X112518236Y-108619234D01*
X112695141Y-108529097D01*
X112730125Y-108503678D01*
X112730126Y-108503678D01*
X112169410Y-107942962D01*
X112232993Y-107925925D01*
X112347007Y-107860099D01*
X112440099Y-107767007D01*
X112505925Y-107652993D01*
X112522962Y-107589410D01*
X113083678Y-108150126D01*
X113083678Y-108150125D01*
X113109097Y-108115141D01*
X113199515Y-107937685D01*
X113247489Y-107886888D01*
X113315310Y-107870093D01*
X113381445Y-107892630D01*
X113420485Y-107937684D01*
X113510905Y-108115145D01*
X113536319Y-108150125D01*
X113536320Y-108150125D01*
X114097037Y-107589408D01*
X114114075Y-107652993D01*
G37*
%TD.AperFunction*%
%TA.AperFunction,Conductor*%
G36*
X116654075Y-107652993D02*
G01*
X116719901Y-107767007D01*
X116812993Y-107860099D01*
X116927007Y-107925925D01*
X116990590Y-107942962D01*
X116429873Y-108503677D01*
X116429873Y-108503678D01*
X116459470Y-108525181D01*
X116502137Y-108580510D01*
X116508117Y-108650124D01*
X116475512Y-108711919D01*
X116414673Y-108746277D01*
X116386588Y-108749500D01*
X116322130Y-108749500D01*
X116322123Y-108749501D01*
X116262516Y-108755908D01*
X116127671Y-108806202D01*
X116127664Y-108806206D01*
X116012455Y-108892452D01*
X116012452Y-108892455D01*
X115926206Y-109007664D01*
X115926202Y-109007671D01*
X115875908Y-109142517D01*
X115871303Y-109185354D01*
X115869501Y-109202123D01*
X115869500Y-109202135D01*
X115869500Y-109265732D01*
X115849815Y-109332771D01*
X115797011Y-109378526D01*
X115727853Y-109388470D01*
X115664297Y-109359445D01*
X115645182Y-109338618D01*
X115586609Y-109258000D01*
X115533828Y-109185354D01*
X115394646Y-109046172D01*
X115235405Y-108930476D01*
X115060025Y-108841116D01*
X115060024Y-108841115D01*
X115058235Y-108840204D01*
X115007439Y-108792230D01*
X114990644Y-108724409D01*
X115013181Y-108658274D01*
X115058236Y-108619234D01*
X115235141Y-108529097D01*
X115270125Y-108503678D01*
X115270126Y-108503678D01*
X114709410Y-107942962D01*
X114772993Y-107925925D01*
X114887007Y-107860099D01*
X114980099Y-107767007D01*
X115045925Y-107652993D01*
X115062962Y-107589410D01*
X115623678Y-108150126D01*
X115623678Y-108150125D01*
X115649097Y-108115141D01*
X115739515Y-107937685D01*
X115787489Y-107886888D01*
X115855310Y-107870093D01*
X115921445Y-107892630D01*
X115960485Y-107937684D01*
X116050905Y-108115145D01*
X116076319Y-108150125D01*
X116076320Y-108150125D01*
X116637037Y-107589408D01*
X116654075Y-107652993D01*
G37*
%TD.AperFunction*%
%TA.AperFunction,Conductor*%
G36*
X76240420Y-108050417D02*
G01*
X76254315Y-108066453D01*
X76275407Y-108095483D01*
X76325400Y-108164293D01*
X76485708Y-108324601D01*
X76485713Y-108324605D01*
X76583967Y-108395991D01*
X76626633Y-108451321D01*
X76632612Y-108520934D01*
X76600006Y-108582729D01*
X76598157Y-108584330D01*
X76597991Y-108586439D01*
X77288057Y-109276504D01*
X77227919Y-109292619D01*
X77112080Y-109359498D01*
X77017498Y-109454080D01*
X76950619Y-109569919D01*
X76934504Y-109630057D01*
X76244439Y-108939991D01*
X76235531Y-108940693D01*
X76199296Y-108968634D01*
X76129682Y-108974612D01*
X76067888Y-108942005D01*
X76053991Y-108925967D01*
X75982605Y-108827713D01*
X75982601Y-108827708D01*
X75822293Y-108667400D01*
X75771965Y-108630835D01*
X75724456Y-108596317D01*
X75681791Y-108540989D01*
X75675812Y-108471376D01*
X75708417Y-108409580D01*
X75724456Y-108395682D01*
X75822293Y-108324600D01*
X75982600Y-108164293D01*
X76053682Y-108066456D01*
X76109011Y-108023791D01*
X76178624Y-108017812D01*
X76240420Y-108050417D01*
G37*
%TD.AperFunction*%
%TA.AperFunction,Conductor*%
G36*
X78466898Y-108294494D02*
G01*
X78493021Y-108296359D01*
X78500469Y-108301933D01*
X78509550Y-108303945D01*
X78527994Y-108322531D01*
X78548961Y-108338222D01*
X78555565Y-108350315D01*
X78558765Y-108353539D01*
X78559688Y-108357863D01*
X78565887Y-108369213D01*
X78580401Y-108408125D01*
X78580405Y-108408134D01*
X78590554Y-108421691D01*
X78614970Y-108487155D01*
X78600117Y-108555428D01*
X78590554Y-108570309D01*
X78580405Y-108583865D01*
X78580402Y-108583871D01*
X78530108Y-108718717D01*
X78526799Y-108749500D01*
X78523701Y-108778323D01*
X78523700Y-108778335D01*
X78523700Y-108968491D01*
X78504015Y-109035530D01*
X78487381Y-109056172D01*
X77913495Y-109630057D01*
X77897381Y-109569919D01*
X77830502Y-109454080D01*
X77735920Y-109359498D01*
X77620081Y-109292619D01*
X77559940Y-109276504D01*
X78250007Y-108586439D01*
X78249306Y-108577533D01*
X78247229Y-108574840D01*
X78227856Y-108555318D01*
X78226201Y-108547570D01*
X78221364Y-108541297D01*
X78219009Y-108513889D01*
X78213266Y-108486988D01*
X78216062Y-108479576D01*
X78215385Y-108471683D01*
X78228222Y-108447353D01*
X78237934Y-108421618D01*
X78245961Y-108413735D01*
X78247991Y-108409888D01*
X78262986Y-108396758D01*
X78263466Y-108396401D01*
X78362293Y-108324600D01*
X78368468Y-108318424D01*
X78375777Y-108312997D01*
X78400346Y-108303940D01*
X78423329Y-108291386D01*
X78432607Y-108292048D01*
X78441335Y-108288831D01*
X78466898Y-108294494D01*
G37*
%TD.AperFunction*%
%TA.AperFunction,Conductor*%
G36*
X139740420Y-108050417D02*
G01*
X139754315Y-108066453D01*
X139775407Y-108095483D01*
X139825400Y-108164293D01*
X139985708Y-108324601D01*
X139985713Y-108324605D01*
X140083967Y-108395991D01*
X140126633Y-108451321D01*
X140132612Y-108520934D01*
X140100006Y-108582729D01*
X140098157Y-108584330D01*
X140097991Y-108586439D01*
X140788057Y-109276504D01*
X140727919Y-109292619D01*
X140612080Y-109359498D01*
X140517498Y-109454080D01*
X140450619Y-109569919D01*
X140434504Y-109630057D01*
X139744439Y-108939991D01*
X139735531Y-108940693D01*
X139699296Y-108968634D01*
X139629682Y-108974612D01*
X139567888Y-108942005D01*
X139553991Y-108925967D01*
X139482605Y-108827713D01*
X139482601Y-108827708D01*
X139322293Y-108667400D01*
X139271965Y-108630835D01*
X139224456Y-108596317D01*
X139181791Y-108540989D01*
X139175812Y-108471376D01*
X139208417Y-108409580D01*
X139224456Y-108395682D01*
X139322293Y-108324600D01*
X139482600Y-108164293D01*
X139553682Y-108066456D01*
X139609011Y-108023791D01*
X139678624Y-108017812D01*
X139740420Y-108050417D01*
G37*
%TD.AperFunction*%
%TA.AperFunction,Conductor*%
G36*
X141966898Y-108294494D02*
G01*
X141993021Y-108296359D01*
X142000469Y-108301933D01*
X142009550Y-108303945D01*
X142027994Y-108322531D01*
X142048961Y-108338222D01*
X142055565Y-108350315D01*
X142058765Y-108353539D01*
X142059688Y-108357863D01*
X142065887Y-108369213D01*
X142080401Y-108408125D01*
X142080405Y-108408134D01*
X142090554Y-108421691D01*
X142114970Y-108487155D01*
X142100117Y-108555428D01*
X142090554Y-108570309D01*
X142080405Y-108583865D01*
X142080402Y-108583871D01*
X142030108Y-108718717D01*
X142026799Y-108749500D01*
X142023701Y-108778323D01*
X142023700Y-108778335D01*
X142023700Y-108968491D01*
X142004015Y-109035530D01*
X141987381Y-109056172D01*
X141413495Y-109630057D01*
X141397381Y-109569919D01*
X141330502Y-109454080D01*
X141235920Y-109359498D01*
X141120081Y-109292619D01*
X141059940Y-109276504D01*
X141750007Y-108586439D01*
X141749306Y-108577533D01*
X141747229Y-108574840D01*
X141727856Y-108555318D01*
X141726201Y-108547570D01*
X141721364Y-108541297D01*
X141719009Y-108513889D01*
X141713266Y-108486988D01*
X141716062Y-108479576D01*
X141715385Y-108471683D01*
X141728222Y-108447353D01*
X141737934Y-108421618D01*
X141745961Y-108413735D01*
X141747991Y-108409888D01*
X141762986Y-108396758D01*
X141763466Y-108396401D01*
X141862293Y-108324600D01*
X141868468Y-108318424D01*
X141875777Y-108312997D01*
X141900346Y-108303940D01*
X141923329Y-108291386D01*
X141932607Y-108292048D01*
X141941335Y-108288831D01*
X141966898Y-108294494D01*
G37*
%TD.AperFunction*%
%TA.AperFunction,Conductor*%
G36*
X172516177Y-33520185D02*
G01*
X172536819Y-33536819D01*
X176463181Y-37463181D01*
X176496666Y-37524504D01*
X176499500Y-37550862D01*
X176499500Y-165614500D01*
X176479815Y-165681539D01*
X176462389Y-165702966D01*
X174128559Y-167995199D01*
X173142211Y-168963966D01*
X173080592Y-168996898D01*
X173055324Y-168999500D01*
X48358244Y-168999500D01*
X48291205Y-168979815D01*
X48270879Y-168963496D01*
X45037135Y-165752931D01*
X45003429Y-165691729D01*
X45000500Y-165664935D01*
X45000500Y-164352486D01*
X50249500Y-164352486D01*
X50249500Y-164647513D01*
X50281571Y-164891113D01*
X50288007Y-164939993D01*
X50288008Y-164939995D01*
X50364361Y-165224951D01*
X50364364Y-165224961D01*
X50477254Y-165497500D01*
X50477258Y-165497510D01*
X50624761Y-165752993D01*
X50804352Y-165987040D01*
X50804358Y-165987047D01*
X51012952Y-166195641D01*
X51012959Y-166195647D01*
X51247006Y-166375238D01*
X51502489Y-166522741D01*
X51502490Y-166522741D01*
X51502493Y-166522743D01*
X51775048Y-166635639D01*
X52060007Y-166711993D01*
X52352494Y-166750500D01*
X52352501Y-166750500D01*
X52647499Y-166750500D01*
X52647506Y-166750500D01*
X52939993Y-166711993D01*
X53224952Y-166635639D01*
X53497507Y-166522743D01*
X53752994Y-166375238D01*
X53987042Y-166195646D01*
X54195646Y-165987042D01*
X54375238Y-165752994D01*
X54522743Y-165497507D01*
X54635639Y-165224952D01*
X54711993Y-164939993D01*
X54750500Y-164647506D01*
X54750500Y-164352494D01*
X54750499Y-164352486D01*
X165249500Y-164352486D01*
X165249500Y-164647513D01*
X165281571Y-164891113D01*
X165288007Y-164939993D01*
X165288008Y-164939995D01*
X165364361Y-165224951D01*
X165364364Y-165224961D01*
X165477254Y-165497500D01*
X165477258Y-165497510D01*
X165624761Y-165752993D01*
X165804352Y-165987040D01*
X165804358Y-165987047D01*
X166012952Y-166195641D01*
X166012959Y-166195647D01*
X166247006Y-166375238D01*
X166502489Y-166522741D01*
X166502490Y-166522741D01*
X166502493Y-166522743D01*
X166775048Y-166635639D01*
X167060007Y-166711993D01*
X167352494Y-166750500D01*
X167352501Y-166750500D01*
X167647499Y-166750500D01*
X167647506Y-166750500D01*
X167939993Y-166711993D01*
X168224952Y-166635639D01*
X168497507Y-166522743D01*
X168752994Y-166375238D01*
X168987042Y-166195646D01*
X169195646Y-165987042D01*
X169375238Y-165752994D01*
X169522743Y-165497507D01*
X169635639Y-165224952D01*
X169711993Y-164939993D01*
X169750500Y-164647506D01*
X169750500Y-164352494D01*
X169711993Y-164060007D01*
X169635639Y-163775048D01*
X169522743Y-163502493D01*
X169375238Y-163247006D01*
X169195646Y-163012958D01*
X169195641Y-163012952D01*
X168987047Y-162804358D01*
X168987040Y-162804352D01*
X168752993Y-162624761D01*
X168497510Y-162477258D01*
X168497500Y-162477254D01*
X168224961Y-162364364D01*
X168224954Y-162364362D01*
X168224952Y-162364361D01*
X167939993Y-162288007D01*
X167891113Y-162281571D01*
X167647513Y-162249500D01*
X167647506Y-162249500D01*
X167352494Y-162249500D01*
X167352486Y-162249500D01*
X167074085Y-162286153D01*
X167060007Y-162288007D01*
X166775048Y-162364361D01*
X166775038Y-162364364D01*
X166502499Y-162477254D01*
X166502489Y-162477258D01*
X166247006Y-162624761D01*
X166012959Y-162804352D01*
X166012952Y-162804358D01*
X165804358Y-163012952D01*
X165804352Y-163012959D01*
X165624761Y-163247006D01*
X165477258Y-163502489D01*
X165477254Y-163502499D01*
X165364364Y-163775038D01*
X165364361Y-163775048D01*
X165288008Y-164060004D01*
X165288006Y-164060015D01*
X165249500Y-164352486D01*
X54750499Y-164352486D01*
X54711993Y-164060007D01*
X54635639Y-163775048D01*
X54522743Y-163502493D01*
X54375238Y-163247006D01*
X54195646Y-163012958D01*
X54195641Y-163012952D01*
X53987047Y-162804358D01*
X53987040Y-162804352D01*
X53752993Y-162624761D01*
X53497510Y-162477258D01*
X53497500Y-162477254D01*
X53224961Y-162364364D01*
X53224954Y-162364362D01*
X53224952Y-162364361D01*
X52939993Y-162288007D01*
X52891113Y-162281571D01*
X52647513Y-162249500D01*
X52647506Y-162249500D01*
X52352494Y-162249500D01*
X52352486Y-162249500D01*
X52074085Y-162286153D01*
X52060007Y-162288007D01*
X51775048Y-162364361D01*
X51775038Y-162364364D01*
X51502499Y-162477254D01*
X51502489Y-162477258D01*
X51247006Y-162624761D01*
X51012959Y-162804352D01*
X51012952Y-162804358D01*
X50804358Y-163012952D01*
X50804352Y-163012959D01*
X50624761Y-163247006D01*
X50477258Y-163502489D01*
X50477254Y-163502499D01*
X50364364Y-163775038D01*
X50364361Y-163775048D01*
X50288008Y-164060004D01*
X50288006Y-164060015D01*
X50249500Y-164352486D01*
X45000500Y-164352486D01*
X45000500Y-156635530D01*
X46376000Y-156635530D01*
X46376000Y-156876469D01*
X46407447Y-157115341D01*
X46469808Y-157348073D01*
X46562006Y-157570662D01*
X46562011Y-157570671D01*
X46682480Y-157779329D01*
X46682483Y-157779334D01*
X46682485Y-157779336D01*
X46829151Y-157970476D01*
X46829157Y-157970483D01*
X46999516Y-158140842D01*
X46999522Y-158140847D01*
X47190671Y-158287520D01*
X47399329Y-158407989D01*
X47399332Y-158407990D01*
X47399337Y-158407993D01*
X47519424Y-158457734D01*
X47621927Y-158500192D01*
X47854655Y-158562552D01*
X48033812Y-158586138D01*
X48093530Y-158594000D01*
X48093531Y-158594000D01*
X48334470Y-158594000D01*
X48382244Y-158587710D01*
X48573345Y-158562552D01*
X48806073Y-158500192D01*
X48981053Y-158427712D01*
X49028662Y-158407993D01*
X49028663Y-158407991D01*
X49028671Y-158407989D01*
X49237329Y-158287520D01*
X49428478Y-158140847D01*
X49598847Y-157970478D01*
X49745520Y-157779329D01*
X49865989Y-157570671D01*
X49958192Y-157348073D01*
X50020552Y-157115345D01*
X50052000Y-156876469D01*
X50052000Y-156635531D01*
X50052000Y-156635530D01*
X170836000Y-156635530D01*
X170836000Y-156876469D01*
X170867447Y-157115341D01*
X170929808Y-157348073D01*
X171022006Y-157570662D01*
X171022011Y-157570671D01*
X171142480Y-157779329D01*
X171142483Y-157779334D01*
X171142485Y-157779336D01*
X171289151Y-157970476D01*
X171289157Y-157970483D01*
X171459516Y-158140842D01*
X171459522Y-158140847D01*
X171650671Y-158287520D01*
X171859329Y-158407989D01*
X171859332Y-158407990D01*
X171859337Y-158407993D01*
X171979424Y-158457734D01*
X172081927Y-158500192D01*
X172314655Y-158562552D01*
X172493812Y-158586138D01*
X172553530Y-158594000D01*
X172553531Y-158594000D01*
X172794470Y-158594000D01*
X172842244Y-158587710D01*
X173033345Y-158562552D01*
X173266073Y-158500192D01*
X173441053Y-158427712D01*
X173488662Y-158407993D01*
X173488663Y-158407991D01*
X173488671Y-158407989D01*
X173697329Y-158287520D01*
X173888478Y-158140847D01*
X174058847Y-157970478D01*
X174205520Y-157779329D01*
X174325989Y-157570671D01*
X174418192Y-157348073D01*
X174480552Y-157115345D01*
X174512000Y-156876469D01*
X174512000Y-156635531D01*
X174480552Y-156396655D01*
X174418192Y-156163927D01*
X174375734Y-156061424D01*
X174325993Y-155941337D01*
X174325988Y-155941328D01*
X174205520Y-155732671D01*
X174058847Y-155541522D01*
X174058842Y-155541516D01*
X173888483Y-155371157D01*
X173888476Y-155371151D01*
X173697336Y-155224485D01*
X173697334Y-155224483D01*
X173697329Y-155224480D01*
X173488671Y-155104011D01*
X173488662Y-155104006D01*
X173266073Y-155011808D01*
X173033341Y-154949447D01*
X172794470Y-154918000D01*
X172794469Y-154918000D01*
X172553531Y-154918000D01*
X172553530Y-154918000D01*
X172314658Y-154949447D01*
X172081926Y-155011808D01*
X171859337Y-155104006D01*
X171859328Y-155104011D01*
X171733644Y-155176575D01*
X171650671Y-155224480D01*
X171650668Y-155224481D01*
X171650663Y-155224485D01*
X171459523Y-155371151D01*
X171459516Y-155371157D01*
X171289157Y-155541516D01*
X171289151Y-155541523D01*
X171142485Y-155732663D01*
X171022011Y-155941328D01*
X171022006Y-155941337D01*
X170929808Y-156163926D01*
X170867447Y-156396658D01*
X170836000Y-156635530D01*
X50052000Y-156635530D01*
X50020552Y-156396655D01*
X49958192Y-156163927D01*
X49915734Y-156061424D01*
X49865993Y-155941337D01*
X49865988Y-155941328D01*
X49745520Y-155732671D01*
X49598847Y-155541522D01*
X49598842Y-155541516D01*
X49428483Y-155371157D01*
X49428476Y-155371151D01*
X49237336Y-155224485D01*
X49237334Y-155224483D01*
X49237329Y-155224480D01*
X49028671Y-155104011D01*
X49028662Y-155104006D01*
X48806073Y-155011808D01*
X48573341Y-154949447D01*
X48334470Y-154918000D01*
X48334469Y-154918000D01*
X48093531Y-154918000D01*
X48093530Y-154918000D01*
X47854658Y-154949447D01*
X47621926Y-155011808D01*
X47399337Y-155104006D01*
X47399328Y-155104011D01*
X47273644Y-155176575D01*
X47190671Y-155224480D01*
X47190668Y-155224481D01*
X47190663Y-155224485D01*
X46999523Y-155371151D01*
X46999516Y-155371157D01*
X46829157Y-155541516D01*
X46829151Y-155541523D01*
X46682485Y-155732663D01*
X46562011Y-155941328D01*
X46562006Y-155941337D01*
X46469808Y-156163926D01*
X46407447Y-156396658D01*
X46376000Y-156635530D01*
X45000500Y-156635530D01*
X45000500Y-152136135D01*
X45681500Y-152136135D01*
X45681500Y-153755870D01*
X45681501Y-153755876D01*
X45687908Y-153815483D01*
X45738202Y-153950328D01*
X45738206Y-153950335D01*
X45824452Y-154065544D01*
X45824455Y-154065547D01*
X45939664Y-154151793D01*
X45939671Y-154151797D01*
X46074517Y-154202091D01*
X46074516Y-154202091D01*
X46081444Y-154202835D01*
X46134127Y-154208500D01*
X47753872Y-154208499D01*
X47813483Y-154202091D01*
X47948331Y-154151796D01*
X48063546Y-154065546D01*
X48149796Y-153950331D01*
X48200091Y-153815483D01*
X48206500Y-153755873D01*
X48206499Y-153703632D01*
X48209077Y-153691192D01*
X48219776Y-153671126D01*
X48226182Y-153649308D01*
X48235900Y-153640886D01*
X48241951Y-153629539D01*
X48261800Y-153618442D01*
X48278985Y-153603552D01*
X48291713Y-153601721D01*
X48302938Y-153595447D01*
X48325635Y-153596843D01*
X48348143Y-153593607D01*
X48359839Y-153598948D01*
X48372676Y-153599738D01*
X48391015Y-153613184D01*
X48411700Y-153622630D01*
X48427753Y-153640121D01*
X48429023Y-153641052D01*
X48429322Y-153641830D01*
X48430816Y-153643458D01*
X48431729Y-153644715D01*
X48431731Y-153644716D01*
X48994504Y-153081942D01*
X49010619Y-153142081D01*
X49077498Y-153257920D01*
X49172080Y-153352502D01*
X49287919Y-153419381D01*
X49348057Y-153435494D01*
X48785283Y-153998268D01*
X48785283Y-153998269D01*
X48822567Y-154025358D01*
X48999562Y-154115542D01*
X49188477Y-154176924D01*
X49384679Y-154208000D01*
X49583321Y-154208000D01*
X49779520Y-154176924D01*
X49779523Y-154176924D01*
X49968437Y-154115542D01*
X50145425Y-154025362D01*
X50182716Y-153998268D01*
X49619942Y-153435494D01*
X49680081Y-153419381D01*
X49795920Y-153352502D01*
X49890502Y-153257920D01*
X49957381Y-153142081D01*
X49973495Y-153081942D01*
X50536268Y-153644715D01*
X50563362Y-153607425D01*
X50643515Y-153450117D01*
X50691489Y-153399321D01*
X50759310Y-153382526D01*
X50825445Y-153405063D01*
X50864485Y-153450117D01*
X50944641Y-153607432D01*
X50971730Y-153644715D01*
X51534504Y-153081941D01*
X51550619Y-153142081D01*
X51617498Y-153257920D01*
X51712080Y-153352502D01*
X51827919Y-153419381D01*
X51888057Y-153435494D01*
X51325283Y-153998268D01*
X51325283Y-153998269D01*
X51362567Y-154025358D01*
X51539562Y-154115542D01*
X51728477Y-154176924D01*
X51924679Y-154208000D01*
X52123321Y-154208000D01*
X52319520Y-154176924D01*
X52319523Y-154176924D01*
X52508437Y-154115542D01*
X52685425Y-154025362D01*
X52722716Y-153998268D01*
X52159942Y-153435494D01*
X52220081Y-153419381D01*
X52335920Y-153352502D01*
X52430502Y-153257920D01*
X52497381Y-153142081D01*
X52513495Y-153081942D01*
X53076268Y-153644715D01*
X53103362Y-153607425D01*
X53193542Y-153430437D01*
X53254924Y-153241523D01*
X53254924Y-153241520D01*
X53286000Y-153045321D01*
X53286000Y-152846678D01*
X53254924Y-152650479D01*
X53254924Y-152650476D01*
X53193542Y-152461562D01*
X53103358Y-152284567D01*
X53076268Y-152247283D01*
X52513494Y-152810057D01*
X52497381Y-152749919D01*
X52430502Y-152634080D01*
X52335920Y-152539498D01*
X52220081Y-152472619D01*
X52159942Y-152456504D01*
X52722716Y-151893731D01*
X52722715Y-151893730D01*
X52685432Y-151866641D01*
X52508437Y-151776457D01*
X52319522Y-151715075D01*
X52123321Y-151684000D01*
X51924679Y-151684000D01*
X51728479Y-151715075D01*
X51728476Y-151715075D01*
X51539562Y-151776457D01*
X51362564Y-151866643D01*
X51325283Y-151893729D01*
X51325282Y-151893730D01*
X51888058Y-152456504D01*
X51827919Y-152472619D01*
X51712080Y-152539498D01*
X51617498Y-152634080D01*
X51550619Y-152749919D01*
X51534504Y-152810057D01*
X50971730Y-152247282D01*
X50971729Y-152247283D01*
X50944643Y-152284564D01*
X50864485Y-152441882D01*
X50816510Y-152492678D01*
X50748689Y-152509473D01*
X50682554Y-152486935D01*
X50643515Y-152441882D01*
X50563358Y-152284567D01*
X50536268Y-152247283D01*
X49973494Y-152810057D01*
X49957381Y-152749919D01*
X49890502Y-152634080D01*
X49795920Y-152539498D01*
X49680081Y-152472619D01*
X49619942Y-152456504D01*
X50182716Y-151893731D01*
X50182715Y-151893730D01*
X50145432Y-151866641D01*
X49968437Y-151776457D01*
X49779522Y-151715075D01*
X49583321Y-151684000D01*
X49384679Y-151684000D01*
X49188479Y-151715075D01*
X49188476Y-151715075D01*
X48999562Y-151776457D01*
X48822564Y-151866643D01*
X48785283Y-151893729D01*
X48785282Y-151893730D01*
X49348058Y-152456504D01*
X49287919Y-152472619D01*
X49172080Y-152539498D01*
X49077498Y-152634080D01*
X49010619Y-152749919D01*
X48994504Y-152810057D01*
X48431730Y-152247282D01*
X48431728Y-152247283D01*
X48430817Y-152248538D01*
X48375487Y-152291204D01*
X48305874Y-152297183D01*
X48244079Y-152264577D01*
X48209722Y-152203739D01*
X48209077Y-152200806D01*
X48206499Y-152188361D01*
X48206499Y-152136128D01*
X48200091Y-152076517D01*
X48162389Y-151975434D01*
X48162389Y-151975431D01*
X48149798Y-151941673D01*
X48149793Y-151941664D01*
X48063547Y-151826455D01*
X48063544Y-151826452D01*
X47948335Y-151740206D01*
X47948328Y-151740202D01*
X47813482Y-151689908D01*
X47813483Y-151689908D01*
X47753883Y-151683501D01*
X47753881Y-151683500D01*
X47753873Y-151683500D01*
X47753864Y-151683500D01*
X46134129Y-151683500D01*
X46134123Y-151683501D01*
X46074516Y-151689908D01*
X45939671Y-151740202D01*
X45939664Y-151740206D01*
X45824455Y-151826452D01*
X45824452Y-151826455D01*
X45738206Y-151941664D01*
X45738202Y-151941671D01*
X45687908Y-152076517D01*
X45681501Y-152136116D01*
X45681500Y-152136135D01*
X45000500Y-152136135D01*
X45000500Y-149418335D01*
X55663700Y-149418335D01*
X55663700Y-151393670D01*
X55663701Y-151393676D01*
X55670108Y-151453283D01*
X55720402Y-151588128D01*
X55720405Y-151588134D01*
X55730554Y-151601691D01*
X55754970Y-151667155D01*
X55740117Y-151735428D01*
X55730554Y-151750309D01*
X55720405Y-151763865D01*
X55720402Y-151763871D01*
X55670108Y-151898717D01*
X55663701Y-151958316D01*
X55663700Y-151958335D01*
X55663700Y-153933670D01*
X55663701Y-153933676D01*
X55670108Y-153993283D01*
X55720402Y-154128128D01*
X55720406Y-154128135D01*
X55806652Y-154243344D01*
X55806655Y-154243347D01*
X55921864Y-154329593D01*
X55921871Y-154329597D01*
X56056717Y-154379891D01*
X56056716Y-154379891D01*
X56063644Y-154380635D01*
X56116327Y-154386300D01*
X58091672Y-154386299D01*
X58151283Y-154379891D01*
X58286131Y-154329596D01*
X58401346Y-154243346D01*
X58487596Y-154128131D01*
X58502111Y-154089215D01*
X58543982Y-154033281D01*
X58609446Y-154008864D01*
X58677719Y-154023715D01*
X58701772Y-154041721D01*
X58702011Y-154041443D01*
X58705713Y-154044605D01*
X58803351Y-154115542D01*
X58889118Y-154177855D01*
X59017647Y-154243344D01*
X59091116Y-154280779D01*
X59091119Y-154280780D01*
X59198923Y-154315807D01*
X59306729Y-154350835D01*
X59530646Y-154386300D01*
X59530647Y-154386300D01*
X59757353Y-154386300D01*
X59757354Y-154386300D01*
X59981271Y-154350835D01*
X60196883Y-154280779D01*
X60398882Y-154177855D01*
X60582293Y-154044600D01*
X60742600Y-153884293D01*
X60813682Y-153786456D01*
X60869011Y-153743791D01*
X60938624Y-153737812D01*
X61000420Y-153770417D01*
X61014315Y-153786453D01*
X61035407Y-153815483D01*
X61085400Y-153884293D01*
X61245708Y-154044601D01*
X61245713Y-154044605D01*
X61343351Y-154115542D01*
X61429118Y-154177855D01*
X61557647Y-154243344D01*
X61631116Y-154280779D01*
X61631119Y-154280780D01*
X61738923Y-154315807D01*
X61846729Y-154350835D01*
X62070646Y-154386300D01*
X62070647Y-154386300D01*
X62297353Y-154386300D01*
X62297354Y-154386300D01*
X62521271Y-154350835D01*
X62736883Y-154280779D01*
X62938882Y-154177855D01*
X63122293Y-154044600D01*
X63282600Y-153884293D01*
X63353682Y-153786456D01*
X63409011Y-153743791D01*
X63478624Y-153737812D01*
X63540420Y-153770417D01*
X63554315Y-153786453D01*
X63575407Y-153815483D01*
X63625400Y-153884293D01*
X63785708Y-154044601D01*
X63785713Y-154044605D01*
X63883351Y-154115542D01*
X63969118Y-154177855D01*
X64097647Y-154243344D01*
X64171116Y-154280779D01*
X64171119Y-154280780D01*
X64278923Y-154315807D01*
X64386729Y-154350835D01*
X64610646Y-154386300D01*
X64610647Y-154386300D01*
X64837353Y-154386300D01*
X64837354Y-154386300D01*
X65061271Y-154350835D01*
X65276883Y-154280779D01*
X65478882Y-154177855D01*
X65662293Y-154044600D01*
X65822600Y-153884293D01*
X65893682Y-153786456D01*
X65949011Y-153743791D01*
X66018624Y-153737812D01*
X66080420Y-153770417D01*
X66094315Y-153786453D01*
X66115407Y-153815483D01*
X66165400Y-153884293D01*
X66325708Y-154044601D01*
X66325713Y-154044605D01*
X66423351Y-154115542D01*
X66509118Y-154177855D01*
X66637647Y-154243344D01*
X66711116Y-154280779D01*
X66711119Y-154280780D01*
X66818923Y-154315807D01*
X66926729Y-154350835D01*
X67150646Y-154386300D01*
X67150647Y-154386300D01*
X67377353Y-154386300D01*
X67377354Y-154386300D01*
X67601271Y-154350835D01*
X67816883Y-154280779D01*
X68018882Y-154177855D01*
X68202293Y-154044600D01*
X68362600Y-153884293D01*
X68433682Y-153786456D01*
X68489011Y-153743791D01*
X68558624Y-153737812D01*
X68620420Y-153770417D01*
X68634315Y-153786453D01*
X68655407Y-153815483D01*
X68705400Y-153884293D01*
X68865708Y-154044601D01*
X68865713Y-154044605D01*
X68963351Y-154115542D01*
X69049118Y-154177855D01*
X69177647Y-154243344D01*
X69251116Y-154280779D01*
X69251119Y-154280780D01*
X69358923Y-154315807D01*
X69466729Y-154350835D01*
X69690646Y-154386300D01*
X69690647Y-154386300D01*
X69917353Y-154386300D01*
X69917354Y-154386300D01*
X70141271Y-154350835D01*
X70356883Y-154280779D01*
X70558882Y-154177855D01*
X70742293Y-154044600D01*
X70902600Y-153884293D01*
X70973682Y-153786456D01*
X71029011Y-153743791D01*
X71098624Y-153737812D01*
X71160420Y-153770417D01*
X71174315Y-153786453D01*
X71195407Y-153815483D01*
X71245400Y-153884293D01*
X71405708Y-154044601D01*
X71405713Y-154044605D01*
X71503351Y-154115542D01*
X71589118Y-154177855D01*
X71717647Y-154243344D01*
X71791116Y-154280779D01*
X71791119Y-154280780D01*
X71898923Y-154315807D01*
X72006729Y-154350835D01*
X72230646Y-154386300D01*
X72230647Y-154386300D01*
X72457353Y-154386300D01*
X72457354Y-154386300D01*
X72681271Y-154350835D01*
X72896883Y-154280779D01*
X73098882Y-154177855D01*
X73282293Y-154044600D01*
X73442600Y-153884293D01*
X73513682Y-153786456D01*
X73569011Y-153743791D01*
X73638624Y-153737812D01*
X73700420Y-153770417D01*
X73714315Y-153786453D01*
X73735407Y-153815483D01*
X73785400Y-153884293D01*
X73945708Y-154044601D01*
X73945713Y-154044605D01*
X74043351Y-154115542D01*
X74129118Y-154177855D01*
X74257647Y-154243344D01*
X74331116Y-154280779D01*
X74331119Y-154280780D01*
X74438923Y-154315807D01*
X74546729Y-154350835D01*
X74770646Y-154386300D01*
X74770647Y-154386300D01*
X74997353Y-154386300D01*
X74997354Y-154386300D01*
X75221271Y-154350835D01*
X75436883Y-154280779D01*
X75638882Y-154177855D01*
X75822293Y-154044600D01*
X75982600Y-153884293D01*
X76053682Y-153786456D01*
X76109011Y-153743791D01*
X76178624Y-153737812D01*
X76240420Y-153770417D01*
X76254315Y-153786453D01*
X76275407Y-153815483D01*
X76325400Y-153884293D01*
X76485708Y-154044601D01*
X76485713Y-154044605D01*
X76583351Y-154115542D01*
X76669118Y-154177855D01*
X76797647Y-154243344D01*
X76871116Y-154280779D01*
X76871119Y-154280780D01*
X76978923Y-154315807D01*
X77086729Y-154350835D01*
X77310646Y-154386300D01*
X77310647Y-154386300D01*
X77537353Y-154386300D01*
X77537354Y-154386300D01*
X77761271Y-154350835D01*
X77976883Y-154280779D01*
X78178882Y-154177855D01*
X78362293Y-154044600D01*
X78522600Y-153884293D01*
X78593992Y-153786029D01*
X78649319Y-153743365D01*
X78718932Y-153737384D01*
X78780728Y-153769989D01*
X78782332Y-153771841D01*
X78784439Y-153772007D01*
X79474504Y-153081941D01*
X79490619Y-153142081D01*
X79557498Y-153257920D01*
X79652080Y-153352502D01*
X79767919Y-153419381D01*
X79828057Y-153435494D01*
X79137991Y-154125559D01*
X79209379Y-154177426D01*
X79411311Y-154280316D01*
X79626842Y-154350346D01*
X79850686Y-154385800D01*
X80077314Y-154385800D01*
X80301155Y-154350346D01*
X80301158Y-154350346D01*
X80516688Y-154280316D01*
X80718620Y-154177426D01*
X80790006Y-154125559D01*
X80099942Y-153435495D01*
X80160081Y-153419381D01*
X80275920Y-153352502D01*
X80370502Y-153257920D01*
X80437381Y-153142081D01*
X80453495Y-153081942D01*
X81143559Y-153772006D01*
X81195426Y-153700620D01*
X81298316Y-153498688D01*
X81368346Y-153283158D01*
X81368346Y-153283155D01*
X81403800Y-153059314D01*
X81403800Y-152832685D01*
X81368346Y-152608844D01*
X81368346Y-152608841D01*
X81298316Y-152393311D01*
X81195426Y-152191379D01*
X81143559Y-152119992D01*
X81143559Y-152119991D01*
X80453494Y-152810056D01*
X80437381Y-152749919D01*
X80370502Y-152634080D01*
X80275920Y-152539498D01*
X80160081Y-152472619D01*
X80099940Y-152456504D01*
X80790007Y-151766439D01*
X80789306Y-151757533D01*
X80761364Y-151721297D01*
X80755385Y-151651683D01*
X80787991Y-151589888D01*
X80804023Y-151575996D01*
X80902293Y-151504600D01*
X81062600Y-151344293D01*
X81195855Y-151160882D01*
X81298779Y-150958883D01*
X81368835Y-150743271D01*
X81404300Y-150519354D01*
X81404300Y-150292646D01*
X81368835Y-150068729D01*
X81298779Y-149853117D01*
X81298779Y-149853116D01*
X81263137Y-149783166D01*
X81195855Y-149651118D01*
X81164679Y-149608208D01*
X81077265Y-149487891D01*
X81077264Y-149487890D01*
X81062603Y-149467710D01*
X81013228Y-149418335D01*
X119163700Y-149418335D01*
X119163700Y-151393670D01*
X119163701Y-151393676D01*
X119170108Y-151453283D01*
X119220402Y-151588128D01*
X119220405Y-151588134D01*
X119230554Y-151601691D01*
X119254970Y-151667155D01*
X119240117Y-151735428D01*
X119230554Y-151750309D01*
X119220405Y-151763865D01*
X119220402Y-151763871D01*
X119170108Y-151898717D01*
X119163701Y-151958316D01*
X119163700Y-151958335D01*
X119163700Y-153933670D01*
X119163701Y-153933676D01*
X119170108Y-153993283D01*
X119220402Y-154128128D01*
X119220406Y-154128135D01*
X119306652Y-154243344D01*
X119306655Y-154243347D01*
X119421864Y-154329593D01*
X119421871Y-154329597D01*
X119556717Y-154379891D01*
X119556716Y-154379891D01*
X119563644Y-154380635D01*
X119616327Y-154386300D01*
X121591672Y-154386299D01*
X121651283Y-154379891D01*
X121786131Y-154329596D01*
X121901346Y-154243346D01*
X121987596Y-154128131D01*
X122002111Y-154089215D01*
X122043982Y-154033281D01*
X122109446Y-154008864D01*
X122177719Y-154023715D01*
X122201772Y-154041721D01*
X122202011Y-154041443D01*
X122205713Y-154044605D01*
X122303351Y-154115542D01*
X122389118Y-154177855D01*
X122517647Y-154243344D01*
X122591116Y-154280779D01*
X122591119Y-154280780D01*
X122698923Y-154315807D01*
X122806729Y-154350835D01*
X123030646Y-154386300D01*
X123030647Y-154386300D01*
X123257353Y-154386300D01*
X123257354Y-154386300D01*
X123481271Y-154350835D01*
X123696883Y-154280779D01*
X123898882Y-154177855D01*
X124082293Y-154044600D01*
X124242600Y-153884293D01*
X124313682Y-153786456D01*
X124369011Y-153743791D01*
X124438624Y-153737812D01*
X124500420Y-153770417D01*
X124514315Y-153786453D01*
X124535407Y-153815483D01*
X124585400Y-153884293D01*
X124745708Y-154044601D01*
X124745713Y-154044605D01*
X124843351Y-154115542D01*
X124929118Y-154177855D01*
X125057647Y-154243344D01*
X125131116Y-154280779D01*
X125131119Y-154280780D01*
X125238923Y-154315807D01*
X125346729Y-154350835D01*
X125570646Y-154386300D01*
X125570647Y-154386300D01*
X125797353Y-154386300D01*
X125797354Y-154386300D01*
X126021271Y-154350835D01*
X126236883Y-154280779D01*
X126438882Y-154177855D01*
X126622293Y-154044600D01*
X126782600Y-153884293D01*
X126853682Y-153786456D01*
X126909011Y-153743791D01*
X126978624Y-153737812D01*
X127040420Y-153770417D01*
X127054315Y-153786453D01*
X127075407Y-153815483D01*
X127125400Y-153884293D01*
X127285708Y-154044601D01*
X127285713Y-154044605D01*
X127383351Y-154115542D01*
X127469118Y-154177855D01*
X127597647Y-154243344D01*
X127671116Y-154280779D01*
X127671119Y-154280780D01*
X127778923Y-154315807D01*
X127886729Y-154350835D01*
X128110646Y-154386300D01*
X128110647Y-154386300D01*
X128337353Y-154386300D01*
X128337354Y-154386300D01*
X128561271Y-154350835D01*
X128776883Y-154280779D01*
X128978882Y-154177855D01*
X129162293Y-154044600D01*
X129322600Y-153884293D01*
X129393682Y-153786456D01*
X129449011Y-153743791D01*
X129518624Y-153737812D01*
X129580420Y-153770417D01*
X129594315Y-153786453D01*
X129615407Y-153815483D01*
X129665400Y-153884293D01*
X129825708Y-154044601D01*
X129825713Y-154044605D01*
X129923351Y-154115542D01*
X130009118Y-154177855D01*
X130137647Y-154243344D01*
X130211116Y-154280779D01*
X130211119Y-154280780D01*
X130318923Y-154315807D01*
X130426729Y-154350835D01*
X130650646Y-154386300D01*
X130650647Y-154386300D01*
X130877353Y-154386300D01*
X130877354Y-154386300D01*
X131101271Y-154350835D01*
X131316883Y-154280779D01*
X131518882Y-154177855D01*
X131702293Y-154044600D01*
X131862600Y-153884293D01*
X131933682Y-153786456D01*
X131989011Y-153743791D01*
X132058624Y-153737812D01*
X132120420Y-153770417D01*
X132134315Y-153786453D01*
X132155407Y-153815483D01*
X132205400Y-153884293D01*
X132365708Y-154044601D01*
X132365713Y-154044605D01*
X132463351Y-154115542D01*
X132549118Y-154177855D01*
X132677647Y-154243344D01*
X132751116Y-154280779D01*
X132751119Y-154280780D01*
X132858923Y-154315807D01*
X132966729Y-154350835D01*
X133190646Y-154386300D01*
X133190647Y-154386300D01*
X133417353Y-154386300D01*
X133417354Y-154386300D01*
X133641271Y-154350835D01*
X133856883Y-154280779D01*
X134058882Y-154177855D01*
X134242293Y-154044600D01*
X134402600Y-153884293D01*
X134473682Y-153786456D01*
X134529011Y-153743791D01*
X134598624Y-153737812D01*
X134660420Y-153770417D01*
X134674315Y-153786453D01*
X134695407Y-153815483D01*
X134745400Y-153884293D01*
X134905708Y-154044601D01*
X134905713Y-154044605D01*
X135003351Y-154115542D01*
X135089118Y-154177855D01*
X135217647Y-154243344D01*
X135291116Y-154280779D01*
X135291119Y-154280780D01*
X135398923Y-154315807D01*
X135506729Y-154350835D01*
X135730646Y-154386300D01*
X135730647Y-154386300D01*
X135957353Y-154386300D01*
X135957354Y-154386300D01*
X136181271Y-154350835D01*
X136396883Y-154280779D01*
X136598882Y-154177855D01*
X136782293Y-154044600D01*
X136942600Y-153884293D01*
X137013682Y-153786456D01*
X137069011Y-153743791D01*
X137138624Y-153737812D01*
X137200420Y-153770417D01*
X137214315Y-153786453D01*
X137235407Y-153815483D01*
X137285400Y-153884293D01*
X137445708Y-154044601D01*
X137445713Y-154044605D01*
X137543351Y-154115542D01*
X137629118Y-154177855D01*
X137757647Y-154243344D01*
X137831116Y-154280779D01*
X137831119Y-154280780D01*
X137938923Y-154315807D01*
X138046729Y-154350835D01*
X138270646Y-154386300D01*
X138270647Y-154386300D01*
X138497353Y-154386300D01*
X138497354Y-154386300D01*
X138721271Y-154350835D01*
X138936883Y-154280779D01*
X139138882Y-154177855D01*
X139322293Y-154044600D01*
X139482600Y-153884293D01*
X139553682Y-153786456D01*
X139609011Y-153743791D01*
X139678624Y-153737812D01*
X139740420Y-153770417D01*
X139754315Y-153786453D01*
X139775407Y-153815483D01*
X139825400Y-153884293D01*
X139985708Y-154044601D01*
X139985713Y-154044605D01*
X140083351Y-154115542D01*
X140169118Y-154177855D01*
X140297647Y-154243344D01*
X140371116Y-154280779D01*
X140371119Y-154280780D01*
X140478923Y-154315807D01*
X140586729Y-154350835D01*
X140810646Y-154386300D01*
X140810647Y-154386300D01*
X141037353Y-154386300D01*
X141037354Y-154386300D01*
X141261271Y-154350835D01*
X141476883Y-154280779D01*
X141678882Y-154177855D01*
X141862293Y-154044600D01*
X142022600Y-153884293D01*
X142093992Y-153786029D01*
X142149319Y-153743365D01*
X142218932Y-153737384D01*
X142280728Y-153769989D01*
X142282332Y-153771841D01*
X142284439Y-153772007D01*
X142974504Y-153081941D01*
X142990619Y-153142081D01*
X143057498Y-153257920D01*
X143152080Y-153352502D01*
X143267919Y-153419381D01*
X143328057Y-153435494D01*
X142637991Y-154125559D01*
X142709379Y-154177426D01*
X142911311Y-154280316D01*
X143126842Y-154350346D01*
X143350686Y-154385800D01*
X143577314Y-154385800D01*
X143801155Y-154350346D01*
X143801158Y-154350346D01*
X144016688Y-154280316D01*
X144218620Y-154177426D01*
X144290006Y-154125559D01*
X143599942Y-153435495D01*
X143660081Y-153419381D01*
X143775920Y-153352502D01*
X143870502Y-153257920D01*
X143937381Y-153142081D01*
X143953494Y-153081942D01*
X144643559Y-153772007D01*
X144643559Y-153772006D01*
X144695426Y-153700620D01*
X144798316Y-153498688D01*
X144868346Y-153283158D01*
X144868346Y-153283155D01*
X144903800Y-153059314D01*
X144903800Y-152832685D01*
X144868346Y-152608844D01*
X144868346Y-152608841D01*
X144798316Y-152393311D01*
X144695426Y-152191379D01*
X144643559Y-152119992D01*
X144643559Y-152119991D01*
X143953494Y-152810056D01*
X143937381Y-152749919D01*
X143870502Y-152634080D01*
X143775920Y-152539498D01*
X143660081Y-152472619D01*
X143599940Y-152456504D01*
X144290007Y-151766439D01*
X144289306Y-151757533D01*
X144261364Y-151721297D01*
X144255385Y-151651683D01*
X144287991Y-151589888D01*
X144304023Y-151575996D01*
X144402293Y-151504600D01*
X144562600Y-151344293D01*
X144695855Y-151160882D01*
X144798779Y-150958883D01*
X144868835Y-150743271D01*
X144904300Y-150519354D01*
X144904300Y-150292646D01*
X144868835Y-150068729D01*
X144798779Y-149853117D01*
X144798779Y-149853116D01*
X144763137Y-149783166D01*
X144695855Y-149651118D01*
X144664679Y-149608208D01*
X144562605Y-149467713D01*
X144562601Y-149467708D01*
X144402291Y-149307398D01*
X144402286Y-149307394D01*
X144218885Y-149174147D01*
X144218884Y-149174146D01*
X144218882Y-149174145D01*
X144116721Y-149122091D01*
X144016883Y-149071220D01*
X144016880Y-149071219D01*
X143801272Y-149001165D01*
X143689312Y-148983432D01*
X143577354Y-148965700D01*
X143350646Y-148965700D01*
X143276007Y-148977521D01*
X143126727Y-149001165D01*
X142911119Y-149071219D01*
X142911116Y-149071220D01*
X142709114Y-149174147D01*
X142525713Y-149307394D01*
X142525708Y-149307398D01*
X142365398Y-149467708D01*
X142365394Y-149467713D01*
X142294318Y-149565542D01*
X142238988Y-149608208D01*
X142169375Y-149614187D01*
X142107580Y-149581582D01*
X142093682Y-149565542D01*
X142022605Y-149467713D01*
X142022601Y-149467708D01*
X141862291Y-149307398D01*
X141862286Y-149307394D01*
X141678885Y-149174147D01*
X141678884Y-149174146D01*
X141678882Y-149174145D01*
X141576721Y-149122091D01*
X141476883Y-149071220D01*
X141476880Y-149071219D01*
X141261272Y-149001165D01*
X141149312Y-148983432D01*
X141037354Y-148965700D01*
X140810646Y-148965700D01*
X140736007Y-148977521D01*
X140586727Y-149001165D01*
X140371119Y-149071219D01*
X140371116Y-149071220D01*
X140169114Y-149174147D01*
X139985713Y-149307394D01*
X139985708Y-149307398D01*
X139825398Y-149467708D01*
X139825394Y-149467713D01*
X139754318Y-149565542D01*
X139698988Y-149608208D01*
X139629375Y-149614187D01*
X139567580Y-149581582D01*
X139553682Y-149565542D01*
X139482605Y-149467713D01*
X139482601Y-149467708D01*
X139322291Y-149307398D01*
X139322286Y-149307394D01*
X139138885Y-149174147D01*
X139138884Y-149174146D01*
X139138882Y-149174145D01*
X139036721Y-149122091D01*
X138936883Y-149071220D01*
X138936880Y-149071219D01*
X138721272Y-149001165D01*
X138609312Y-148983432D01*
X138497354Y-148965700D01*
X138270646Y-148965700D01*
X138196007Y-148977521D01*
X138046727Y-149001165D01*
X137831119Y-149071219D01*
X137831116Y-149071220D01*
X137629114Y-149174147D01*
X137445713Y-149307394D01*
X137445708Y-149307398D01*
X137285398Y-149467708D01*
X137285394Y-149467713D01*
X137214318Y-149565542D01*
X137158988Y-149608208D01*
X137089375Y-149614187D01*
X137027580Y-149581582D01*
X137013682Y-149565542D01*
X136942605Y-149467713D01*
X136942601Y-149467708D01*
X136782291Y-149307398D01*
X136782286Y-149307394D01*
X136598885Y-149174147D01*
X136598884Y-149174146D01*
X136598882Y-149174145D01*
X136496721Y-149122091D01*
X136396883Y-149071220D01*
X136396880Y-149071219D01*
X136181272Y-149001165D01*
X136069312Y-148983432D01*
X135957354Y-148965700D01*
X135730646Y-148965700D01*
X135656007Y-148977521D01*
X135506727Y-149001165D01*
X135291119Y-149071219D01*
X135291116Y-149071220D01*
X135089114Y-149174147D01*
X134905713Y-149307394D01*
X134905708Y-149307398D01*
X134745398Y-149467708D01*
X134745394Y-149467713D01*
X134674318Y-149565542D01*
X134618988Y-149608208D01*
X134549375Y-149614187D01*
X134487580Y-149581582D01*
X134473682Y-149565542D01*
X134402605Y-149467713D01*
X134402601Y-149467708D01*
X134242291Y-149307398D01*
X134242286Y-149307394D01*
X134058885Y-149174147D01*
X134058884Y-149174146D01*
X134058882Y-149174145D01*
X133956721Y-149122091D01*
X133856883Y-149071220D01*
X133856880Y-149071219D01*
X133641272Y-149001165D01*
X133529312Y-148983432D01*
X133417354Y-148965700D01*
X133190646Y-148965700D01*
X133116007Y-148977521D01*
X132966727Y-149001165D01*
X132751119Y-149071219D01*
X132751116Y-149071220D01*
X132549114Y-149174147D01*
X132365713Y-149307394D01*
X132365708Y-149307398D01*
X132205398Y-149467708D01*
X132205394Y-149467713D01*
X132134318Y-149565542D01*
X132078988Y-149608208D01*
X132009375Y-149614187D01*
X131947580Y-149581582D01*
X131933682Y-149565542D01*
X131862605Y-149467713D01*
X131862601Y-149467708D01*
X131702291Y-149307398D01*
X131702286Y-149307394D01*
X131518885Y-149174147D01*
X131518884Y-149174146D01*
X131518882Y-149174145D01*
X131416721Y-149122091D01*
X131316883Y-149071220D01*
X131316880Y-149071219D01*
X131101272Y-149001165D01*
X130989312Y-148983432D01*
X130877354Y-148965700D01*
X130650646Y-148965700D01*
X130576007Y-148977521D01*
X130426727Y-149001165D01*
X130211119Y-149071219D01*
X130211116Y-149071220D01*
X130009114Y-149174147D01*
X129825713Y-149307394D01*
X129825708Y-149307398D01*
X129665398Y-149467708D01*
X129665394Y-149467713D01*
X129594318Y-149565542D01*
X129538988Y-149608208D01*
X129469375Y-149614187D01*
X129407580Y-149581582D01*
X129393682Y-149565542D01*
X129322605Y-149467713D01*
X129322601Y-149467708D01*
X129162291Y-149307398D01*
X129162286Y-149307394D01*
X128978885Y-149174147D01*
X128978884Y-149174146D01*
X128978882Y-149174145D01*
X128876721Y-149122091D01*
X128776883Y-149071220D01*
X128776880Y-149071219D01*
X128561272Y-149001165D01*
X128449312Y-148983432D01*
X128337354Y-148965700D01*
X128110646Y-148965700D01*
X128036007Y-148977521D01*
X127886727Y-149001165D01*
X127671119Y-149071219D01*
X127671116Y-149071220D01*
X127469114Y-149174147D01*
X127285713Y-149307394D01*
X127285708Y-149307398D01*
X127125398Y-149467708D01*
X127125394Y-149467713D01*
X127054318Y-149565542D01*
X126998988Y-149608208D01*
X126929375Y-149614187D01*
X126867580Y-149581582D01*
X126853682Y-149565542D01*
X126782605Y-149467713D01*
X126782601Y-149467708D01*
X126622291Y-149307398D01*
X126622286Y-149307394D01*
X126438885Y-149174147D01*
X126438884Y-149174146D01*
X126438882Y-149174145D01*
X126336721Y-149122091D01*
X126236883Y-149071220D01*
X126236880Y-149071219D01*
X126021272Y-149001165D01*
X125909312Y-148983432D01*
X125797354Y-148965700D01*
X125570646Y-148965700D01*
X125496007Y-148977521D01*
X125346727Y-149001165D01*
X125131119Y-149071219D01*
X125131116Y-149071220D01*
X124929114Y-149174147D01*
X124745713Y-149307394D01*
X124745708Y-149307398D01*
X124585398Y-149467708D01*
X124585394Y-149467713D01*
X124514318Y-149565542D01*
X124458988Y-149608208D01*
X124389375Y-149614187D01*
X124327580Y-149581582D01*
X124313682Y-149565542D01*
X124242605Y-149467713D01*
X124242601Y-149467708D01*
X124082291Y-149307398D01*
X124082286Y-149307394D01*
X123898885Y-149174147D01*
X123898884Y-149174146D01*
X123898882Y-149174145D01*
X123796721Y-149122091D01*
X123696883Y-149071220D01*
X123696880Y-149071219D01*
X123481272Y-149001165D01*
X123369312Y-148983432D01*
X123257354Y-148965700D01*
X123030646Y-148965700D01*
X122956007Y-148977521D01*
X122806727Y-149001165D01*
X122591119Y-149071219D01*
X122591116Y-149071220D01*
X122389114Y-149174147D01*
X122205713Y-149307394D01*
X122202011Y-149310557D01*
X122201279Y-149309700D01*
X122144632Y-149340621D01*
X122074941Y-149335626D01*
X122019014Y-149293746D01*
X122002111Y-149262785D01*
X121987596Y-149223869D01*
X121987593Y-149223864D01*
X121901347Y-149108655D01*
X121901344Y-149108652D01*
X121786135Y-149022406D01*
X121786128Y-149022402D01*
X121651282Y-148972108D01*
X121651283Y-148972108D01*
X121591683Y-148965701D01*
X121591681Y-148965700D01*
X121591673Y-148965700D01*
X121591664Y-148965700D01*
X119616329Y-148965700D01*
X119616323Y-148965701D01*
X119556716Y-148972108D01*
X119421871Y-149022402D01*
X119421864Y-149022406D01*
X119306655Y-149108652D01*
X119306652Y-149108655D01*
X119220406Y-149223864D01*
X119220402Y-149223871D01*
X119170108Y-149358717D01*
X119163701Y-149418316D01*
X119163700Y-149418335D01*
X81013228Y-149418335D01*
X80902291Y-149307398D01*
X80902286Y-149307394D01*
X80718885Y-149174147D01*
X80718884Y-149174146D01*
X80718882Y-149174145D01*
X80616721Y-149122091D01*
X80516883Y-149071220D01*
X80516880Y-149071219D01*
X80301272Y-149001165D01*
X80189312Y-148983432D01*
X80077354Y-148965700D01*
X79850646Y-148965700D01*
X79776007Y-148977521D01*
X79626727Y-149001165D01*
X79411119Y-149071219D01*
X79411116Y-149071220D01*
X79209114Y-149174147D01*
X79025713Y-149307394D01*
X79025708Y-149307398D01*
X78865398Y-149467708D01*
X78865394Y-149467713D01*
X78794318Y-149565542D01*
X78738988Y-149608208D01*
X78669375Y-149614187D01*
X78607580Y-149581582D01*
X78593682Y-149565542D01*
X78522605Y-149467713D01*
X78522601Y-149467708D01*
X78362291Y-149307398D01*
X78362286Y-149307394D01*
X78178885Y-149174147D01*
X78178884Y-149174146D01*
X78178882Y-149174145D01*
X78076721Y-149122091D01*
X77976883Y-149071220D01*
X77976880Y-149071219D01*
X77761272Y-149001165D01*
X77649312Y-148983432D01*
X77537354Y-148965700D01*
X77310646Y-148965700D01*
X77236007Y-148977521D01*
X77086727Y-149001165D01*
X76871119Y-149071219D01*
X76871116Y-149071220D01*
X76669114Y-149174147D01*
X76485713Y-149307394D01*
X76485708Y-149307398D01*
X76325398Y-149467708D01*
X76325394Y-149467713D01*
X76254318Y-149565542D01*
X76198988Y-149608208D01*
X76129375Y-149614187D01*
X76067580Y-149581582D01*
X76053682Y-149565542D01*
X75982605Y-149467713D01*
X75982601Y-149467708D01*
X75822291Y-149307398D01*
X75822286Y-149307394D01*
X75638885Y-149174147D01*
X75638884Y-149174146D01*
X75638882Y-149174145D01*
X75536721Y-149122091D01*
X75436883Y-149071220D01*
X75436880Y-149071219D01*
X75221272Y-149001165D01*
X75109312Y-148983432D01*
X74997354Y-148965700D01*
X74770646Y-148965700D01*
X74696007Y-148977521D01*
X74546727Y-149001165D01*
X74331119Y-149071219D01*
X74331116Y-149071220D01*
X74129114Y-149174147D01*
X73945713Y-149307394D01*
X73945708Y-149307398D01*
X73785398Y-149467708D01*
X73785394Y-149467713D01*
X73714318Y-149565542D01*
X73658988Y-149608208D01*
X73589375Y-149614187D01*
X73527580Y-149581582D01*
X73513682Y-149565542D01*
X73442605Y-149467713D01*
X73442601Y-149467708D01*
X73282291Y-149307398D01*
X73282286Y-149307394D01*
X73098885Y-149174147D01*
X73098884Y-149174146D01*
X73098882Y-149174145D01*
X72996721Y-149122091D01*
X72896883Y-149071220D01*
X72896880Y-149071219D01*
X72681272Y-149001165D01*
X72569312Y-148983432D01*
X72457354Y-148965700D01*
X72230646Y-148965700D01*
X72156007Y-148977521D01*
X72006727Y-149001165D01*
X71791119Y-149071219D01*
X71791116Y-149071220D01*
X71589114Y-149174147D01*
X71405713Y-149307394D01*
X71405708Y-149307398D01*
X71245398Y-149467708D01*
X71245394Y-149467713D01*
X71174318Y-149565542D01*
X71118988Y-149608208D01*
X71049375Y-149614187D01*
X70987580Y-149581582D01*
X70973682Y-149565542D01*
X70902605Y-149467713D01*
X70902601Y-149467708D01*
X70742291Y-149307398D01*
X70742286Y-149307394D01*
X70558885Y-149174147D01*
X70558884Y-149174146D01*
X70558882Y-149174145D01*
X70456721Y-149122091D01*
X70356883Y-149071220D01*
X70356880Y-149071219D01*
X70141272Y-149001165D01*
X70029312Y-148983432D01*
X69917354Y-148965700D01*
X69690646Y-148965700D01*
X69616007Y-148977521D01*
X69466727Y-149001165D01*
X69251119Y-149071219D01*
X69251116Y-149071220D01*
X69049114Y-149174147D01*
X68865713Y-149307394D01*
X68865708Y-149307398D01*
X68705398Y-149467708D01*
X68705394Y-149467713D01*
X68634318Y-149565542D01*
X68578988Y-149608208D01*
X68509375Y-149614187D01*
X68447580Y-149581582D01*
X68433682Y-149565542D01*
X68362605Y-149467713D01*
X68362601Y-149467708D01*
X68202291Y-149307398D01*
X68202286Y-149307394D01*
X68018885Y-149174147D01*
X68018884Y-149174146D01*
X68018882Y-149174145D01*
X67916721Y-149122091D01*
X67816883Y-149071220D01*
X67816880Y-149071219D01*
X67601272Y-149001165D01*
X67489312Y-148983432D01*
X67377354Y-148965700D01*
X67150646Y-148965700D01*
X67076007Y-148977521D01*
X66926727Y-149001165D01*
X66711119Y-149071219D01*
X66711116Y-149071220D01*
X66509114Y-149174147D01*
X66325713Y-149307394D01*
X66325708Y-149307398D01*
X66165398Y-149467708D01*
X66165394Y-149467713D01*
X66094318Y-149565542D01*
X66038988Y-149608208D01*
X65969375Y-149614187D01*
X65907580Y-149581582D01*
X65893682Y-149565542D01*
X65822605Y-149467713D01*
X65822601Y-149467708D01*
X65662291Y-149307398D01*
X65662286Y-149307394D01*
X65478885Y-149174147D01*
X65478884Y-149174146D01*
X65478882Y-149174145D01*
X65376721Y-149122091D01*
X65276883Y-149071220D01*
X65276880Y-149071219D01*
X65061272Y-149001165D01*
X64949312Y-148983432D01*
X64837354Y-148965700D01*
X64610646Y-148965700D01*
X64536007Y-148977521D01*
X64386727Y-149001165D01*
X64171119Y-149071219D01*
X64171116Y-149071220D01*
X63969114Y-149174147D01*
X63785713Y-149307394D01*
X63785708Y-149307398D01*
X63625398Y-149467708D01*
X63625394Y-149467713D01*
X63554318Y-149565542D01*
X63498988Y-149608208D01*
X63429375Y-149614187D01*
X63367580Y-149581582D01*
X63353682Y-149565542D01*
X63282605Y-149467713D01*
X63282601Y-149467708D01*
X63122291Y-149307398D01*
X63122286Y-149307394D01*
X62938885Y-149174147D01*
X62938884Y-149174146D01*
X62938882Y-149174145D01*
X62836721Y-149122091D01*
X62736883Y-149071220D01*
X62736880Y-149071219D01*
X62521272Y-149001165D01*
X62409312Y-148983432D01*
X62297354Y-148965700D01*
X62070646Y-148965700D01*
X61996007Y-148977521D01*
X61846727Y-149001165D01*
X61631119Y-149071219D01*
X61631116Y-149071220D01*
X61429114Y-149174147D01*
X61245713Y-149307394D01*
X61245708Y-149307398D01*
X61085398Y-149467708D01*
X61085394Y-149467713D01*
X61014318Y-149565542D01*
X60958988Y-149608208D01*
X60889375Y-149614187D01*
X60827580Y-149581582D01*
X60813682Y-149565542D01*
X60742605Y-149467713D01*
X60742601Y-149467708D01*
X60582291Y-149307398D01*
X60582286Y-149307394D01*
X60398885Y-149174147D01*
X60398884Y-149174146D01*
X60398882Y-149174145D01*
X60296721Y-149122091D01*
X60196883Y-149071220D01*
X60196880Y-149071219D01*
X59981272Y-149001165D01*
X59869312Y-148983432D01*
X59757354Y-148965700D01*
X59530646Y-148965700D01*
X59456007Y-148977521D01*
X59306727Y-149001165D01*
X59091119Y-149071219D01*
X59091116Y-149071220D01*
X58889114Y-149174147D01*
X58705713Y-149307394D01*
X58702011Y-149310557D01*
X58701279Y-149309700D01*
X58644632Y-149340621D01*
X58574941Y-149335626D01*
X58519014Y-149293746D01*
X58502111Y-149262785D01*
X58487596Y-149223869D01*
X58487593Y-149223864D01*
X58401347Y-149108655D01*
X58401344Y-149108652D01*
X58286135Y-149022406D01*
X58286128Y-149022402D01*
X58151282Y-148972108D01*
X58151283Y-148972108D01*
X58091683Y-148965701D01*
X58091681Y-148965700D01*
X58091673Y-148965700D01*
X58091664Y-148965700D01*
X56116329Y-148965700D01*
X56116323Y-148965701D01*
X56056716Y-148972108D01*
X55921871Y-149022402D01*
X55921864Y-149022406D01*
X55806655Y-149108652D01*
X55806652Y-149108655D01*
X55720406Y-149223864D01*
X55720402Y-149223871D01*
X55670108Y-149358717D01*
X55663701Y-149418316D01*
X55663700Y-149418335D01*
X45000500Y-149418335D01*
X45000500Y-140146639D01*
X45681500Y-140146639D01*
X45681500Y-140345360D01*
X45712587Y-140541637D01*
X45773993Y-140730629D01*
X45773994Y-140730632D01*
X45864213Y-140907694D01*
X45981019Y-141068464D01*
X46121536Y-141208981D01*
X46282306Y-141325787D01*
X46400832Y-141386179D01*
X46438780Y-141405515D01*
X46489576Y-141453490D01*
X46506371Y-141521311D01*
X46483833Y-141587446D01*
X46438780Y-141626485D01*
X46282305Y-141706213D01*
X46121533Y-141823021D01*
X45981021Y-141963533D01*
X45864213Y-142124305D01*
X45773994Y-142301367D01*
X45773993Y-142301370D01*
X45712587Y-142490362D01*
X45681500Y-142686639D01*
X45681500Y-142885360D01*
X45712587Y-143081637D01*
X45773993Y-143270629D01*
X45773994Y-143270632D01*
X45864213Y-143447694D01*
X45981019Y-143608464D01*
X46121536Y-143748981D01*
X46282306Y-143865787D01*
X46400832Y-143926179D01*
X46438780Y-143945515D01*
X46489576Y-143993490D01*
X46506371Y-144061311D01*
X46483833Y-144127446D01*
X46438780Y-144166485D01*
X46282305Y-144246213D01*
X46121533Y-144363021D01*
X45981021Y-144503533D01*
X45864213Y-144664305D01*
X45773994Y-144841367D01*
X45773993Y-144841370D01*
X45712587Y-145030362D01*
X45681500Y-145226639D01*
X45681500Y-145425360D01*
X45712587Y-145621637D01*
X45773993Y-145810629D01*
X45773994Y-145810632D01*
X45864213Y-145987694D01*
X45981019Y-146148464D01*
X46121536Y-146288981D01*
X46121539Y-146288983D01*
X46245687Y-146379182D01*
X46288353Y-146434512D01*
X46294332Y-146504125D01*
X46261726Y-146565920D01*
X46200888Y-146600277D01*
X46172805Y-146603500D01*
X46134131Y-146603500D01*
X46134123Y-146603501D01*
X46074516Y-146609908D01*
X45939671Y-146660202D01*
X45939664Y-146660206D01*
X45824455Y-146746452D01*
X45824452Y-146746455D01*
X45738206Y-146861664D01*
X45738202Y-146861671D01*
X45687908Y-146996517D01*
X45681501Y-147056116D01*
X45681501Y-147056123D01*
X45681500Y-147056135D01*
X45681500Y-148675870D01*
X45681501Y-148675876D01*
X45687908Y-148735483D01*
X45738202Y-148870328D01*
X45738206Y-148870335D01*
X45824452Y-148985544D01*
X45824455Y-148985547D01*
X45939664Y-149071793D01*
X45939671Y-149071797D01*
X46074517Y-149122091D01*
X46074516Y-149122091D01*
X46081444Y-149122835D01*
X46134127Y-149128500D01*
X47753872Y-149128499D01*
X47813483Y-149122091D01*
X47948331Y-149071796D01*
X48063546Y-148985546D01*
X48149796Y-148870331D01*
X48200091Y-148735483D01*
X48206500Y-148675873D01*
X48206499Y-147056128D01*
X48200091Y-146996517D01*
X48149796Y-146861669D01*
X48149795Y-146861668D01*
X48149793Y-146861664D01*
X48063547Y-146746455D01*
X48063544Y-146746452D01*
X47948335Y-146660206D01*
X47948328Y-146660202D01*
X47813482Y-146609908D01*
X47813483Y-146609908D01*
X47753883Y-146603501D01*
X47753881Y-146603500D01*
X47753873Y-146603500D01*
X47753865Y-146603500D01*
X47715198Y-146603500D01*
X47648159Y-146583815D01*
X47602404Y-146531011D01*
X47592460Y-146461853D01*
X47621485Y-146398297D01*
X47642313Y-146379182D01*
X47665277Y-146362497D01*
X47766464Y-146288981D01*
X47906981Y-146148464D01*
X48023787Y-145987694D01*
X48114005Y-145810632D01*
X48175413Y-145621636D01*
X48206500Y-145425361D01*
X48206500Y-145226639D01*
X48175413Y-145030364D01*
X48114005Y-144841368D01*
X48114005Y-144841367D01*
X48023786Y-144664305D01*
X47906981Y-144503536D01*
X47766464Y-144363019D01*
X47605694Y-144246213D01*
X47449218Y-144166484D01*
X47398423Y-144118510D01*
X47381628Y-144050689D01*
X47404165Y-143984554D01*
X47449218Y-143945515D01*
X47605694Y-143865787D01*
X47766464Y-143748981D01*
X47906981Y-143608464D01*
X48023787Y-143447694D01*
X48114005Y-143270632D01*
X48175413Y-143081636D01*
X48206500Y-142885361D01*
X48206500Y-142686639D01*
X48175413Y-142490364D01*
X48114005Y-142301368D01*
X48114005Y-142301367D01*
X48023786Y-142124305D01*
X47906981Y-141963536D01*
X47766464Y-141823019D01*
X47605694Y-141706213D01*
X47449218Y-141626484D01*
X47398423Y-141578510D01*
X47381628Y-141510689D01*
X47404165Y-141444554D01*
X47449218Y-141405515D01*
X47605694Y-141325787D01*
X47766464Y-141208981D01*
X47906981Y-141068464D01*
X48023787Y-140907694D01*
X48114005Y-140730632D01*
X48175413Y-140541636D01*
X48206500Y-140345361D01*
X48206500Y-140146639D01*
X48175413Y-139950364D01*
X48114005Y-139761368D01*
X48114005Y-139761367D01*
X48023786Y-139584305D01*
X47906981Y-139423536D01*
X47766464Y-139283019D01*
X47605694Y-139166213D01*
X47448667Y-139086203D01*
X47397872Y-139038229D01*
X47381077Y-138970408D01*
X47403614Y-138904273D01*
X47448669Y-138865234D01*
X47605422Y-138785364D01*
X47642716Y-138758268D01*
X47079942Y-138195494D01*
X47140081Y-138179381D01*
X47255920Y-138112502D01*
X47350502Y-138017920D01*
X47417381Y-137902081D01*
X47433495Y-137841942D01*
X47996268Y-138404715D01*
X48023362Y-138367425D01*
X48113542Y-138190437D01*
X48174924Y-138001523D01*
X48174924Y-138001520D01*
X48206000Y-137805321D01*
X48206000Y-137606678D01*
X48174924Y-137410479D01*
X48174924Y-137410476D01*
X48113542Y-137221562D01*
X48023358Y-137044567D01*
X47996268Y-137007283D01*
X47433494Y-137570057D01*
X47417381Y-137509919D01*
X47350502Y-137394080D01*
X47255920Y-137299498D01*
X47140081Y-137232619D01*
X47079942Y-137216504D01*
X47642716Y-136653731D01*
X47642715Y-136653730D01*
X47605432Y-136626641D01*
X47428437Y-136536457D01*
X47239522Y-136475075D01*
X47043321Y-136444000D01*
X46844679Y-136444000D01*
X46648479Y-136475075D01*
X46648476Y-136475075D01*
X46459562Y-136536457D01*
X46282564Y-136626643D01*
X46245283Y-136653729D01*
X46245282Y-136653730D01*
X46808058Y-137216504D01*
X46747919Y-137232619D01*
X46632080Y-137299498D01*
X46537498Y-137394080D01*
X46470619Y-137509919D01*
X46454504Y-137570057D01*
X45891730Y-137007282D01*
X45891729Y-137007283D01*
X45864643Y-137044564D01*
X45774457Y-137221562D01*
X45713075Y-137410476D01*
X45713075Y-137410479D01*
X45682000Y-137606678D01*
X45682000Y-137805321D01*
X45713075Y-138001520D01*
X45713075Y-138001523D01*
X45774457Y-138190437D01*
X45864641Y-138367432D01*
X45891730Y-138404715D01*
X45891731Y-138404716D01*
X46454504Y-137841942D01*
X46470619Y-137902081D01*
X46537498Y-138017920D01*
X46632080Y-138112502D01*
X46747919Y-138179381D01*
X46808057Y-138195494D01*
X46245283Y-138758268D01*
X46245283Y-138758269D01*
X46282567Y-138785358D01*
X46439331Y-138865234D01*
X46490127Y-138913209D01*
X46506922Y-138981030D01*
X46484384Y-139047165D01*
X46439331Y-139086204D01*
X46282305Y-139166213D01*
X46121533Y-139283021D01*
X45981021Y-139423533D01*
X45864213Y-139584305D01*
X45773994Y-139761367D01*
X45773993Y-139761370D01*
X45712587Y-139950362D01*
X45681500Y-140146639D01*
X45000500Y-140146639D01*
X45000500Y-124906639D01*
X45681500Y-124906639D01*
X45681500Y-125105360D01*
X45712587Y-125301637D01*
X45773993Y-125490629D01*
X45773994Y-125490632D01*
X45864213Y-125667694D01*
X45981019Y-125828464D01*
X46121536Y-125968981D01*
X46282306Y-126085787D01*
X46400832Y-126146179D01*
X46438780Y-126165515D01*
X46489576Y-126213490D01*
X46506371Y-126281311D01*
X46483833Y-126347446D01*
X46438780Y-126386485D01*
X46282305Y-126466213D01*
X46121533Y-126583021D01*
X45981021Y-126723533D01*
X45864213Y-126884305D01*
X45773994Y-127061367D01*
X45773993Y-127061370D01*
X45712587Y-127250362D01*
X45681500Y-127446639D01*
X45681500Y-127645360D01*
X45712587Y-127841637D01*
X45773993Y-128030629D01*
X45773994Y-128030632D01*
X45864213Y-128207694D01*
X45981019Y-128368464D01*
X46121536Y-128508981D01*
X46282306Y-128625787D01*
X46400832Y-128686179D01*
X46438780Y-128705515D01*
X46489576Y-128753490D01*
X46506371Y-128821311D01*
X46483833Y-128887446D01*
X46438780Y-128926485D01*
X46282305Y-129006213D01*
X46121533Y-129123021D01*
X45981021Y-129263533D01*
X45864213Y-129424305D01*
X45773994Y-129601367D01*
X45773993Y-129601370D01*
X45712587Y-129790362D01*
X45681500Y-129986639D01*
X45681500Y-130185360D01*
X45712587Y-130381637D01*
X45773993Y-130570629D01*
X45773994Y-130570632D01*
X45864213Y-130747694D01*
X45981019Y-130908464D01*
X46121536Y-131048981D01*
X46121539Y-131048983D01*
X46245687Y-131139182D01*
X46288353Y-131194512D01*
X46294332Y-131264125D01*
X46261726Y-131325920D01*
X46200888Y-131360277D01*
X46172805Y-131363500D01*
X46134131Y-131363500D01*
X46134123Y-131363501D01*
X46074516Y-131369908D01*
X45939671Y-131420202D01*
X45939664Y-131420206D01*
X45824455Y-131506452D01*
X45824452Y-131506455D01*
X45738206Y-131621664D01*
X45738202Y-131621671D01*
X45687908Y-131756517D01*
X45681501Y-131816116D01*
X45681501Y-131816123D01*
X45681500Y-131816135D01*
X45681500Y-133435870D01*
X45681501Y-133435876D01*
X45687908Y-133495483D01*
X45738202Y-133630328D01*
X45738206Y-133630335D01*
X45824452Y-133745544D01*
X45824455Y-133745547D01*
X45939664Y-133831793D01*
X45939671Y-133831797D01*
X46074517Y-133882091D01*
X46074516Y-133882091D01*
X46081444Y-133882835D01*
X46134127Y-133888500D01*
X47753872Y-133888499D01*
X47813483Y-133882091D01*
X47948331Y-133831796D01*
X48063546Y-133745546D01*
X48149796Y-133630331D01*
X48200091Y-133495483D01*
X48206500Y-133435873D01*
X48206499Y-131816128D01*
X48200091Y-131756517D01*
X48149796Y-131621669D01*
X48149795Y-131621668D01*
X48149793Y-131621664D01*
X48063547Y-131506455D01*
X48063544Y-131506452D01*
X47948335Y-131420206D01*
X47948328Y-131420202D01*
X47813482Y-131369908D01*
X47813483Y-131369908D01*
X47753883Y-131363501D01*
X47753881Y-131363500D01*
X47753873Y-131363500D01*
X47753865Y-131363500D01*
X47715198Y-131363500D01*
X47648159Y-131343815D01*
X47602404Y-131291011D01*
X47592460Y-131221853D01*
X47621485Y-131158297D01*
X47642313Y-131139182D01*
X47665277Y-131122497D01*
X47766464Y-131048981D01*
X47906981Y-130908464D01*
X48023787Y-130747694D01*
X48114005Y-130570632D01*
X48175413Y-130381636D01*
X48206500Y-130185361D01*
X48206500Y-129986639D01*
X48175413Y-129790364D01*
X48114005Y-129601368D01*
X48114005Y-129601367D01*
X48023786Y-129424305D01*
X47906981Y-129263536D01*
X47766464Y-129123019D01*
X47605694Y-129006213D01*
X47449218Y-128926484D01*
X47398423Y-128878510D01*
X47381628Y-128810689D01*
X47404165Y-128744554D01*
X47449218Y-128705515D01*
X47605694Y-128625787D01*
X47766464Y-128508981D01*
X47906981Y-128368464D01*
X48023787Y-128207694D01*
X48114005Y-128030632D01*
X48175413Y-127841636D01*
X48206500Y-127645361D01*
X48206500Y-127446639D01*
X48175413Y-127250364D01*
X48114005Y-127061368D01*
X48114005Y-127061367D01*
X48023786Y-126884305D01*
X47906981Y-126723536D01*
X47766464Y-126583019D01*
X47605694Y-126466213D01*
X47449218Y-126386484D01*
X47398423Y-126338510D01*
X47381628Y-126270689D01*
X47404165Y-126204554D01*
X47449218Y-126165515D01*
X47605694Y-126085787D01*
X47766464Y-125968981D01*
X47906981Y-125828464D01*
X48023787Y-125667694D01*
X48114005Y-125490632D01*
X48175413Y-125301636D01*
X48206500Y-125105361D01*
X48206500Y-124906639D01*
X48175413Y-124710364D01*
X48114005Y-124521368D01*
X48114005Y-124521367D01*
X48023786Y-124344305D01*
X47906981Y-124183536D01*
X47766464Y-124043019D01*
X47605694Y-123926213D01*
X47448667Y-123846203D01*
X47397872Y-123798229D01*
X47381077Y-123730408D01*
X47403614Y-123664273D01*
X47448669Y-123625234D01*
X47605422Y-123545364D01*
X47642716Y-123518268D01*
X47079942Y-122955494D01*
X47140081Y-122939381D01*
X47255920Y-122872502D01*
X47350502Y-122777920D01*
X47417381Y-122662081D01*
X47433495Y-122601942D01*
X47996268Y-123164715D01*
X48023362Y-123127425D01*
X48113542Y-122950437D01*
X48174924Y-122761523D01*
X48174924Y-122761520D01*
X48206000Y-122565321D01*
X48206000Y-122366678D01*
X48174924Y-122170479D01*
X48174924Y-122170476D01*
X48113542Y-121981562D01*
X48023358Y-121804567D01*
X47996268Y-121767283D01*
X47433494Y-122330057D01*
X47417381Y-122269919D01*
X47350502Y-122154080D01*
X47255920Y-122059498D01*
X47140081Y-121992619D01*
X47079942Y-121976504D01*
X47642716Y-121413731D01*
X47642715Y-121413730D01*
X47605432Y-121386641D01*
X47428437Y-121296457D01*
X47239522Y-121235075D01*
X47043321Y-121204000D01*
X46844679Y-121204000D01*
X46648479Y-121235075D01*
X46648476Y-121235075D01*
X46459562Y-121296457D01*
X46282564Y-121386643D01*
X46245283Y-121413729D01*
X46245282Y-121413730D01*
X46808058Y-121976504D01*
X46747919Y-121992619D01*
X46632080Y-122059498D01*
X46537498Y-122154080D01*
X46470619Y-122269919D01*
X46454504Y-122330057D01*
X45891730Y-121767282D01*
X45891729Y-121767283D01*
X45864643Y-121804564D01*
X45774457Y-121981562D01*
X45713075Y-122170476D01*
X45713075Y-122170479D01*
X45682000Y-122366678D01*
X45682000Y-122565321D01*
X45713075Y-122761520D01*
X45713075Y-122761523D01*
X45774457Y-122950437D01*
X45864641Y-123127432D01*
X45891730Y-123164715D01*
X45891731Y-123164716D01*
X46454504Y-122601942D01*
X46470619Y-122662081D01*
X46537498Y-122777920D01*
X46632080Y-122872502D01*
X46747919Y-122939381D01*
X46808057Y-122955494D01*
X46245283Y-123518268D01*
X46245283Y-123518269D01*
X46282567Y-123545358D01*
X46439331Y-123625234D01*
X46490127Y-123673209D01*
X46506922Y-123741030D01*
X46484384Y-123807165D01*
X46439331Y-123846204D01*
X46282305Y-123926213D01*
X46121533Y-124043021D01*
X45981021Y-124183533D01*
X45864213Y-124344305D01*
X45773994Y-124521367D01*
X45773993Y-124521370D01*
X45712587Y-124710362D01*
X45681500Y-124906639D01*
X45000500Y-124906639D01*
X45000500Y-114746639D01*
X45681500Y-114746639D01*
X45681500Y-114945360D01*
X45712587Y-115141637D01*
X45773993Y-115330629D01*
X45773994Y-115330632D01*
X45864213Y-115507694D01*
X45981019Y-115668464D01*
X46121536Y-115808981D01*
X46121539Y-115808983D01*
X46245687Y-115899182D01*
X46288353Y-115954512D01*
X46294332Y-116024125D01*
X46261726Y-116085920D01*
X46200888Y-116120277D01*
X46172805Y-116123500D01*
X46134131Y-116123500D01*
X46134123Y-116123501D01*
X46074516Y-116129908D01*
X45939671Y-116180202D01*
X45939664Y-116180206D01*
X45824455Y-116266452D01*
X45824452Y-116266455D01*
X45738206Y-116381664D01*
X45738202Y-116381671D01*
X45687908Y-116516517D01*
X45681501Y-116576116D01*
X45681501Y-116576123D01*
X45681500Y-116576135D01*
X45681500Y-118195870D01*
X45681501Y-118195876D01*
X45687908Y-118255483D01*
X45738202Y-118390328D01*
X45738206Y-118390335D01*
X45824452Y-118505544D01*
X45824455Y-118505547D01*
X45939664Y-118591793D01*
X45939671Y-118591797D01*
X46074517Y-118642091D01*
X46074516Y-118642091D01*
X46081444Y-118642835D01*
X46134127Y-118648500D01*
X47753872Y-118648499D01*
X47813483Y-118642091D01*
X47948331Y-118591796D01*
X48063546Y-118505546D01*
X48149796Y-118390331D01*
X48200091Y-118255483D01*
X48206500Y-118195873D01*
X48206499Y-116576128D01*
X48200091Y-116516517D01*
X48149796Y-116381669D01*
X48149795Y-116381668D01*
X48149793Y-116381664D01*
X48063547Y-116266455D01*
X48063544Y-116266452D01*
X47948335Y-116180206D01*
X47948328Y-116180202D01*
X47813482Y-116129908D01*
X47813483Y-116129908D01*
X47753883Y-116123501D01*
X47753881Y-116123500D01*
X47753873Y-116123500D01*
X47753865Y-116123500D01*
X47715198Y-116123500D01*
X47648159Y-116103815D01*
X47602404Y-116051011D01*
X47592460Y-115981853D01*
X47621485Y-115918297D01*
X47642313Y-115899182D01*
X47665277Y-115882497D01*
X47766464Y-115808981D01*
X47906981Y-115668464D01*
X48023787Y-115507694D01*
X48114005Y-115330632D01*
X48175413Y-115141636D01*
X48206500Y-114945361D01*
X48206500Y-114746639D01*
X48175413Y-114550364D01*
X48114005Y-114361368D01*
X48114005Y-114361367D01*
X48023786Y-114184305D01*
X47906981Y-114023536D01*
X47766464Y-113883019D01*
X47605694Y-113766213D01*
X47448667Y-113686203D01*
X47397872Y-113638229D01*
X47381077Y-113570408D01*
X47403614Y-113504273D01*
X47448669Y-113465234D01*
X47605422Y-113385364D01*
X47642716Y-113358268D01*
X47079942Y-112795494D01*
X47140081Y-112779381D01*
X47255920Y-112712502D01*
X47350502Y-112617920D01*
X47417381Y-112502081D01*
X47433495Y-112441942D01*
X47996268Y-113004715D01*
X48023362Y-112967425D01*
X48113542Y-112790437D01*
X48174924Y-112601523D01*
X48174924Y-112601520D01*
X48206000Y-112405321D01*
X48206000Y-112206678D01*
X48174924Y-112010479D01*
X48174924Y-112010476D01*
X48113542Y-111821562D01*
X48023358Y-111644567D01*
X47996268Y-111607283D01*
X47433494Y-112170057D01*
X47417381Y-112109919D01*
X47350502Y-111994080D01*
X47255920Y-111899498D01*
X47140081Y-111832619D01*
X47079942Y-111816504D01*
X47642716Y-111253731D01*
X47642715Y-111253730D01*
X47605432Y-111226641D01*
X47428437Y-111136457D01*
X47239522Y-111075075D01*
X47043321Y-111044000D01*
X46844679Y-111044000D01*
X46648479Y-111075075D01*
X46648476Y-111075075D01*
X46459562Y-111136457D01*
X46282564Y-111226643D01*
X46245283Y-111253729D01*
X46245282Y-111253730D01*
X46808058Y-111816504D01*
X46747919Y-111832619D01*
X46632080Y-111899498D01*
X46537498Y-111994080D01*
X46470619Y-112109919D01*
X46454504Y-112170057D01*
X45891730Y-111607282D01*
X45891729Y-111607283D01*
X45864643Y-111644564D01*
X45774457Y-111821562D01*
X45713075Y-112010476D01*
X45713075Y-112010479D01*
X45682000Y-112206678D01*
X45682000Y-112405321D01*
X45713075Y-112601520D01*
X45713075Y-112601523D01*
X45774457Y-112790437D01*
X45864641Y-112967432D01*
X45891730Y-113004715D01*
X45891731Y-113004716D01*
X46454504Y-112441942D01*
X46470619Y-112502081D01*
X46537498Y-112617920D01*
X46632080Y-112712502D01*
X46747919Y-112779381D01*
X46808057Y-112795494D01*
X46245283Y-113358268D01*
X46245283Y-113358269D01*
X46282567Y-113385358D01*
X46439331Y-113465234D01*
X46490127Y-113513209D01*
X46506922Y-113581030D01*
X46484384Y-113647165D01*
X46439331Y-113686204D01*
X46282305Y-113766213D01*
X46121533Y-113883021D01*
X45981021Y-114023533D01*
X45864213Y-114184305D01*
X45773994Y-114361367D01*
X45773993Y-114361370D01*
X45712587Y-114550362D01*
X45681500Y-114746639D01*
X45000500Y-114746639D01*
X45000500Y-106416135D01*
X45681500Y-106416135D01*
X45681500Y-108035870D01*
X45681501Y-108035876D01*
X45687908Y-108095483D01*
X45738202Y-108230328D01*
X45738206Y-108230335D01*
X45824452Y-108345544D01*
X45824455Y-108345547D01*
X45939664Y-108431793D01*
X45939671Y-108431797D01*
X46074517Y-108482091D01*
X46074516Y-108482091D01*
X46081444Y-108482835D01*
X46134127Y-108488500D01*
X47753872Y-108488499D01*
X47813483Y-108482091D01*
X47948331Y-108431796D01*
X48063546Y-108345546D01*
X48149796Y-108230331D01*
X48200091Y-108095483D01*
X48206500Y-108035873D01*
X48206499Y-107983632D01*
X48209077Y-107971192D01*
X48219776Y-107951126D01*
X48226182Y-107929308D01*
X48235900Y-107920886D01*
X48241951Y-107909539D01*
X48261800Y-107898442D01*
X48278985Y-107883552D01*
X48291713Y-107881721D01*
X48302938Y-107875447D01*
X48325635Y-107876843D01*
X48348143Y-107873607D01*
X48359839Y-107878948D01*
X48372676Y-107879738D01*
X48391015Y-107893184D01*
X48411700Y-107902630D01*
X48427753Y-107920121D01*
X48429023Y-107921052D01*
X48429322Y-107921830D01*
X48430816Y-107923458D01*
X48431729Y-107924715D01*
X48431731Y-107924716D01*
X48994504Y-107361942D01*
X49010619Y-107422081D01*
X49077498Y-107537920D01*
X49172080Y-107632502D01*
X49287919Y-107699381D01*
X49348057Y-107715494D01*
X48785283Y-108278268D01*
X48785283Y-108278269D01*
X48822567Y-108305358D01*
X48999562Y-108395542D01*
X49188477Y-108456924D01*
X49384679Y-108488000D01*
X49583321Y-108488000D01*
X49779520Y-108456924D01*
X49779523Y-108456924D01*
X49968437Y-108395542D01*
X50145425Y-108305362D01*
X50182716Y-108278268D01*
X49619942Y-107715494D01*
X49680081Y-107699381D01*
X49795920Y-107632502D01*
X49890502Y-107537920D01*
X49957381Y-107422081D01*
X49973495Y-107361942D01*
X50536268Y-107924715D01*
X50563362Y-107887425D01*
X50643515Y-107730117D01*
X50691489Y-107679321D01*
X50759310Y-107662526D01*
X50825445Y-107685063D01*
X50864485Y-107730117D01*
X50944641Y-107887432D01*
X50971730Y-107924715D01*
X50971731Y-107924716D01*
X51534504Y-107361942D01*
X51550619Y-107422081D01*
X51617498Y-107537920D01*
X51712080Y-107632502D01*
X51827919Y-107699381D01*
X51888057Y-107715494D01*
X51325283Y-108278268D01*
X51325283Y-108278269D01*
X51362567Y-108305358D01*
X51539562Y-108395542D01*
X51728477Y-108456924D01*
X51924679Y-108488000D01*
X52123321Y-108488000D01*
X52319520Y-108456924D01*
X52319523Y-108456924D01*
X52508437Y-108395542D01*
X52685425Y-108305362D01*
X52722716Y-108278268D01*
X52159942Y-107715494D01*
X52220081Y-107699381D01*
X52335920Y-107632502D01*
X52430502Y-107537920D01*
X52497381Y-107422081D01*
X52513495Y-107361942D01*
X53076268Y-107924715D01*
X53103362Y-107887425D01*
X53193542Y-107710437D01*
X53254924Y-107521523D01*
X53254924Y-107521520D01*
X53286000Y-107325321D01*
X53286000Y-107126679D01*
X53283777Y-107112646D01*
X55663700Y-107112646D01*
X55663700Y-107339354D01*
X55667226Y-107361617D01*
X55699165Y-107563272D01*
X55769219Y-107778880D01*
X55769220Y-107778883D01*
X55832273Y-107902630D01*
X55851230Y-107939835D01*
X55872147Y-107980885D01*
X56005394Y-108164286D01*
X56005398Y-108164291D01*
X56165708Y-108324601D01*
X56165713Y-108324605D01*
X56263542Y-108395682D01*
X56306208Y-108451012D01*
X56312187Y-108520625D01*
X56279582Y-108582420D01*
X56263542Y-108596318D01*
X56165713Y-108667394D01*
X56165708Y-108667398D01*
X56005398Y-108827708D01*
X56005394Y-108827713D01*
X55872147Y-109011114D01*
X55769220Y-109213116D01*
X55769219Y-109213119D01*
X55699165Y-109428727D01*
X55663700Y-109652646D01*
X55663700Y-109879353D01*
X55699165Y-110103272D01*
X55769219Y-110318880D01*
X55769220Y-110318883D01*
X55816256Y-110411195D01*
X55850696Y-110478787D01*
X55872147Y-110520885D01*
X56005394Y-110704286D01*
X56005398Y-110704291D01*
X56165708Y-110864601D01*
X56165713Y-110864605D01*
X56325684Y-110980829D01*
X56349118Y-110997855D01*
X56477647Y-111063344D01*
X56551116Y-111100779D01*
X56551119Y-111100780D01*
X56658923Y-111135807D01*
X56766729Y-111170835D01*
X56990646Y-111206300D01*
X56990647Y-111206300D01*
X57217353Y-111206300D01*
X57217354Y-111206300D01*
X57441271Y-111170835D01*
X57656883Y-111100779D01*
X57858882Y-110997855D01*
X58042293Y-110864600D01*
X58202600Y-110704293D01*
X58273682Y-110606456D01*
X58329011Y-110563791D01*
X58398624Y-110557812D01*
X58460420Y-110590417D01*
X58474315Y-110606453D01*
X58478880Y-110612735D01*
X58545400Y-110704293D01*
X58705708Y-110864601D01*
X58705713Y-110864605D01*
X58865684Y-110980829D01*
X58889118Y-110997855D01*
X59017647Y-111063344D01*
X59091116Y-111100779D01*
X59091119Y-111100780D01*
X59198923Y-111135807D01*
X59306729Y-111170835D01*
X59530646Y-111206300D01*
X59530647Y-111206300D01*
X59757353Y-111206300D01*
X59757354Y-111206300D01*
X59981271Y-111170835D01*
X60196883Y-111100779D01*
X60398882Y-110997855D01*
X60582293Y-110864600D01*
X60742600Y-110704293D01*
X60813682Y-110606456D01*
X60869011Y-110563791D01*
X60938624Y-110557812D01*
X61000420Y-110590417D01*
X61014315Y-110606453D01*
X61018880Y-110612735D01*
X61085400Y-110704293D01*
X61245708Y-110864601D01*
X61245713Y-110864605D01*
X61405684Y-110980829D01*
X61429118Y-110997855D01*
X61557647Y-111063344D01*
X61631116Y-111100779D01*
X61631119Y-111100780D01*
X61738923Y-111135807D01*
X61846729Y-111170835D01*
X62070646Y-111206300D01*
X62070647Y-111206300D01*
X62297353Y-111206300D01*
X62297354Y-111206300D01*
X62521271Y-111170835D01*
X62736883Y-111100779D01*
X62938882Y-110997855D01*
X63122293Y-110864600D01*
X63282600Y-110704293D01*
X63353682Y-110606456D01*
X63409011Y-110563791D01*
X63478624Y-110557812D01*
X63540420Y-110590417D01*
X63554315Y-110606453D01*
X63558880Y-110612735D01*
X63625400Y-110704293D01*
X63785708Y-110864601D01*
X63785713Y-110864605D01*
X63945684Y-110980829D01*
X63969118Y-110997855D01*
X64097647Y-111063344D01*
X64171116Y-111100779D01*
X64171119Y-111100780D01*
X64278923Y-111135807D01*
X64386729Y-111170835D01*
X64610646Y-111206300D01*
X64610647Y-111206300D01*
X64837353Y-111206300D01*
X64837354Y-111206300D01*
X65061271Y-111170835D01*
X65276883Y-111100779D01*
X65478882Y-110997855D01*
X65662293Y-110864600D01*
X65822600Y-110704293D01*
X65893682Y-110606456D01*
X65949011Y-110563791D01*
X66018624Y-110557812D01*
X66080420Y-110590417D01*
X66094315Y-110606453D01*
X66098880Y-110612735D01*
X66165400Y-110704293D01*
X66325708Y-110864601D01*
X66325713Y-110864605D01*
X66485684Y-110980829D01*
X66509118Y-110997855D01*
X66637647Y-111063344D01*
X66711116Y-111100779D01*
X66711119Y-111100780D01*
X66818923Y-111135807D01*
X66926729Y-111170835D01*
X67150646Y-111206300D01*
X67150647Y-111206300D01*
X67377353Y-111206300D01*
X67377354Y-111206300D01*
X67601271Y-111170835D01*
X67816883Y-111100779D01*
X68018882Y-110997855D01*
X68202293Y-110864600D01*
X68362600Y-110704293D01*
X68433682Y-110606456D01*
X68489011Y-110563791D01*
X68558624Y-110557812D01*
X68620420Y-110590417D01*
X68634315Y-110606453D01*
X68638880Y-110612735D01*
X68705400Y-110704293D01*
X68865708Y-110864601D01*
X68865713Y-110864605D01*
X69025684Y-110980829D01*
X69049118Y-110997855D01*
X69177647Y-111063344D01*
X69251116Y-111100779D01*
X69251119Y-111100780D01*
X69358923Y-111135807D01*
X69466729Y-111170835D01*
X69690646Y-111206300D01*
X69690647Y-111206300D01*
X69917353Y-111206300D01*
X69917354Y-111206300D01*
X70141271Y-111170835D01*
X70356883Y-111100779D01*
X70558882Y-110997855D01*
X70742293Y-110864600D01*
X70902600Y-110704293D01*
X70973682Y-110606456D01*
X71029011Y-110563791D01*
X71098624Y-110557812D01*
X71160420Y-110590417D01*
X71174315Y-110606453D01*
X71178880Y-110612735D01*
X71245400Y-110704293D01*
X71405708Y-110864601D01*
X71405713Y-110864605D01*
X71565684Y-110980829D01*
X71589118Y-110997855D01*
X71717647Y-111063344D01*
X71791116Y-111100779D01*
X71791119Y-111100780D01*
X71898923Y-111135807D01*
X72006729Y-111170835D01*
X72230646Y-111206300D01*
X72230647Y-111206300D01*
X72457353Y-111206300D01*
X72457354Y-111206300D01*
X72681271Y-111170835D01*
X72896883Y-111100779D01*
X73098882Y-110997855D01*
X73282293Y-110864600D01*
X73442600Y-110704293D01*
X73513682Y-110606456D01*
X73569011Y-110563791D01*
X73638624Y-110557812D01*
X73700420Y-110590417D01*
X73714315Y-110606453D01*
X73718880Y-110612735D01*
X73785400Y-110704293D01*
X73945708Y-110864601D01*
X73945713Y-110864605D01*
X74105684Y-110980829D01*
X74129118Y-110997855D01*
X74257647Y-111063344D01*
X74331116Y-111100779D01*
X74331119Y-111100780D01*
X74438923Y-111135807D01*
X74546729Y-111170835D01*
X74770646Y-111206300D01*
X74770647Y-111206300D01*
X74997353Y-111206300D01*
X74997354Y-111206300D01*
X75221271Y-111170835D01*
X75436883Y-111100779D01*
X75638882Y-110997855D01*
X75822293Y-110864600D01*
X75982600Y-110704293D01*
X76053992Y-110606029D01*
X76109319Y-110563365D01*
X76178932Y-110557384D01*
X76240728Y-110589989D01*
X76242332Y-110591841D01*
X76244439Y-110592007D01*
X76934504Y-109901941D01*
X76950619Y-109962081D01*
X77017498Y-110077920D01*
X77112080Y-110172502D01*
X77227919Y-110239381D01*
X77288057Y-110255494D01*
X76597991Y-110945559D01*
X76669379Y-110997426D01*
X76871311Y-111100316D01*
X77086842Y-111170346D01*
X77310686Y-111205800D01*
X77537314Y-111205800D01*
X77761155Y-111170346D01*
X77761158Y-111170346D01*
X77976688Y-111100316D01*
X78178620Y-110997426D01*
X78250006Y-110945559D01*
X77559942Y-110255495D01*
X77620081Y-110239381D01*
X77735920Y-110172502D01*
X77830502Y-110077920D01*
X77897381Y-109962081D01*
X77913495Y-109901942D01*
X78487381Y-110475828D01*
X78520866Y-110537151D01*
X78523700Y-110563508D01*
X78523700Y-110753669D01*
X78523701Y-110753676D01*
X78530108Y-110813283D01*
X78580402Y-110948128D01*
X78580406Y-110948135D01*
X78666652Y-111063344D01*
X78666655Y-111063347D01*
X78781864Y-111149593D01*
X78781871Y-111149597D01*
X78916717Y-111199891D01*
X78916716Y-111199891D01*
X78923644Y-111200635D01*
X78976327Y-111206300D01*
X80951672Y-111206299D01*
X81011283Y-111199891D01*
X81146131Y-111149596D01*
X81261346Y-111063346D01*
X81347596Y-110948131D01*
X81397891Y-110813283D01*
X81404300Y-110753673D01*
X81404299Y-109901577D01*
X108249500Y-109901577D01*
X108249500Y-110098422D01*
X108280290Y-110292826D01*
X108341117Y-110480029D01*
X108411781Y-110618714D01*
X108430476Y-110655405D01*
X108546172Y-110814646D01*
X108685354Y-110953828D01*
X108844595Y-111069524D01*
X108855490Y-111075075D01*
X109019970Y-111158882D01*
X109019972Y-111158882D01*
X109019975Y-111158884D01*
X109120317Y-111191487D01*
X109207173Y-111219709D01*
X109401578Y-111250500D01*
X109401583Y-111250500D01*
X109598422Y-111250500D01*
X109792826Y-111219709D01*
X109834097Y-111206299D01*
X109980025Y-111158884D01*
X110155405Y-111069524D01*
X110314646Y-110953828D01*
X110453828Y-110814646D01*
X110569524Y-110655405D01*
X110616348Y-110563508D01*
X110659515Y-110478787D01*
X110707489Y-110427990D01*
X110775310Y-110411195D01*
X110841445Y-110433732D01*
X110880485Y-110478787D01*
X110970474Y-110655403D01*
X110974817Y-110661380D01*
X111086172Y-110814646D01*
X111225354Y-110953828D01*
X111384595Y-111069524D01*
X111395490Y-111075075D01*
X111559970Y-111158882D01*
X111559972Y-111158882D01*
X111559975Y-111158884D01*
X111660317Y-111191487D01*
X111747173Y-111219709D01*
X111941578Y-111250500D01*
X111941583Y-111250500D01*
X112138422Y-111250500D01*
X112332826Y-111219709D01*
X112374097Y-111206299D01*
X112520025Y-111158884D01*
X112695405Y-111069524D01*
X112854646Y-110953828D01*
X112993828Y-110814646D01*
X113109524Y-110655405D01*
X113156348Y-110563508D01*
X113199515Y-110478787D01*
X113247489Y-110427990D01*
X113315310Y-110411195D01*
X113381445Y-110433732D01*
X113420485Y-110478787D01*
X113510474Y-110655403D01*
X113514817Y-110661380D01*
X113626172Y-110814646D01*
X113765354Y-110953828D01*
X113924595Y-111069524D01*
X113935490Y-111075075D01*
X114099970Y-111158882D01*
X114099972Y-111158882D01*
X114099975Y-111158884D01*
X114200317Y-111191487D01*
X114287173Y-111219709D01*
X114481578Y-111250500D01*
X114481583Y-111250500D01*
X114678422Y-111250500D01*
X114872826Y-111219709D01*
X114914097Y-111206299D01*
X115060025Y-111158884D01*
X115235405Y-111069524D01*
X115394646Y-110953828D01*
X115533828Y-110814646D01*
X115645184Y-110661378D01*
X115700512Y-110618714D01*
X115770125Y-110612735D01*
X115831920Y-110645341D01*
X115866277Y-110706179D01*
X115869500Y-110734263D01*
X115869500Y-110797869D01*
X115869501Y-110797876D01*
X115875908Y-110857483D01*
X115926202Y-110992328D01*
X115926206Y-110992335D01*
X116012452Y-111107544D01*
X116012455Y-111107547D01*
X116127664Y-111193793D01*
X116127671Y-111193797D01*
X116262517Y-111244091D01*
X116262516Y-111244091D01*
X116269444Y-111244835D01*
X116322127Y-111250500D01*
X117917872Y-111250499D01*
X117977483Y-111244091D01*
X118112331Y-111193796D01*
X118227546Y-111107546D01*
X118313796Y-110992331D01*
X118364091Y-110857483D01*
X118370500Y-110797873D01*
X118370499Y-109202128D01*
X118364091Y-109142517D01*
X118343004Y-109085981D01*
X118313797Y-109007671D01*
X118313793Y-109007664D01*
X118227547Y-108892455D01*
X118227544Y-108892452D01*
X118112335Y-108806206D01*
X118112328Y-108806202D01*
X117977482Y-108755908D01*
X117977483Y-108755908D01*
X117917883Y-108749501D01*
X117917881Y-108749500D01*
X117917873Y-108749500D01*
X117917865Y-108749500D01*
X117853415Y-108749500D01*
X117786376Y-108729815D01*
X117740621Y-108677011D01*
X117730677Y-108607853D01*
X117759702Y-108544297D01*
X117780530Y-108525182D01*
X117810125Y-108503679D01*
X117810126Y-108503678D01*
X117249410Y-107942962D01*
X117312993Y-107925925D01*
X117427007Y-107860099D01*
X117520099Y-107767007D01*
X117585925Y-107652993D01*
X117602962Y-107589410D01*
X118163678Y-108150126D01*
X118163678Y-108150125D01*
X118189095Y-108115143D01*
X118278418Y-107939835D01*
X118339221Y-107752705D01*
X118370000Y-107558382D01*
X118370000Y-107361617D01*
X118339221Y-107167294D01*
X118339220Y-107167289D01*
X118332336Y-107146103D01*
X118332333Y-107146093D01*
X118321465Y-107112646D01*
X119163700Y-107112646D01*
X119163700Y-107339354D01*
X119167226Y-107361617D01*
X119199165Y-107563272D01*
X119269219Y-107778880D01*
X119269220Y-107778883D01*
X119332273Y-107902630D01*
X119351230Y-107939835D01*
X119372147Y-107980885D01*
X119505394Y-108164286D01*
X119505398Y-108164291D01*
X119665708Y-108324601D01*
X119665713Y-108324605D01*
X119763542Y-108395682D01*
X119806208Y-108451012D01*
X119812187Y-108520625D01*
X119779582Y-108582420D01*
X119763542Y-108596318D01*
X119665713Y-108667394D01*
X119665708Y-108667398D01*
X119505398Y-108827708D01*
X119505394Y-108827713D01*
X119372147Y-109011114D01*
X119269220Y-109213116D01*
X119269219Y-109213119D01*
X119199165Y-109428727D01*
X119163700Y-109652646D01*
X119163700Y-109879353D01*
X119199165Y-110103272D01*
X119269219Y-110318880D01*
X119269220Y-110318883D01*
X119316256Y-110411195D01*
X119350696Y-110478787D01*
X119372147Y-110520885D01*
X119505394Y-110704286D01*
X119505398Y-110704291D01*
X119665708Y-110864601D01*
X119665713Y-110864605D01*
X119825684Y-110980829D01*
X119849118Y-110997855D01*
X119977647Y-111063344D01*
X120051116Y-111100779D01*
X120051119Y-111100780D01*
X120158923Y-111135807D01*
X120266729Y-111170835D01*
X120490646Y-111206300D01*
X120490647Y-111206300D01*
X120717353Y-111206300D01*
X120717354Y-111206300D01*
X120941271Y-111170835D01*
X121156883Y-111100779D01*
X121358882Y-110997855D01*
X121542293Y-110864600D01*
X121702600Y-110704293D01*
X121773682Y-110606456D01*
X121829011Y-110563791D01*
X121898624Y-110557812D01*
X121960420Y-110590417D01*
X121974315Y-110606453D01*
X121978880Y-110612735D01*
X122045400Y-110704293D01*
X122205708Y-110864601D01*
X122205713Y-110864605D01*
X122365684Y-110980829D01*
X122389118Y-110997855D01*
X122517647Y-111063344D01*
X122591116Y-111100779D01*
X122591119Y-111100780D01*
X122698923Y-111135807D01*
X122806729Y-111170835D01*
X123030646Y-111206300D01*
X123030647Y-111206300D01*
X123257353Y-111206300D01*
X123257354Y-111206300D01*
X123481271Y-111170835D01*
X123696883Y-111100779D01*
X123898882Y-110997855D01*
X124082293Y-110864600D01*
X124242600Y-110704293D01*
X124313682Y-110606456D01*
X124369011Y-110563791D01*
X124438624Y-110557812D01*
X124500420Y-110590417D01*
X124514315Y-110606453D01*
X124518880Y-110612735D01*
X124585400Y-110704293D01*
X124745708Y-110864601D01*
X124745713Y-110864605D01*
X124905684Y-110980829D01*
X124929118Y-110997855D01*
X125057647Y-111063344D01*
X125131116Y-111100779D01*
X125131119Y-111100780D01*
X125238923Y-111135807D01*
X125346729Y-111170835D01*
X125570646Y-111206300D01*
X125570647Y-111206300D01*
X125797353Y-111206300D01*
X125797354Y-111206300D01*
X126021271Y-111170835D01*
X126236883Y-111100779D01*
X126438882Y-110997855D01*
X126622293Y-110864600D01*
X126782600Y-110704293D01*
X126853682Y-110606456D01*
X126909011Y-110563791D01*
X126978624Y-110557812D01*
X127040420Y-110590417D01*
X127054315Y-110606453D01*
X127058880Y-110612735D01*
X127125400Y-110704293D01*
X127285708Y-110864601D01*
X127285713Y-110864605D01*
X127445684Y-110980829D01*
X127469118Y-110997855D01*
X127597647Y-111063344D01*
X127671116Y-111100779D01*
X127671119Y-111100780D01*
X127778923Y-111135807D01*
X127886729Y-111170835D01*
X128110646Y-111206300D01*
X128110647Y-111206300D01*
X128337353Y-111206300D01*
X128337354Y-111206300D01*
X128561271Y-111170835D01*
X128776883Y-111100779D01*
X128978882Y-110997855D01*
X129162293Y-110864600D01*
X129322600Y-110704293D01*
X129393682Y-110606456D01*
X129449011Y-110563791D01*
X129518624Y-110557812D01*
X129580420Y-110590417D01*
X129594315Y-110606453D01*
X129598880Y-110612735D01*
X129665400Y-110704293D01*
X129825708Y-110864601D01*
X129825713Y-110864605D01*
X129985684Y-110980829D01*
X130009118Y-110997855D01*
X130137647Y-111063344D01*
X130211116Y-111100779D01*
X130211119Y-111100780D01*
X130318923Y-111135807D01*
X130426729Y-111170835D01*
X130650646Y-111206300D01*
X130650647Y-111206300D01*
X130877353Y-111206300D01*
X130877354Y-111206300D01*
X131101271Y-111170835D01*
X131316883Y-111100779D01*
X131518882Y-110997855D01*
X131702293Y-110864600D01*
X131862600Y-110704293D01*
X131933682Y-110606456D01*
X131989011Y-110563791D01*
X132058624Y-110557812D01*
X132120420Y-110590417D01*
X132134315Y-110606453D01*
X132138880Y-110612735D01*
X132205400Y-110704293D01*
X132365708Y-110864601D01*
X132365713Y-110864605D01*
X132525684Y-110980829D01*
X132549118Y-110997855D01*
X132677647Y-111063344D01*
X132751116Y-111100779D01*
X132751119Y-111100780D01*
X132858923Y-111135807D01*
X132966729Y-111170835D01*
X133190646Y-111206300D01*
X133190647Y-111206300D01*
X133417353Y-111206300D01*
X133417354Y-111206300D01*
X133641271Y-111170835D01*
X133856883Y-111100779D01*
X134058882Y-110997855D01*
X134242293Y-110864600D01*
X134402600Y-110704293D01*
X134473682Y-110606456D01*
X134529011Y-110563791D01*
X134598624Y-110557812D01*
X134660420Y-110590417D01*
X134674315Y-110606453D01*
X134678880Y-110612735D01*
X134745400Y-110704293D01*
X134905708Y-110864601D01*
X134905713Y-110864605D01*
X135065684Y-110980829D01*
X135089118Y-110997855D01*
X135217647Y-111063344D01*
X135291116Y-111100779D01*
X135291119Y-111100780D01*
X135398923Y-111135807D01*
X135506729Y-111170835D01*
X135730646Y-111206300D01*
X135730647Y-111206300D01*
X135957353Y-111206300D01*
X135957354Y-111206300D01*
X136181271Y-111170835D01*
X136396883Y-111100779D01*
X136598882Y-110997855D01*
X136782293Y-110864600D01*
X136942600Y-110704293D01*
X137013682Y-110606456D01*
X137069011Y-110563791D01*
X137138624Y-110557812D01*
X137200420Y-110590417D01*
X137214315Y-110606453D01*
X137218880Y-110612735D01*
X137285400Y-110704293D01*
X137445708Y-110864601D01*
X137445713Y-110864605D01*
X137605684Y-110980829D01*
X137629118Y-110997855D01*
X137757647Y-111063344D01*
X137831116Y-111100779D01*
X137831119Y-111100780D01*
X137938923Y-111135807D01*
X138046729Y-111170835D01*
X138270646Y-111206300D01*
X138270647Y-111206300D01*
X138497353Y-111206300D01*
X138497354Y-111206300D01*
X138721271Y-111170835D01*
X138936883Y-111100779D01*
X139138882Y-110997855D01*
X139322293Y-110864600D01*
X139482600Y-110704293D01*
X139553992Y-110606029D01*
X139609319Y-110563365D01*
X139678932Y-110557384D01*
X139740728Y-110589989D01*
X139742332Y-110591841D01*
X139744439Y-110592007D01*
X140434504Y-109901941D01*
X140450619Y-109962081D01*
X140517498Y-110077920D01*
X140612080Y-110172502D01*
X140727919Y-110239381D01*
X140788057Y-110255494D01*
X140097991Y-110945559D01*
X140169379Y-110997426D01*
X140371311Y-111100316D01*
X140586842Y-111170346D01*
X140810686Y-111205800D01*
X141037314Y-111205800D01*
X141261155Y-111170346D01*
X141261158Y-111170346D01*
X141476688Y-111100316D01*
X141678620Y-110997426D01*
X141750006Y-110945559D01*
X141059942Y-110255495D01*
X141120081Y-110239381D01*
X141235920Y-110172502D01*
X141330502Y-110077920D01*
X141397381Y-109962081D01*
X141413495Y-109901942D01*
X141987381Y-110475828D01*
X142020866Y-110537151D01*
X142023700Y-110563508D01*
X142023700Y-110753669D01*
X142023701Y-110753676D01*
X142030108Y-110813283D01*
X142080402Y-110948128D01*
X142080406Y-110948135D01*
X142166652Y-111063344D01*
X142166655Y-111063347D01*
X142281864Y-111149593D01*
X142281871Y-111149597D01*
X142416717Y-111199891D01*
X142416716Y-111199891D01*
X142423644Y-111200635D01*
X142476327Y-111206300D01*
X144451672Y-111206299D01*
X144511283Y-111199891D01*
X144646131Y-111149596D01*
X144761346Y-111063346D01*
X144847596Y-110948131D01*
X144897891Y-110813283D01*
X144904300Y-110753673D01*
X144904299Y-108778328D01*
X144897891Y-108718717D01*
X144878750Y-108667398D01*
X144847597Y-108583871D01*
X144847595Y-108583868D01*
X144846742Y-108582729D01*
X144837446Y-108570311D01*
X144813029Y-108504848D01*
X144827880Y-108436575D01*
X144837447Y-108421688D01*
X144847596Y-108408131D01*
X144897891Y-108273283D01*
X144904300Y-108213673D01*
X144904299Y-106238328D01*
X144897891Y-106178717D01*
X144896031Y-106173731D01*
X144847597Y-106043871D01*
X144847593Y-106043864D01*
X144761347Y-105928655D01*
X144761344Y-105928652D01*
X144646135Y-105842406D01*
X144646128Y-105842402D01*
X144511282Y-105792108D01*
X144511283Y-105792108D01*
X144451683Y-105785701D01*
X144451681Y-105785700D01*
X144451673Y-105785700D01*
X144451664Y-105785700D01*
X142476329Y-105785700D01*
X142476323Y-105785701D01*
X142416716Y-105792108D01*
X142281871Y-105842402D01*
X142281864Y-105842406D01*
X142166655Y-105928652D01*
X142166652Y-105928655D01*
X142080406Y-106043864D01*
X142080402Y-106043872D01*
X142065887Y-106082787D01*
X142024015Y-106138719D01*
X141958550Y-106163135D01*
X141890277Y-106148282D01*
X141866227Y-106130277D01*
X141865989Y-106130557D01*
X141862286Y-106127394D01*
X141678885Y-105994147D01*
X141678884Y-105994146D01*
X141678882Y-105994145D01*
X141614166Y-105961170D01*
X141476883Y-105891220D01*
X141476880Y-105891219D01*
X141261272Y-105821165D01*
X141149312Y-105803432D01*
X141037354Y-105785700D01*
X140810646Y-105785700D01*
X140736007Y-105797521D01*
X140586727Y-105821165D01*
X140371119Y-105891219D01*
X140371116Y-105891220D01*
X140169114Y-105994147D01*
X139985713Y-106127394D01*
X139985708Y-106127398D01*
X139825398Y-106287708D01*
X139825394Y-106287713D01*
X139754318Y-106385542D01*
X139698988Y-106428208D01*
X139629375Y-106434187D01*
X139567580Y-106401582D01*
X139553682Y-106385542D01*
X139482605Y-106287713D01*
X139482601Y-106287708D01*
X139322291Y-106127398D01*
X139322286Y-106127394D01*
X139138885Y-105994147D01*
X139138884Y-105994146D01*
X139138882Y-105994145D01*
X139074166Y-105961170D01*
X138936883Y-105891220D01*
X138936880Y-105891219D01*
X138721272Y-105821165D01*
X138609312Y-105803432D01*
X138497354Y-105785700D01*
X138270646Y-105785700D01*
X138196007Y-105797521D01*
X138046727Y-105821165D01*
X137831119Y-105891219D01*
X137831116Y-105891220D01*
X137629114Y-105994147D01*
X137445713Y-106127394D01*
X137445708Y-106127398D01*
X137285398Y-106287708D01*
X137285394Y-106287713D01*
X137214318Y-106385542D01*
X137158988Y-106428208D01*
X137089375Y-106434187D01*
X137027580Y-106401582D01*
X137013682Y-106385542D01*
X136942605Y-106287713D01*
X136942601Y-106287708D01*
X136782291Y-106127398D01*
X136782286Y-106127394D01*
X136598885Y-105994147D01*
X136598884Y-105994146D01*
X136598882Y-105994145D01*
X136534166Y-105961170D01*
X136396883Y-105891220D01*
X136396880Y-105891219D01*
X136181272Y-105821165D01*
X136069312Y-105803432D01*
X135957354Y-105785700D01*
X135730646Y-105785700D01*
X135656007Y-105797521D01*
X135506727Y-105821165D01*
X135291119Y-105891219D01*
X135291116Y-105891220D01*
X135089114Y-105994147D01*
X134905713Y-106127394D01*
X134905708Y-106127398D01*
X134745398Y-106287708D01*
X134745394Y-106287713D01*
X134674318Y-106385542D01*
X134618988Y-106428208D01*
X134549375Y-106434187D01*
X134487580Y-106401582D01*
X134473682Y-106385542D01*
X134402605Y-106287713D01*
X134402601Y-106287708D01*
X134242291Y-106127398D01*
X134242286Y-106127394D01*
X134058885Y-105994147D01*
X134058884Y-105994146D01*
X134058882Y-105994145D01*
X133994166Y-105961170D01*
X133856883Y-105891220D01*
X133856880Y-105891219D01*
X133641272Y-105821165D01*
X133529312Y-105803432D01*
X133417354Y-105785700D01*
X133190646Y-105785700D01*
X133116007Y-105797521D01*
X132966727Y-105821165D01*
X132751119Y-105891219D01*
X132751116Y-105891220D01*
X132549114Y-105994147D01*
X132365713Y-106127394D01*
X132365708Y-106127398D01*
X132205398Y-106287708D01*
X132205394Y-106287713D01*
X132134318Y-106385542D01*
X132078988Y-106428208D01*
X132009375Y-106434187D01*
X131947580Y-106401582D01*
X131933682Y-106385542D01*
X131862605Y-106287713D01*
X131862601Y-106287708D01*
X131702291Y-106127398D01*
X131702286Y-106127394D01*
X131518885Y-105994147D01*
X131518884Y-105994146D01*
X131518882Y-105994145D01*
X131454166Y-105961170D01*
X131316883Y-105891220D01*
X131316880Y-105891219D01*
X131101272Y-105821165D01*
X130989312Y-105803432D01*
X130877354Y-105785700D01*
X130650646Y-105785700D01*
X130576007Y-105797521D01*
X130426727Y-105821165D01*
X130211119Y-105891219D01*
X130211116Y-105891220D01*
X130009114Y-105994147D01*
X129825713Y-106127394D01*
X129825708Y-106127398D01*
X129665398Y-106287708D01*
X129665394Y-106287713D01*
X129594318Y-106385542D01*
X129538988Y-106428208D01*
X129469375Y-106434187D01*
X129407580Y-106401582D01*
X129393682Y-106385542D01*
X129322605Y-106287713D01*
X129322601Y-106287708D01*
X129162291Y-106127398D01*
X129162286Y-106127394D01*
X128978885Y-105994147D01*
X128978884Y-105994146D01*
X128978882Y-105994145D01*
X128914166Y-105961170D01*
X128776883Y-105891220D01*
X128776880Y-105891219D01*
X128561272Y-105821165D01*
X128449312Y-105803432D01*
X128337354Y-105785700D01*
X128110646Y-105785700D01*
X128036007Y-105797521D01*
X127886727Y-105821165D01*
X127671119Y-105891219D01*
X127671116Y-105891220D01*
X127469114Y-105994147D01*
X127285713Y-106127394D01*
X127285708Y-106127398D01*
X127125398Y-106287708D01*
X127125394Y-106287713D01*
X127054318Y-106385542D01*
X126998988Y-106428208D01*
X126929375Y-106434187D01*
X126867580Y-106401582D01*
X126853682Y-106385542D01*
X126782605Y-106287713D01*
X126782601Y-106287708D01*
X126622291Y-106127398D01*
X126622286Y-106127394D01*
X126438885Y-105994147D01*
X126438884Y-105994146D01*
X126438882Y-105994145D01*
X126374166Y-105961170D01*
X126236883Y-105891220D01*
X126236880Y-105891219D01*
X126021272Y-105821165D01*
X125909312Y-105803432D01*
X125797354Y-105785700D01*
X125570646Y-105785700D01*
X125496007Y-105797521D01*
X125346727Y-105821165D01*
X125131119Y-105891219D01*
X125131116Y-105891220D01*
X124929114Y-105994147D01*
X124745713Y-106127394D01*
X124745708Y-106127398D01*
X124585398Y-106287708D01*
X124585394Y-106287713D01*
X124514318Y-106385542D01*
X124458988Y-106428208D01*
X124389375Y-106434187D01*
X124327580Y-106401582D01*
X124313682Y-106385542D01*
X124242605Y-106287713D01*
X124242601Y-106287708D01*
X124082291Y-106127398D01*
X124082286Y-106127394D01*
X123898885Y-105994147D01*
X123898884Y-105994146D01*
X123898882Y-105994145D01*
X123834166Y-105961170D01*
X123696883Y-105891220D01*
X123696880Y-105891219D01*
X123481272Y-105821165D01*
X123369312Y-105803432D01*
X123257354Y-105785700D01*
X123030646Y-105785700D01*
X122956007Y-105797521D01*
X122806727Y-105821165D01*
X122591119Y-105891219D01*
X122591116Y-105891220D01*
X122389114Y-105994147D01*
X122205713Y-106127394D01*
X122205708Y-106127398D01*
X122045398Y-106287708D01*
X122045394Y-106287713D01*
X121974318Y-106385542D01*
X121918988Y-106428208D01*
X121849375Y-106434187D01*
X121787580Y-106401582D01*
X121773682Y-106385542D01*
X121702605Y-106287713D01*
X121702601Y-106287708D01*
X121542291Y-106127398D01*
X121542286Y-106127394D01*
X121358885Y-105994147D01*
X121358884Y-105994146D01*
X121358882Y-105994145D01*
X121294166Y-105961170D01*
X121156883Y-105891220D01*
X121156880Y-105891219D01*
X120941272Y-105821165D01*
X120829312Y-105803432D01*
X120717354Y-105785700D01*
X120490646Y-105785700D01*
X120416007Y-105797521D01*
X120266727Y-105821165D01*
X120051119Y-105891219D01*
X120051116Y-105891220D01*
X119849114Y-105994147D01*
X119665713Y-106127394D01*
X119665708Y-106127398D01*
X119505398Y-106287708D01*
X119505394Y-106287713D01*
X119372147Y-106471114D01*
X119269220Y-106673116D01*
X119269219Y-106673119D01*
X119199165Y-106888727D01*
X119176803Y-107029919D01*
X119163700Y-107112646D01*
X118321465Y-107112646D01*
X118278418Y-106980162D01*
X118189096Y-106804858D01*
X118163678Y-106769873D01*
X118163677Y-106769873D01*
X117602962Y-107330589D01*
X117585925Y-107267007D01*
X117520099Y-107152993D01*
X117427007Y-107059901D01*
X117312993Y-106994075D01*
X117249409Y-106977037D01*
X117810125Y-106416320D01*
X117810125Y-106416319D01*
X117775145Y-106390905D01*
X117599835Y-106301581D01*
X117412705Y-106240778D01*
X117218382Y-106210000D01*
X117021618Y-106210000D01*
X116827294Y-106240778D01*
X116640161Y-106301582D01*
X116464863Y-106390899D01*
X116464859Y-106390902D01*
X116429873Y-106416320D01*
X116429872Y-106416320D01*
X116990590Y-106977037D01*
X116927007Y-106994075D01*
X116812993Y-107059901D01*
X116719901Y-107152993D01*
X116654075Y-107267007D01*
X116637037Y-107330590D01*
X116076320Y-106769872D01*
X116076320Y-106769873D01*
X116050902Y-106804859D01*
X115960484Y-106982315D01*
X115912509Y-107033111D01*
X115844688Y-107049906D01*
X115778553Y-107027369D01*
X115739514Y-106982314D01*
X115649097Y-106804860D01*
X115623678Y-106769873D01*
X115623677Y-106769873D01*
X115062962Y-107330589D01*
X115045925Y-107267007D01*
X114980099Y-107152993D01*
X114887007Y-107059901D01*
X114772993Y-106994075D01*
X114709409Y-106977037D01*
X115270125Y-106416320D01*
X115270125Y-106416319D01*
X115235145Y-106390905D01*
X115059835Y-106301581D01*
X114872705Y-106240778D01*
X114678382Y-106210000D01*
X114481618Y-106210000D01*
X114287294Y-106240778D01*
X114100161Y-106301582D01*
X113924863Y-106390899D01*
X113924859Y-106390902D01*
X113889873Y-106416320D01*
X113889872Y-106416320D01*
X114450590Y-106977037D01*
X114387007Y-106994075D01*
X114272993Y-107059901D01*
X114179901Y-107152993D01*
X114114075Y-107267007D01*
X114097037Y-107330590D01*
X113536320Y-106769872D01*
X113536320Y-106769873D01*
X113510902Y-106804859D01*
X113420484Y-106982315D01*
X113372509Y-107033111D01*
X113304688Y-107049906D01*
X113238553Y-107027369D01*
X113199514Y-106982314D01*
X113109097Y-106804860D01*
X113083678Y-106769873D01*
X113083677Y-106769873D01*
X112522962Y-107330589D01*
X112505925Y-107267007D01*
X112440099Y-107152993D01*
X112347007Y-107059901D01*
X112232993Y-106994075D01*
X112169409Y-106977037D01*
X112730125Y-106416320D01*
X112730125Y-106416319D01*
X112695145Y-106390905D01*
X112519835Y-106301581D01*
X112332705Y-106240778D01*
X112138382Y-106210000D01*
X111941618Y-106210000D01*
X111747294Y-106240778D01*
X111560161Y-106301582D01*
X111384863Y-106390899D01*
X111384859Y-106390902D01*
X111349873Y-106416320D01*
X111349872Y-106416320D01*
X111910590Y-106977037D01*
X111847007Y-106994075D01*
X111732993Y-107059901D01*
X111639901Y-107152993D01*
X111574075Y-107267007D01*
X111557037Y-107330590D01*
X110996320Y-106769872D01*
X110996320Y-106769873D01*
X110970902Y-106804859D01*
X110880484Y-106982315D01*
X110832509Y-107033111D01*
X110764688Y-107049906D01*
X110698553Y-107027369D01*
X110659514Y-106982314D01*
X110569097Y-106804860D01*
X110543678Y-106769873D01*
X110543677Y-106769873D01*
X109982962Y-107330589D01*
X109965925Y-107267007D01*
X109900099Y-107152993D01*
X109807007Y-107059901D01*
X109692993Y-106994075D01*
X109629409Y-106977037D01*
X110190125Y-106416320D01*
X110190125Y-106416319D01*
X110155145Y-106390905D01*
X109979835Y-106301581D01*
X109792705Y-106240778D01*
X109598382Y-106210000D01*
X109401618Y-106210000D01*
X109207294Y-106240778D01*
X109020161Y-106301582D01*
X108844863Y-106390899D01*
X108844859Y-106390902D01*
X108809873Y-106416320D01*
X108809872Y-106416320D01*
X109370590Y-106977037D01*
X109307007Y-106994075D01*
X109192993Y-107059901D01*
X109099901Y-107152993D01*
X109034075Y-107267007D01*
X109017037Y-107330590D01*
X108456320Y-106769872D01*
X108456320Y-106769873D01*
X108430902Y-106804859D01*
X108430899Y-106804863D01*
X108341582Y-106980161D01*
X108280778Y-107167294D01*
X108250000Y-107361617D01*
X108250000Y-107558382D01*
X108280778Y-107752705D01*
X108341581Y-107939835D01*
X108430905Y-108115145D01*
X108456319Y-108150125D01*
X108456320Y-108150125D01*
X109017037Y-107589408D01*
X109034075Y-107652993D01*
X109099901Y-107767007D01*
X109192993Y-107860099D01*
X109307007Y-107925925D01*
X109370590Y-107942962D01*
X108809873Y-108503677D01*
X108809873Y-108503678D01*
X108844858Y-108529096D01*
X109021764Y-108619234D01*
X109072560Y-108667209D01*
X109089355Y-108735030D01*
X109066818Y-108801164D01*
X109021764Y-108840204D01*
X108844594Y-108930476D01*
X108792272Y-108968491D01*
X108685354Y-109046172D01*
X108685352Y-109046174D01*
X108685351Y-109046174D01*
X108546174Y-109185351D01*
X108546174Y-109185352D01*
X108546172Y-109185354D01*
X108496485Y-109253741D01*
X108430476Y-109344594D01*
X108341117Y-109519970D01*
X108280290Y-109707173D01*
X108249500Y-109901577D01*
X81404299Y-109901577D01*
X81404299Y-109766000D01*
X81404299Y-108778329D01*
X81404298Y-108778323D01*
X81404297Y-108778316D01*
X81397891Y-108718717D01*
X81378750Y-108667398D01*
X81347597Y-108583871D01*
X81347595Y-108583868D01*
X81346742Y-108582729D01*
X81337446Y-108570311D01*
X81313029Y-108504848D01*
X81327880Y-108436575D01*
X81337447Y-108421688D01*
X81347596Y-108408131D01*
X81397891Y-108273283D01*
X81404300Y-108213673D01*
X81404299Y-107226000D01*
X81404299Y-106463579D01*
X81404299Y-106238329D01*
X81404298Y-106238323D01*
X81402508Y-106221673D01*
X81397891Y-106178717D01*
X81396031Y-106173731D01*
X81347597Y-106043871D01*
X81347593Y-106043864D01*
X81261347Y-105928655D01*
X81261344Y-105928652D01*
X81146135Y-105842406D01*
X81146128Y-105842402D01*
X81011282Y-105792108D01*
X81011283Y-105792108D01*
X80951683Y-105785701D01*
X80951681Y-105785700D01*
X80951673Y-105785700D01*
X80951664Y-105785700D01*
X78976329Y-105785700D01*
X78976323Y-105785701D01*
X78916716Y-105792108D01*
X78781871Y-105842402D01*
X78781864Y-105842406D01*
X78666655Y-105928652D01*
X78666652Y-105928655D01*
X78580406Y-106043864D01*
X78580402Y-106043872D01*
X78565887Y-106082787D01*
X78524015Y-106138719D01*
X78458550Y-106163135D01*
X78390277Y-106148282D01*
X78366227Y-106130277D01*
X78365989Y-106130557D01*
X78362286Y-106127394D01*
X78178885Y-105994147D01*
X78178884Y-105994146D01*
X78178882Y-105994145D01*
X78114166Y-105961170D01*
X77976883Y-105891220D01*
X77976880Y-105891219D01*
X77761272Y-105821165D01*
X77649312Y-105803432D01*
X77537354Y-105785700D01*
X77310646Y-105785700D01*
X77236007Y-105797521D01*
X77086727Y-105821165D01*
X76871119Y-105891219D01*
X76871116Y-105891220D01*
X76669114Y-105994147D01*
X76485713Y-106127394D01*
X76485708Y-106127398D01*
X76325398Y-106287708D01*
X76325394Y-106287713D01*
X76254318Y-106385542D01*
X76198988Y-106428208D01*
X76129375Y-106434187D01*
X76067580Y-106401582D01*
X76053682Y-106385542D01*
X75982605Y-106287713D01*
X75982601Y-106287708D01*
X75822291Y-106127398D01*
X75822286Y-106127394D01*
X75638885Y-105994147D01*
X75638884Y-105994146D01*
X75638882Y-105994145D01*
X75574166Y-105961170D01*
X75436883Y-105891220D01*
X75436880Y-105891219D01*
X75221272Y-105821165D01*
X75109312Y-105803432D01*
X74997354Y-105785700D01*
X74770646Y-105785700D01*
X74696007Y-105797521D01*
X74546727Y-105821165D01*
X74331119Y-105891219D01*
X74331116Y-105891220D01*
X74129114Y-105994147D01*
X73945713Y-106127394D01*
X73945708Y-106127398D01*
X73785398Y-106287708D01*
X73785394Y-106287713D01*
X73714318Y-106385542D01*
X73658988Y-106428208D01*
X73589375Y-106434187D01*
X73527580Y-106401582D01*
X73513682Y-106385542D01*
X73442605Y-106287713D01*
X73442601Y-106287708D01*
X73282291Y-106127398D01*
X73282286Y-106127394D01*
X73098885Y-105994147D01*
X73098884Y-105994146D01*
X73098882Y-105994145D01*
X73034166Y-105961170D01*
X72896883Y-105891220D01*
X72896880Y-105891219D01*
X72681272Y-105821165D01*
X72569312Y-105803432D01*
X72457354Y-105785700D01*
X72230646Y-105785700D01*
X72156007Y-105797521D01*
X72006727Y-105821165D01*
X71791119Y-105891219D01*
X71791116Y-105891220D01*
X71589114Y-105994147D01*
X71405713Y-106127394D01*
X71405708Y-106127398D01*
X71245398Y-106287708D01*
X71245394Y-106287713D01*
X71174318Y-106385542D01*
X71118988Y-106428208D01*
X71049375Y-106434187D01*
X70987580Y-106401582D01*
X70973682Y-106385542D01*
X70902605Y-106287713D01*
X70902601Y-106287708D01*
X70742291Y-106127398D01*
X70742286Y-106127394D01*
X70558885Y-105994147D01*
X70558884Y-105994146D01*
X70558882Y-105994145D01*
X70494166Y-105961170D01*
X70356883Y-105891220D01*
X70356880Y-105891219D01*
X70141272Y-105821165D01*
X70029312Y-105803432D01*
X69917354Y-105785700D01*
X69690646Y-105785700D01*
X69616007Y-105797521D01*
X69466727Y-105821165D01*
X69251119Y-105891219D01*
X69251116Y-105891220D01*
X69049114Y-105994147D01*
X68865713Y-106127394D01*
X68865708Y-106127398D01*
X68705398Y-106287708D01*
X68705394Y-106287713D01*
X68634318Y-106385542D01*
X68578988Y-106428208D01*
X68509375Y-106434187D01*
X68447580Y-106401582D01*
X68433682Y-106385542D01*
X68362605Y-106287713D01*
X68362601Y-106287708D01*
X68202291Y-106127398D01*
X68202286Y-106127394D01*
X68018885Y-105994147D01*
X68018884Y-105994146D01*
X68018882Y-105994145D01*
X67954166Y-105961170D01*
X67816883Y-105891220D01*
X67816880Y-105891219D01*
X67601272Y-105821165D01*
X67489312Y-105803432D01*
X67377354Y-105785700D01*
X67150646Y-105785700D01*
X67076007Y-105797521D01*
X66926727Y-105821165D01*
X66711119Y-105891219D01*
X66711116Y-105891220D01*
X66509114Y-105994147D01*
X66325713Y-106127394D01*
X66325708Y-106127398D01*
X66165398Y-106287708D01*
X66165394Y-106287713D01*
X66094318Y-106385542D01*
X66038988Y-106428208D01*
X65969375Y-106434187D01*
X65907580Y-106401582D01*
X65893682Y-106385542D01*
X65822605Y-106287713D01*
X65822601Y-106287708D01*
X65662291Y-106127398D01*
X65662286Y-106127394D01*
X65478885Y-105994147D01*
X65478884Y-105994146D01*
X65478882Y-105994145D01*
X65414166Y-105961170D01*
X65276883Y-105891220D01*
X65276880Y-105891219D01*
X65061272Y-105821165D01*
X64949312Y-105803432D01*
X64837354Y-105785700D01*
X64610646Y-105785700D01*
X64536007Y-105797521D01*
X64386727Y-105821165D01*
X64171119Y-105891219D01*
X64171116Y-105891220D01*
X63969114Y-105994147D01*
X63785713Y-106127394D01*
X63785708Y-106127398D01*
X63625398Y-106287708D01*
X63625394Y-106287713D01*
X63554318Y-106385542D01*
X63498988Y-106428208D01*
X63429375Y-106434187D01*
X63367580Y-106401582D01*
X63353682Y-106385542D01*
X63282605Y-106287713D01*
X63282601Y-106287708D01*
X63122291Y-106127398D01*
X63122286Y-106127394D01*
X62938885Y-105994147D01*
X62938884Y-105994146D01*
X62938882Y-105994145D01*
X62874166Y-105961170D01*
X62736883Y-105891220D01*
X62736880Y-105891219D01*
X62521272Y-105821165D01*
X62409312Y-105803432D01*
X62297354Y-105785700D01*
X62070646Y-105785700D01*
X61996007Y-105797521D01*
X61846727Y-105821165D01*
X61631119Y-105891219D01*
X61631116Y-105891220D01*
X61429114Y-105994147D01*
X61245713Y-106127394D01*
X61245708Y-106127398D01*
X61085398Y-106287708D01*
X61085394Y-106287713D01*
X61014318Y-106385542D01*
X60958988Y-106428208D01*
X60889375Y-106434187D01*
X60827580Y-106401582D01*
X60813682Y-106385542D01*
X60742605Y-106287713D01*
X60742601Y-106287708D01*
X60582291Y-106127398D01*
X60582286Y-106127394D01*
X60398885Y-105994147D01*
X60398884Y-105994146D01*
X60398882Y-105994145D01*
X60334166Y-105961170D01*
X60196883Y-105891220D01*
X60196880Y-105891219D01*
X59981272Y-105821165D01*
X59869312Y-105803432D01*
X59757354Y-105785700D01*
X59530646Y-105785700D01*
X59456007Y-105797521D01*
X59306727Y-105821165D01*
X59091119Y-105891219D01*
X59091116Y-105891220D01*
X58889114Y-105994147D01*
X58705713Y-106127394D01*
X58705708Y-106127398D01*
X58545398Y-106287708D01*
X58545394Y-106287713D01*
X58474318Y-106385542D01*
X58418988Y-106428208D01*
X58349375Y-106434187D01*
X58287580Y-106401582D01*
X58273682Y-106385542D01*
X58202605Y-106287713D01*
X58202601Y-106287708D01*
X58042291Y-106127398D01*
X58042286Y-106127394D01*
X57858885Y-105994147D01*
X57858884Y-105994146D01*
X57858882Y-105994145D01*
X57794166Y-105961170D01*
X57656883Y-105891220D01*
X57656880Y-105891219D01*
X57441272Y-105821165D01*
X57329312Y-105803432D01*
X57217354Y-105785700D01*
X56990646Y-105785700D01*
X56916007Y-105797521D01*
X56766727Y-105821165D01*
X56551119Y-105891219D01*
X56551116Y-105891220D01*
X56349114Y-105994147D01*
X56165713Y-106127394D01*
X56165708Y-106127398D01*
X56005398Y-106287708D01*
X56005394Y-106287713D01*
X55872147Y-106471114D01*
X55769220Y-106673116D01*
X55769219Y-106673119D01*
X55699165Y-106888727D01*
X55676803Y-107029919D01*
X55663700Y-107112646D01*
X53283777Y-107112646D01*
X53254924Y-106930479D01*
X53254924Y-106930476D01*
X53193542Y-106741562D01*
X53103358Y-106564567D01*
X53076268Y-106527283D01*
X52513494Y-107090057D01*
X52497381Y-107029919D01*
X52430502Y-106914080D01*
X52335920Y-106819498D01*
X52220081Y-106752619D01*
X52159942Y-106736504D01*
X52722716Y-106173731D01*
X52722715Y-106173730D01*
X52685432Y-106146641D01*
X52508437Y-106056457D01*
X52319522Y-105995075D01*
X52123321Y-105964000D01*
X51924679Y-105964000D01*
X51728479Y-105995075D01*
X51728476Y-105995075D01*
X51539562Y-106056457D01*
X51362564Y-106146643D01*
X51325283Y-106173729D01*
X51325282Y-106173730D01*
X51888058Y-106736504D01*
X51827919Y-106752619D01*
X51712080Y-106819498D01*
X51617498Y-106914080D01*
X51550619Y-107029919D01*
X51534504Y-107090057D01*
X50971730Y-106527282D01*
X50971729Y-106527283D01*
X50944643Y-106564564D01*
X50864485Y-106721882D01*
X50816510Y-106772678D01*
X50748689Y-106789473D01*
X50682554Y-106766935D01*
X50643515Y-106721882D01*
X50563358Y-106564567D01*
X50536268Y-106527283D01*
X49973494Y-107090057D01*
X49957381Y-107029919D01*
X49890502Y-106914080D01*
X49795920Y-106819498D01*
X49680081Y-106752619D01*
X49619942Y-106736504D01*
X50182716Y-106173731D01*
X50182715Y-106173730D01*
X50145432Y-106146641D01*
X49968437Y-106056457D01*
X49779522Y-105995075D01*
X49583321Y-105964000D01*
X49384679Y-105964000D01*
X49188479Y-105995075D01*
X49188476Y-105995075D01*
X48999562Y-106056457D01*
X48822564Y-106146643D01*
X48785283Y-106173729D01*
X48785282Y-106173730D01*
X49348058Y-106736504D01*
X49287919Y-106752619D01*
X49172080Y-106819498D01*
X49077498Y-106914080D01*
X49010619Y-107029919D01*
X48994504Y-107090057D01*
X48431730Y-106527282D01*
X48431728Y-106527283D01*
X48430817Y-106528538D01*
X48375487Y-106571204D01*
X48305874Y-106577183D01*
X48244079Y-106544577D01*
X48209722Y-106483739D01*
X48209077Y-106480806D01*
X48206499Y-106468361D01*
X48206499Y-106416128D01*
X48200091Y-106356517D01*
X48162389Y-106255434D01*
X48162389Y-106255431D01*
X48149798Y-106221673D01*
X48149793Y-106221664D01*
X48063547Y-106106455D01*
X48063544Y-106106452D01*
X47948335Y-106020206D01*
X47948328Y-106020202D01*
X47813482Y-105969908D01*
X47813483Y-105969908D01*
X47753883Y-105963501D01*
X47753881Y-105963500D01*
X47753873Y-105963500D01*
X47753864Y-105963500D01*
X46134129Y-105963500D01*
X46134123Y-105963501D01*
X46074516Y-105969908D01*
X45939671Y-106020202D01*
X45939664Y-106020206D01*
X45824455Y-106106452D01*
X45824452Y-106106455D01*
X45738206Y-106221664D01*
X45738202Y-106221671D01*
X45687908Y-106356517D01*
X45681501Y-106416116D01*
X45681500Y-106416135D01*
X45000500Y-106416135D01*
X45000500Y-103295530D01*
X46376000Y-103295530D01*
X46376000Y-103536469D01*
X46407447Y-103775341D01*
X46469808Y-104008073D01*
X46562006Y-104230662D01*
X46562011Y-104230671D01*
X46682480Y-104439329D01*
X46682483Y-104439334D01*
X46682485Y-104439336D01*
X46829151Y-104630476D01*
X46829157Y-104630483D01*
X46999516Y-104800842D01*
X46999522Y-104800847D01*
X47190671Y-104947520D01*
X47399329Y-105067989D01*
X47399332Y-105067990D01*
X47399337Y-105067993D01*
X47519424Y-105117734D01*
X47621927Y-105160192D01*
X47854655Y-105222552D01*
X48033812Y-105246138D01*
X48093530Y-105254000D01*
X48093531Y-105254000D01*
X48334470Y-105254000D01*
X48382244Y-105247710D01*
X48573345Y-105222552D01*
X48806073Y-105160192D01*
X48981053Y-105087712D01*
X49028662Y-105067993D01*
X49028663Y-105067991D01*
X49028671Y-105067989D01*
X49237329Y-104947520D01*
X49428478Y-104800847D01*
X49598847Y-104630478D01*
X49745520Y-104439329D01*
X49865989Y-104230671D01*
X49958192Y-104008073D01*
X50020552Y-103775345D01*
X50052000Y-103536469D01*
X50052000Y-103295531D01*
X50052000Y-103295530D01*
X170836000Y-103295530D01*
X170836000Y-103536469D01*
X170867447Y-103775341D01*
X170929808Y-104008073D01*
X171022006Y-104230662D01*
X171022011Y-104230671D01*
X171142480Y-104439329D01*
X171142483Y-104439334D01*
X171142485Y-104439336D01*
X171289151Y-104630476D01*
X171289157Y-104630483D01*
X171459516Y-104800842D01*
X171459522Y-104800847D01*
X171650671Y-104947520D01*
X171859329Y-105067989D01*
X171859332Y-105067990D01*
X171859337Y-105067993D01*
X171979424Y-105117734D01*
X172081927Y-105160192D01*
X172314655Y-105222552D01*
X172493812Y-105246138D01*
X172553530Y-105254000D01*
X172553531Y-105254000D01*
X172794470Y-105254000D01*
X172842244Y-105247710D01*
X173033345Y-105222552D01*
X173266073Y-105160192D01*
X173441053Y-105087712D01*
X173488662Y-105067993D01*
X173488663Y-105067991D01*
X173488671Y-105067989D01*
X173697329Y-104947520D01*
X173888478Y-104800847D01*
X174058847Y-104630478D01*
X174205520Y-104439329D01*
X174325989Y-104230671D01*
X174418192Y-104008073D01*
X174480552Y-103775345D01*
X174512000Y-103536469D01*
X174512000Y-103295531D01*
X174480552Y-103056655D01*
X174418192Y-102823927D01*
X174375734Y-102721424D01*
X174325993Y-102601337D01*
X174325988Y-102601328D01*
X174205520Y-102392671D01*
X174134795Y-102300500D01*
X174058848Y-102201523D01*
X174058842Y-102201516D01*
X173888483Y-102031157D01*
X173888476Y-102031151D01*
X173697336Y-101884485D01*
X173697334Y-101884483D01*
X173697329Y-101884480D01*
X173488671Y-101764011D01*
X173488662Y-101764006D01*
X173266073Y-101671808D01*
X173033341Y-101609447D01*
X172794470Y-101578000D01*
X172794469Y-101578000D01*
X172553531Y-101578000D01*
X172553530Y-101578000D01*
X172314658Y-101609447D01*
X172081926Y-101671808D01*
X171859337Y-101764006D01*
X171859328Y-101764011D01*
X171733644Y-101836575D01*
X171650671Y-101884480D01*
X171650668Y-101884481D01*
X171650663Y-101884485D01*
X171459523Y-102031151D01*
X171459516Y-102031157D01*
X171289157Y-102201516D01*
X171289151Y-102201523D01*
X171142485Y-102392663D01*
X171022011Y-102601328D01*
X171022006Y-102601337D01*
X170929808Y-102823926D01*
X170867447Y-103056658D01*
X170836000Y-103295530D01*
X50052000Y-103295530D01*
X50020552Y-103056655D01*
X49958192Y-102823927D01*
X49915734Y-102721424D01*
X49865993Y-102601337D01*
X49865988Y-102601328D01*
X49745520Y-102392671D01*
X49674795Y-102300500D01*
X49598848Y-102201523D01*
X49598842Y-102201516D01*
X49428483Y-102031157D01*
X49428476Y-102031151D01*
X49237336Y-101884485D01*
X49237334Y-101884483D01*
X49237329Y-101884480D01*
X49028671Y-101764011D01*
X49028662Y-101764006D01*
X48806073Y-101671808D01*
X48573341Y-101609447D01*
X48334470Y-101578000D01*
X48334469Y-101578000D01*
X48093531Y-101578000D01*
X48093530Y-101578000D01*
X47854658Y-101609447D01*
X47621926Y-101671808D01*
X47399337Y-101764006D01*
X47399328Y-101764011D01*
X47273644Y-101836575D01*
X47190671Y-101884480D01*
X47190668Y-101884481D01*
X47190663Y-101884485D01*
X46999523Y-102031151D01*
X46999516Y-102031157D01*
X46829157Y-102201516D01*
X46829151Y-102201523D01*
X46682485Y-102392663D01*
X46562011Y-102601328D01*
X46562006Y-102601337D01*
X46469808Y-102823926D01*
X46407447Y-103056658D01*
X46376000Y-103295530D01*
X45000500Y-103295530D01*
X45000500Y-91763135D01*
X49168500Y-91763135D01*
X49168500Y-93128870D01*
X49168501Y-93128876D01*
X49174908Y-93188483D01*
X49225202Y-93323328D01*
X49225206Y-93323335D01*
X49311452Y-93438544D01*
X49311455Y-93438547D01*
X49426664Y-93524793D01*
X49426671Y-93524797D01*
X49561517Y-93575091D01*
X49561516Y-93575091D01*
X49568444Y-93575835D01*
X49621127Y-93581500D01*
X50986872Y-93581499D01*
X51046483Y-93575091D01*
X51181331Y-93524796D01*
X51296546Y-93438546D01*
X51382796Y-93323331D01*
X51382798Y-93323326D01*
X51385249Y-93316756D01*
X51385249Y-93316755D01*
X51433091Y-93188482D01*
X51433387Y-93185728D01*
X51439500Y-93128873D01*
X51439499Y-92356668D01*
X51709000Y-92356668D01*
X51709000Y-92535331D01*
X51736946Y-92711780D01*
X51792155Y-92881693D01*
X51873260Y-93040869D01*
X51882651Y-93053793D01*
X51882652Y-93053794D01*
X52463000Y-92473446D01*
X52463000Y-92496160D01*
X52488964Y-92593061D01*
X52539124Y-92679940D01*
X52610060Y-92750876D01*
X52696939Y-92801036D01*
X52793840Y-92827000D01*
X52816554Y-92827000D01*
X52236205Y-93407347D01*
X52236205Y-93407348D01*
X52249129Y-93416738D01*
X52408306Y-93497844D01*
X52578219Y-93553053D01*
X52754669Y-93581000D01*
X52933331Y-93581000D01*
X53109780Y-93553053D01*
X53279693Y-93497844D01*
X53438867Y-93416739D01*
X53438872Y-93416737D01*
X53451794Y-93407347D01*
X52871447Y-92827000D01*
X52894160Y-92827000D01*
X52991061Y-92801036D01*
X53077940Y-92750876D01*
X53148876Y-92679940D01*
X53199036Y-92593061D01*
X53225000Y-92496160D01*
X53225000Y-92473446D01*
X53805348Y-93053794D01*
X53814737Y-93040872D01*
X53814739Y-93040867D01*
X53895844Y-92881693D01*
X53951053Y-92711780D01*
X53979000Y-92535331D01*
X53979000Y-92356668D01*
X53978995Y-92356634D01*
X59328500Y-92356634D01*
X59328500Y-92535365D01*
X59356460Y-92711898D01*
X59356460Y-92711901D01*
X59411689Y-92881878D01*
X59411691Y-92881881D01*
X59492833Y-93041132D01*
X59597889Y-93185728D01*
X59724272Y-93312111D01*
X59868868Y-93417167D01*
X60028119Y-93498309D01*
X60028121Y-93498310D01*
X60186670Y-93549825D01*
X60198103Y-93553540D01*
X60374634Y-93581500D01*
X60374635Y-93581500D01*
X60553365Y-93581500D01*
X60553366Y-93581500D01*
X60729897Y-93553540D01*
X60729900Y-93553539D01*
X60729901Y-93553539D01*
X60899878Y-93498310D01*
X60899878Y-93498309D01*
X60899881Y-93498309D01*
X61059132Y-93417167D01*
X61203728Y-93312111D01*
X61330111Y-93185728D01*
X61435167Y-93041132D01*
X61516309Y-92881881D01*
X61523025Y-92861211D01*
X61571539Y-92711901D01*
X61571539Y-92711900D01*
X61571540Y-92711897D01*
X61599500Y-92535366D01*
X61599500Y-92356634D01*
X64408500Y-92356634D01*
X64408500Y-92535365D01*
X64436460Y-92711898D01*
X64436460Y-92711901D01*
X64491689Y-92881878D01*
X64491691Y-92881881D01*
X64572833Y-93041132D01*
X64677889Y-93185728D01*
X64804272Y-93312111D01*
X64948868Y-93417167D01*
X65108119Y-93498309D01*
X65108121Y-93498310D01*
X65266670Y-93549825D01*
X65278103Y-93553540D01*
X65454634Y-93581500D01*
X65454635Y-93581500D01*
X65633365Y-93581500D01*
X65633366Y-93581500D01*
X65809897Y-93553540D01*
X65809900Y-93553539D01*
X65809901Y-93553539D01*
X65979878Y-93498310D01*
X65979878Y-93498309D01*
X65979881Y-93498309D01*
X66139132Y-93417167D01*
X66283728Y-93312111D01*
X66410111Y-93185728D01*
X66515167Y-93041132D01*
X66596309Y-92881881D01*
X66603025Y-92861211D01*
X66651539Y-92711901D01*
X66651539Y-92711900D01*
X66651540Y-92711897D01*
X66679500Y-92535366D01*
X66679500Y-92356634D01*
X66651540Y-92180103D01*
X66651539Y-92180099D01*
X66651539Y-92180098D01*
X66596310Y-92010121D01*
X66596308Y-92010118D01*
X66515300Y-91851129D01*
X66515167Y-91850868D01*
X66410111Y-91706272D01*
X66283728Y-91579889D01*
X66139132Y-91474833D01*
X65979881Y-91393691D01*
X65979878Y-91393689D01*
X65809899Y-91338460D01*
X65673824Y-91316908D01*
X65633366Y-91310500D01*
X65454634Y-91310500D01*
X65414176Y-91316908D01*
X65278101Y-91338460D01*
X65278098Y-91338460D01*
X65108121Y-91393689D01*
X65108118Y-91393691D01*
X64948867Y-91474833D01*
X64804270Y-91579890D01*
X64677890Y-91706270D01*
X64572833Y-91850867D01*
X64491691Y-92010118D01*
X64491689Y-92010121D01*
X64436460Y-92180098D01*
X64436460Y-92180101D01*
X64408500Y-92356634D01*
X61599500Y-92356634D01*
X61571540Y-92180103D01*
X61571539Y-92180099D01*
X61571539Y-92180098D01*
X61516310Y-92010121D01*
X61516308Y-92010118D01*
X61435300Y-91851129D01*
X61435167Y-91850868D01*
X61330111Y-91706272D01*
X61203728Y-91579889D01*
X61059132Y-91474833D01*
X60899881Y-91393691D01*
X60899878Y-91393689D01*
X60729899Y-91338460D01*
X60593824Y-91316908D01*
X60553366Y-91310500D01*
X60374634Y-91310500D01*
X60334176Y-91316908D01*
X60198101Y-91338460D01*
X60198098Y-91338460D01*
X60028121Y-91393689D01*
X60028118Y-91393691D01*
X59868867Y-91474833D01*
X59724270Y-91579890D01*
X59597890Y-91706270D01*
X59492833Y-91850867D01*
X59411691Y-92010118D01*
X59411689Y-92010121D01*
X59356460Y-92180098D01*
X59356460Y-92180101D01*
X59328500Y-92356634D01*
X53978995Y-92356634D01*
X53951053Y-92180219D01*
X53895844Y-92010306D01*
X53814738Y-91851129D01*
X53805347Y-91838205D01*
X53225000Y-92418552D01*
X53225000Y-92395840D01*
X53199036Y-92298939D01*
X53148876Y-92212060D01*
X53077940Y-92141124D01*
X52991061Y-92090964D01*
X52894160Y-92065000D01*
X52871447Y-92065000D01*
X53451794Y-91484652D01*
X53451793Y-91484651D01*
X53438869Y-91475260D01*
X53279693Y-91394155D01*
X53109780Y-91338946D01*
X52933331Y-91311000D01*
X52754669Y-91311000D01*
X52578219Y-91338946D01*
X52408306Y-91394155D01*
X52249127Y-91475262D01*
X52236205Y-91484651D01*
X52236204Y-91484651D01*
X52816554Y-92065000D01*
X52793840Y-92065000D01*
X52696939Y-92090964D01*
X52610060Y-92141124D01*
X52539124Y-92212060D01*
X52488964Y-92298939D01*
X52463000Y-92395840D01*
X52463000Y-92418553D01*
X51882651Y-91838204D01*
X51882651Y-91838205D01*
X51873262Y-91851127D01*
X51792155Y-92010306D01*
X51736946Y-92180219D01*
X51709000Y-92356668D01*
X51439499Y-92356668D01*
X51439499Y-91763128D01*
X51433091Y-91703517D01*
X51421844Y-91673363D01*
X51385248Y-91575243D01*
X51385247Y-91575241D01*
X51382796Y-91568669D01*
X51382793Y-91568666D01*
X51382793Y-91568664D01*
X51296547Y-91453455D01*
X51296544Y-91453452D01*
X51181335Y-91367206D01*
X51181328Y-91367202D01*
X51046482Y-91316908D01*
X51046483Y-91316908D01*
X50986883Y-91310501D01*
X50986881Y-91310500D01*
X50986873Y-91310500D01*
X50986864Y-91310500D01*
X49621129Y-91310500D01*
X49621123Y-91310501D01*
X49561516Y-91316908D01*
X49426671Y-91367202D01*
X49426664Y-91367206D01*
X49311455Y-91453452D01*
X49311452Y-91453455D01*
X49225206Y-91568664D01*
X49225202Y-91568671D01*
X49174908Y-91703517D01*
X49168501Y-91763116D01*
X49168501Y-91763123D01*
X49168500Y-91763135D01*
X45000500Y-91763135D01*
X45000500Y-87198135D01*
X88785720Y-87198135D01*
X88785720Y-89693870D01*
X88785721Y-89693876D01*
X88792128Y-89753483D01*
X88842422Y-89888328D01*
X88842426Y-89888335D01*
X88928672Y-90003544D01*
X88928675Y-90003547D01*
X89043884Y-90089793D01*
X89043891Y-90089797D01*
X89178737Y-90140091D01*
X89178736Y-90140091D01*
X89185664Y-90140835D01*
X89238347Y-90146500D01*
X91734092Y-90146499D01*
X91793703Y-90140091D01*
X91928551Y-90089796D01*
X92043766Y-90003546D01*
X92130016Y-89888331D01*
X92180311Y-89753483D01*
X92186720Y-89693873D01*
X92186719Y-88334575D01*
X96286220Y-88334575D01*
X96286220Y-88557424D01*
X96315305Y-88778354D01*
X96315308Y-88778367D01*
X96372983Y-88993618D01*
X96458265Y-89199502D01*
X96458274Y-89199520D01*
X96569684Y-89392491D01*
X96569693Y-89392504D01*
X96620260Y-89458403D01*
X96620263Y-89458403D01*
X97421607Y-88657059D01*
X97427109Y-88677591D01*
X97506101Y-88814408D01*
X97617812Y-88926119D01*
X97754629Y-89005111D01*
X97775160Y-89010612D01*
X96973815Y-89811955D01*
X96973815Y-89811956D01*
X97039727Y-89862533D01*
X97232705Y-89973949D01*
X97232717Y-89973954D01*
X97438601Y-90059236D01*
X97653852Y-90116911D01*
X97653865Y-90116914D01*
X97874795Y-90146000D01*
X98097645Y-90146000D01*
X98318574Y-90116914D01*
X98318587Y-90116911D01*
X98533838Y-90059236D01*
X98739722Y-89973954D01*
X98739734Y-89973949D01*
X98932718Y-89862530D01*
X98998623Y-89811957D01*
X98998624Y-89811956D01*
X98197279Y-89010612D01*
X98217811Y-89005111D01*
X98354628Y-88926119D01*
X98466339Y-88814408D01*
X98545331Y-88677591D01*
X98550832Y-88657059D01*
X99352176Y-89458404D01*
X99352177Y-89458403D01*
X99402750Y-89392498D01*
X99514169Y-89199514D01*
X99514174Y-89199502D01*
X99599456Y-88993618D01*
X99657131Y-88778367D01*
X99657134Y-88778354D01*
X99686220Y-88557424D01*
X99686220Y-88334575D01*
X99657134Y-88113645D01*
X99657131Y-88113632D01*
X99599456Y-87898381D01*
X99514174Y-87692497D01*
X99514169Y-87692485D01*
X99402753Y-87499507D01*
X99352176Y-87433595D01*
X99352175Y-87433595D01*
X98550832Y-88234939D01*
X98545331Y-88214409D01*
X98466339Y-88077592D01*
X98354628Y-87965881D01*
X98217811Y-87886889D01*
X98197278Y-87881387D01*
X98998623Y-87080043D01*
X98998623Y-87080040D01*
X98932724Y-87029473D01*
X98932711Y-87029464D01*
X98739740Y-86918054D01*
X98739722Y-86918045D01*
X98533838Y-86832763D01*
X98318587Y-86775088D01*
X98318574Y-86775085D01*
X98097645Y-86746000D01*
X97874795Y-86746000D01*
X97653865Y-86775085D01*
X97653852Y-86775088D01*
X97438601Y-86832763D01*
X97232717Y-86918045D01*
X97232699Y-86918054D01*
X97039731Y-87029462D01*
X96973815Y-87080042D01*
X97775161Y-87881387D01*
X97754629Y-87886889D01*
X97617812Y-87965881D01*
X97506101Y-88077592D01*
X97427109Y-88214409D01*
X97421607Y-88234940D01*
X96620262Y-87433595D01*
X96569682Y-87499511D01*
X96458274Y-87692479D01*
X96458265Y-87692497D01*
X96372983Y-87898381D01*
X96315308Y-88113632D01*
X96315305Y-88113645D01*
X96286220Y-88334575D01*
X92186719Y-88334575D01*
X92186719Y-87198128D01*
X92180605Y-87141248D01*
X92180605Y-87141246D01*
X92180312Y-87138519D01*
X92130017Y-87003671D01*
X92130013Y-87003664D01*
X92043767Y-86888455D01*
X92043764Y-86888452D01*
X91928555Y-86802206D01*
X91928548Y-86802202D01*
X91793702Y-86751908D01*
X91793703Y-86751908D01*
X91734103Y-86745501D01*
X91734101Y-86745500D01*
X91734093Y-86745500D01*
X91734084Y-86745500D01*
X89238349Y-86745500D01*
X89238343Y-86745501D01*
X89178736Y-86751908D01*
X89043891Y-86802202D01*
X89043884Y-86802206D01*
X88928675Y-86888452D01*
X88928672Y-86888455D01*
X88842426Y-87003664D01*
X88842422Y-87003671D01*
X88792128Y-87138517D01*
X88785721Y-87198116D01*
X88785721Y-87198123D01*
X88785720Y-87198135D01*
X45000500Y-87198135D01*
X45000500Y-86406636D01*
X155813700Y-86406636D01*
X155813700Y-86593363D01*
X155842891Y-86777672D01*
X155842911Y-86777793D01*
X155900613Y-86955381D01*
X155985385Y-87121757D01*
X156095141Y-87272822D01*
X156227178Y-87404859D01*
X156378243Y-87514615D01*
X156544619Y-87599387D01*
X156706758Y-87652069D01*
X156764434Y-87691507D01*
X156791632Y-87755865D01*
X156779717Y-87824712D01*
X156732473Y-87876187D01*
X156706760Y-87887929D01*
X156544619Y-87940613D01*
X156544616Y-87940614D01*
X156378242Y-88025385D01*
X156227176Y-88135142D01*
X156095142Y-88267176D01*
X155985385Y-88418242D01*
X155900614Y-88584616D01*
X155842910Y-88762210D01*
X155834643Y-88814408D01*
X155813700Y-88946636D01*
X155813700Y-89133364D01*
X155842911Y-89317793D01*
X155900613Y-89495381D01*
X155985385Y-89661757D01*
X156095141Y-89812822D01*
X156227178Y-89944859D01*
X156378243Y-90054615D01*
X156544619Y-90139387D01*
X156706758Y-90192069D01*
X156764434Y-90231507D01*
X156791632Y-90295865D01*
X156779717Y-90364712D01*
X156732473Y-90416187D01*
X156706760Y-90427929D01*
X156544619Y-90480613D01*
X156544616Y-90480614D01*
X156378242Y-90565385D01*
X156227176Y-90675142D01*
X156095142Y-90807176D01*
X155985385Y-90958242D01*
X155900614Y-91124616D01*
X155842910Y-91302210D01*
X155813700Y-91486636D01*
X155813700Y-91673363D01*
X155841855Y-91851129D01*
X155842911Y-91857793D01*
X155900613Y-92035381D01*
X155985385Y-92201757D01*
X156095141Y-92352822D01*
X156227178Y-92484859D01*
X156378243Y-92594615D01*
X156544619Y-92679387D01*
X156706758Y-92732069D01*
X156764434Y-92771507D01*
X156791632Y-92835865D01*
X156779717Y-92904712D01*
X156732473Y-92956187D01*
X156706760Y-92967929D01*
X156544619Y-93020613D01*
X156544616Y-93020614D01*
X156378242Y-93105385D01*
X156227176Y-93215142D01*
X156095142Y-93347176D01*
X155985385Y-93498242D01*
X155900614Y-93664616D01*
X155842910Y-93842210D01*
X155813700Y-94026636D01*
X155813700Y-94213364D01*
X155842911Y-94397793D01*
X155900613Y-94575381D01*
X155985385Y-94741757D01*
X156095141Y-94892822D01*
X156227178Y-95024859D01*
X156378243Y-95134615D01*
X156544619Y-95219387D01*
X156722207Y-95277089D01*
X156906636Y-95306300D01*
X156906637Y-95306300D01*
X157093363Y-95306300D01*
X157093364Y-95306300D01*
X157277793Y-95277089D01*
X157455381Y-95219387D01*
X157621757Y-95134615D01*
X157772822Y-95024859D01*
X157904859Y-94892822D01*
X158014615Y-94741757D01*
X158099387Y-94575381D01*
X158157089Y-94397793D01*
X158186300Y-94213364D01*
X158186300Y-94026636D01*
X158157089Y-93842207D01*
X158099387Y-93664619D01*
X158014615Y-93498243D01*
X157904859Y-93347178D01*
X157772822Y-93215141D01*
X157621757Y-93105385D01*
X157455381Y-93020613D01*
X157293239Y-92967929D01*
X157235566Y-92928494D01*
X157208367Y-92864135D01*
X157220282Y-92795289D01*
X157267526Y-92743813D01*
X157293236Y-92732071D01*
X157455381Y-92679387D01*
X157621757Y-92594615D01*
X157772822Y-92484859D01*
X157904859Y-92352822D01*
X158014615Y-92201757D01*
X158099387Y-92035381D01*
X158157089Y-91857793D01*
X158186300Y-91673364D01*
X158186300Y-91486636D01*
X158157089Y-91302207D01*
X158099387Y-91124619D01*
X158014615Y-90958243D01*
X157904859Y-90807178D01*
X157772822Y-90675141D01*
X157621757Y-90565385D01*
X157455381Y-90480613D01*
X157293239Y-90427929D01*
X157235566Y-90388494D01*
X157208367Y-90324135D01*
X157220282Y-90255289D01*
X157267526Y-90203813D01*
X157293236Y-90192071D01*
X157455381Y-90139387D01*
X157621757Y-90054615D01*
X157772822Y-89944859D01*
X157904859Y-89812822D01*
X158014615Y-89661757D01*
X158099387Y-89495381D01*
X158157089Y-89317793D01*
X158186300Y-89133364D01*
X158186300Y-88946636D01*
X163433700Y-88946636D01*
X163433700Y-89133364D01*
X163462911Y-89317793D01*
X163520613Y-89495381D01*
X163605385Y-89661757D01*
X163715141Y-89812822D01*
X163847178Y-89944859D01*
X163998243Y-90054615D01*
X164164619Y-90139387D01*
X164326758Y-90192069D01*
X164384434Y-90231507D01*
X164411632Y-90295865D01*
X164399717Y-90364712D01*
X164352473Y-90416187D01*
X164326760Y-90427929D01*
X164164619Y-90480613D01*
X164164616Y-90480614D01*
X163998242Y-90565385D01*
X163847176Y-90675142D01*
X163715142Y-90807176D01*
X163605385Y-90958242D01*
X163520614Y-91124616D01*
X163462910Y-91302210D01*
X163433700Y-91486636D01*
X163433700Y-91673363D01*
X163461855Y-91851129D01*
X163462911Y-91857793D01*
X163520613Y-92035381D01*
X163605385Y-92201757D01*
X163715141Y-92352822D01*
X163847178Y-92484859D01*
X163998243Y-92594615D01*
X164164619Y-92679387D01*
X164202731Y-92691770D01*
X164260404Y-92731205D01*
X164287604Y-92795563D01*
X164275690Y-92864410D01*
X164228447Y-92915886D01*
X164164412Y-92933700D01*
X163886330Y-92933700D01*
X163886323Y-92933701D01*
X163826716Y-92940108D01*
X163691871Y-92990402D01*
X163691864Y-92990406D01*
X163576655Y-93076652D01*
X163576652Y-93076655D01*
X163490406Y-93191864D01*
X163490402Y-93191871D01*
X163440108Y-93326717D01*
X163433701Y-93386316D01*
X163433701Y-93386323D01*
X163433700Y-93386335D01*
X163433700Y-94853670D01*
X163433701Y-94853676D01*
X163440108Y-94913283D01*
X163490402Y-95048128D01*
X163490406Y-95048135D01*
X163576652Y-95163344D01*
X163576655Y-95163347D01*
X163691864Y-95249593D01*
X163691873Y-95249598D01*
X163750912Y-95271617D01*
X163788769Y-95285737D01*
X163844703Y-95327607D01*
X163869121Y-95393071D01*
X163869437Y-95401919D01*
X163869437Y-100193928D01*
X163898278Y-100338924D01*
X163898282Y-100338938D01*
X163954856Y-100475521D01*
X163954858Y-100475524D01*
X163954859Y-100475526D01*
X163987758Y-100524761D01*
X163987759Y-100524764D01*
X164036995Y-100598451D01*
X164037001Y-100598459D01*
X164145863Y-100707321D01*
X164145885Y-100707341D01*
X164213118Y-100774574D01*
X164246603Y-100835897D01*
X164249437Y-100862255D01*
X164249437Y-101195548D01*
X164239999Y-101242996D01*
X164230263Y-101266503D01*
X164230262Y-101266506D01*
X164230260Y-101266511D01*
X164199500Y-101421153D01*
X164199500Y-101578846D01*
X164230261Y-101733489D01*
X164230264Y-101733501D01*
X164290602Y-101879172D01*
X164290609Y-101879185D01*
X164378210Y-102010288D01*
X164378213Y-102010292D01*
X164489707Y-102121786D01*
X164489711Y-102121789D01*
X164620814Y-102209390D01*
X164620827Y-102209397D01*
X164766498Y-102269735D01*
X164766503Y-102269737D01*
X164921153Y-102300499D01*
X164921156Y-102300500D01*
X164921158Y-102300500D01*
X165078844Y-102300500D01*
X165078845Y-102300499D01*
X165233497Y-102269737D01*
X165379179Y-102209394D01*
X165510289Y-102121789D01*
X165621789Y-102010289D01*
X165709394Y-101879179D01*
X165769737Y-101733497D01*
X165800500Y-101578842D01*
X165800500Y-101421158D01*
X165800500Y-101421155D01*
X165800499Y-101421153D01*
X165769739Y-101266511D01*
X165769738Y-101266508D01*
X165769737Y-101266503D01*
X165760000Y-101242996D01*
X165750563Y-101195548D01*
X165750563Y-100426078D01*
X165750563Y-100426076D01*
X165733230Y-100338932D01*
X165721720Y-100281068D01*
X165721718Y-100281063D01*
X165665143Y-100144478D01*
X165665141Y-100144475D01*
X165665141Y-100144474D01*
X165632239Y-100095235D01*
X165583001Y-100021544D01*
X165582999Y-100021541D01*
X165475360Y-99913902D01*
X165475329Y-99913873D01*
X165406882Y-99845426D01*
X165373397Y-99784103D01*
X165370563Y-99757745D01*
X165370563Y-95401919D01*
X165390248Y-95334880D01*
X165443052Y-95289125D01*
X165451223Y-95285740D01*
X165548131Y-95249596D01*
X165663346Y-95163346D01*
X165749596Y-95048131D01*
X165799891Y-94913283D01*
X165806300Y-94853673D01*
X165806299Y-93386328D01*
X165799891Y-93326717D01*
X165798626Y-93323326D01*
X165749597Y-93191871D01*
X165749593Y-93191864D01*
X165663347Y-93076655D01*
X165663344Y-93076652D01*
X165548135Y-92990406D01*
X165548128Y-92990402D01*
X165413282Y-92940108D01*
X165413283Y-92940108D01*
X165353683Y-92933701D01*
X165353681Y-92933700D01*
X165353673Y-92933700D01*
X165353665Y-92933700D01*
X165075589Y-92933700D01*
X165008550Y-92914015D01*
X164962795Y-92861211D01*
X164952851Y-92792053D01*
X164981876Y-92728497D01*
X165037270Y-92691769D01*
X165075381Y-92679387D01*
X165241757Y-92594615D01*
X165392822Y-92484859D01*
X165524859Y-92352822D01*
X165634615Y-92201757D01*
X165719387Y-92035381D01*
X165777089Y-91857793D01*
X165806300Y-91673364D01*
X165806300Y-91486636D01*
X165777089Y-91302207D01*
X165719387Y-91124619D01*
X165634615Y-90958243D01*
X165524859Y-90807178D01*
X165392822Y-90675141D01*
X165241757Y-90565385D01*
X165075381Y-90480613D01*
X164913239Y-90427929D01*
X164855566Y-90388494D01*
X164828367Y-90324135D01*
X164840282Y-90255289D01*
X164887526Y-90203813D01*
X164913236Y-90192071D01*
X165075381Y-90139387D01*
X165241757Y-90054615D01*
X165392822Y-89944859D01*
X165524859Y-89812822D01*
X165634615Y-89661757D01*
X165719387Y-89495381D01*
X165777089Y-89317793D01*
X165806300Y-89133364D01*
X165806300Y-88946636D01*
X165777089Y-88762207D01*
X165719387Y-88584619D01*
X165634615Y-88418243D01*
X165524859Y-88267178D01*
X165392822Y-88135141D01*
X165241757Y-88025385D01*
X165075381Y-87940613D01*
X164912432Y-87887667D01*
X164854757Y-87848230D01*
X164827559Y-87783872D01*
X164839474Y-87715025D01*
X164886718Y-87663550D01*
X164912433Y-87651806D01*
X165075191Y-87598922D01*
X165241496Y-87514186D01*
X165264162Y-87497717D01*
X165264162Y-87497716D01*
X164693724Y-86927277D01*
X164786669Y-86902374D01*
X164885131Y-86845526D01*
X164965526Y-86765131D01*
X165022374Y-86666669D01*
X165047278Y-86573724D01*
X165617716Y-87144162D01*
X165617717Y-87144162D01*
X165634186Y-87121496D01*
X165718922Y-86955191D01*
X165776602Y-86777672D01*
X165805800Y-86593330D01*
X165805800Y-86406669D01*
X165776602Y-86222327D01*
X165718922Y-86044808D01*
X165634186Y-85878504D01*
X165617716Y-85855836D01*
X165617716Y-85855835D01*
X165047277Y-86426274D01*
X165022374Y-86333331D01*
X164965526Y-86234869D01*
X164885131Y-86154474D01*
X164786669Y-86097626D01*
X164693724Y-86072722D01*
X165264162Y-85502282D01*
X165241491Y-85485811D01*
X165075191Y-85401077D01*
X164897672Y-85343397D01*
X164713330Y-85314200D01*
X164526670Y-85314200D01*
X164342327Y-85343397D01*
X164164808Y-85401077D01*
X163998502Y-85485814D01*
X163975836Y-85502282D01*
X163975835Y-85502282D01*
X164546275Y-86072721D01*
X164453331Y-86097626D01*
X164354869Y-86154474D01*
X164274474Y-86234869D01*
X164217626Y-86333331D01*
X164192722Y-86426275D01*
X163622282Y-85855835D01*
X163622282Y-85855836D01*
X163605814Y-85878502D01*
X163521077Y-86044808D01*
X163463397Y-86222327D01*
X163434200Y-86406669D01*
X163434200Y-86593330D01*
X163463397Y-86777672D01*
X163521077Y-86955191D01*
X163605811Y-87121491D01*
X163622282Y-87144162D01*
X164192721Y-86573723D01*
X164217626Y-86666669D01*
X164274474Y-86765131D01*
X164354869Y-86845526D01*
X164453331Y-86902374D01*
X164546275Y-86927278D01*
X163975835Y-87497716D01*
X163998504Y-87514186D01*
X164164808Y-87598922D01*
X164327566Y-87651806D01*
X164385242Y-87691243D01*
X164412440Y-87755602D01*
X164400525Y-87824448D01*
X164353281Y-87875924D01*
X164327568Y-87887667D01*
X164164619Y-87940613D01*
X164164616Y-87940614D01*
X164164614Y-87940615D01*
X163998242Y-88025385D01*
X163847176Y-88135142D01*
X163715142Y-88267176D01*
X163605385Y-88418242D01*
X163520614Y-88584616D01*
X163462910Y-88762210D01*
X163454643Y-88814408D01*
X163433700Y-88946636D01*
X158186300Y-88946636D01*
X158157089Y-88762207D01*
X158099387Y-88584619D01*
X158014615Y-88418243D01*
X157904859Y-88267178D01*
X157772822Y-88135141D01*
X157621757Y-88025385D01*
X157455381Y-87940613D01*
X157293239Y-87887929D01*
X157235566Y-87848494D01*
X157208367Y-87784135D01*
X157220282Y-87715289D01*
X157267526Y-87663813D01*
X157293236Y-87652071D01*
X157455381Y-87599387D01*
X157621757Y-87514615D01*
X157772822Y-87404859D01*
X157904859Y-87272822D01*
X158014615Y-87121757D01*
X158099387Y-86955381D01*
X158157089Y-86777793D01*
X158186300Y-86593364D01*
X158186300Y-86406636D01*
X158157089Y-86222207D01*
X158099387Y-86044619D01*
X158014615Y-85878243D01*
X157904859Y-85727178D01*
X157772822Y-85595141D01*
X157621757Y-85485385D01*
X157455381Y-85400613D01*
X157277793Y-85342911D01*
X157277791Y-85342910D01*
X157277789Y-85342910D01*
X157149018Y-85322514D01*
X157093364Y-85313700D01*
X156906636Y-85313700D01*
X156863883Y-85320471D01*
X156722210Y-85342910D01*
X156544616Y-85400614D01*
X156378242Y-85485385D01*
X156227176Y-85595142D01*
X156095142Y-85727176D01*
X155985385Y-85878242D01*
X155900614Y-86044616D01*
X155842910Y-86222210D01*
X155813700Y-86406636D01*
X45000500Y-86406636D01*
X45000500Y-72423135D01*
X88646000Y-72423135D01*
X88646000Y-74518870D01*
X88646001Y-74518876D01*
X88652408Y-74578483D01*
X88702702Y-74713328D01*
X88702706Y-74713335D01*
X88788952Y-74828544D01*
X88788955Y-74828547D01*
X88904164Y-74914793D01*
X88904171Y-74914797D01*
X89039017Y-74965091D01*
X89039016Y-74965091D01*
X89045944Y-74965835D01*
X89098627Y-74971500D01*
X90166877Y-74971499D01*
X90233916Y-74991183D01*
X90279671Y-75043987D01*
X90289615Y-75113146D01*
X90281439Y-75142950D01*
X90230263Y-75266503D01*
X90230261Y-75266510D01*
X90199500Y-75421153D01*
X90199500Y-75578846D01*
X90230261Y-75733489D01*
X90230264Y-75733501D01*
X90290602Y-75879172D01*
X90290609Y-75879185D01*
X90378210Y-76010288D01*
X90378213Y-76010292D01*
X90489707Y-76121786D01*
X90489711Y-76121789D01*
X90620814Y-76209390D01*
X90620827Y-76209397D01*
X90743000Y-76260002D01*
X90766503Y-76269737D01*
X90921153Y-76300499D01*
X90921156Y-76300500D01*
X90921158Y-76300500D01*
X91078844Y-76300500D01*
X91078845Y-76300499D01*
X91233497Y-76269737D01*
X91256999Y-76260001D01*
X91304452Y-76250563D01*
X93223925Y-76250563D01*
X93223926Y-76250562D01*
X93368932Y-76221720D01*
X93505526Y-76165141D01*
X93564850Y-76125501D01*
X93628456Y-76083001D01*
X93733001Y-75978456D01*
X93733002Y-75978454D01*
X93740068Y-75971388D01*
X93740071Y-75971384D01*
X94739675Y-74971779D01*
X94800996Y-74938296D01*
X94846752Y-74936989D01*
X95001270Y-74961462D01*
X95064646Y-74971500D01*
X95064647Y-74971500D01*
X95293353Y-74971500D01*
X95293354Y-74971500D01*
X95519245Y-74935722D01*
X95519248Y-74935721D01*
X95519249Y-74935721D01*
X95736755Y-74865049D01*
X95736755Y-74865048D01*
X95736758Y-74865048D01*
X95940538Y-74761217D01*
X96125566Y-74626786D01*
X96287286Y-74465066D01*
X96421717Y-74280038D01*
X96525548Y-74076258D01*
X96596222Y-73858745D01*
X96632000Y-73632854D01*
X96632000Y-73309146D01*
X96596222Y-73083255D01*
X96596221Y-73083251D01*
X96596221Y-73083250D01*
X96525549Y-72865744D01*
X96468359Y-72753502D01*
X96421717Y-72661962D01*
X96287286Y-72476934D01*
X96125566Y-72315214D01*
X95940538Y-72180783D01*
X95736755Y-72076950D01*
X95519248Y-72006278D01*
X95333812Y-71976908D01*
X95293354Y-71970500D01*
X95064646Y-71970500D01*
X95024188Y-71976908D01*
X94838753Y-72006278D01*
X94838750Y-72006278D01*
X94621244Y-72076950D01*
X94417461Y-72180783D01*
X94351550Y-72228671D01*
X94232434Y-72315214D01*
X94232432Y-72315216D01*
X94232431Y-72315216D01*
X94070715Y-72476932D01*
X94009318Y-72561438D01*
X93953987Y-72604103D01*
X93884374Y-72610082D01*
X93822579Y-72577476D01*
X93808682Y-72561438D01*
X93749600Y-72480119D01*
X93747286Y-72476934D01*
X93585566Y-72315214D01*
X93400538Y-72180783D01*
X93196755Y-72076950D01*
X92979248Y-72006278D01*
X92793812Y-71976908D01*
X92753354Y-71970500D01*
X92524646Y-71970500D01*
X92484188Y-71976908D01*
X92298753Y-72006278D01*
X92298750Y-72006278D01*
X92081244Y-72076950D01*
X91877461Y-72180783D01*
X91694759Y-72313525D01*
X91628952Y-72337005D01*
X91560898Y-72321180D01*
X91512203Y-72271074D01*
X91505690Y-72256538D01*
X91495296Y-72228669D01*
X91495293Y-72228664D01*
X91409047Y-72113455D01*
X91409044Y-72113452D01*
X91293835Y-72027206D01*
X91293828Y-72027202D01*
X91158982Y-71976908D01*
X91158983Y-71976908D01*
X91099383Y-71970501D01*
X91099381Y-71970500D01*
X91099373Y-71970500D01*
X91099364Y-71970500D01*
X89098629Y-71970500D01*
X89098623Y-71970501D01*
X89039016Y-71976908D01*
X88904171Y-72027202D01*
X88904164Y-72027206D01*
X88788955Y-72113452D01*
X88788952Y-72113455D01*
X88702706Y-72228664D01*
X88702702Y-72228671D01*
X88652408Y-72363517D01*
X88646001Y-72423116D01*
X88646000Y-72423135D01*
X45000500Y-72423135D01*
X45000500Y-70752135D01*
X160299500Y-70752135D01*
X160299500Y-73247870D01*
X160299501Y-73247876D01*
X160305908Y-73307483D01*
X160356202Y-73442328D01*
X160356206Y-73442335D01*
X160442452Y-73557544D01*
X160442455Y-73557547D01*
X160557664Y-73643793D01*
X160557671Y-73643797D01*
X160692517Y-73694091D01*
X160692516Y-73694091D01*
X160699444Y-73694835D01*
X160752127Y-73700500D01*
X163247872Y-73700499D01*
X163307483Y-73694091D01*
X163442331Y-73643796D01*
X163557546Y-73557546D01*
X163643796Y-73442331D01*
X163694091Y-73307483D01*
X163700500Y-73247873D01*
X163700499Y-71888575D01*
X167800000Y-71888575D01*
X167800000Y-72111424D01*
X167829085Y-72332354D01*
X167829088Y-72332367D01*
X167886763Y-72547618D01*
X167972045Y-72753502D01*
X167972054Y-72753520D01*
X168083464Y-72946491D01*
X168083473Y-72946504D01*
X168134040Y-73012403D01*
X168134043Y-73012403D01*
X168935387Y-72211059D01*
X168940889Y-72231591D01*
X169019881Y-72368408D01*
X169131592Y-72480119D01*
X169268409Y-72559111D01*
X169288940Y-72564612D01*
X168487595Y-73365955D01*
X168487595Y-73365956D01*
X168553507Y-73416533D01*
X168746485Y-73527949D01*
X168746497Y-73527954D01*
X168952381Y-73613236D01*
X169167632Y-73670911D01*
X169167645Y-73670914D01*
X169388575Y-73700000D01*
X169611425Y-73700000D01*
X169832354Y-73670914D01*
X169832367Y-73670911D01*
X170047618Y-73613236D01*
X170253502Y-73527954D01*
X170253514Y-73527949D01*
X170446498Y-73416530D01*
X170512403Y-73365957D01*
X170512404Y-73365956D01*
X169711059Y-72564612D01*
X169731591Y-72559111D01*
X169868408Y-72480119D01*
X169980119Y-72368408D01*
X170059111Y-72231591D01*
X170064612Y-72211059D01*
X170865956Y-73012404D01*
X170865957Y-73012403D01*
X170916530Y-72946498D01*
X171027949Y-72753514D01*
X171027954Y-72753502D01*
X171113236Y-72547618D01*
X171170911Y-72332367D01*
X171170914Y-72332354D01*
X171200000Y-72111424D01*
X171200000Y-71888575D01*
X171170914Y-71667645D01*
X171170911Y-71667632D01*
X171113236Y-71452381D01*
X171027954Y-71246497D01*
X171027949Y-71246485D01*
X170916533Y-71053507D01*
X170865956Y-70987595D01*
X170865955Y-70987595D01*
X170064612Y-71788939D01*
X170059111Y-71768409D01*
X169980119Y-71631592D01*
X169868408Y-71519881D01*
X169731591Y-71440889D01*
X169711058Y-71435387D01*
X170512403Y-70634043D01*
X170512403Y-70634040D01*
X170446504Y-70583473D01*
X170446491Y-70583464D01*
X170253520Y-70472054D01*
X170253502Y-70472045D01*
X170047618Y-70386763D01*
X169832367Y-70329088D01*
X169832354Y-70329085D01*
X169611425Y-70300000D01*
X169388575Y-70300000D01*
X169167645Y-70329085D01*
X169167632Y-70329088D01*
X168952381Y-70386763D01*
X168746497Y-70472045D01*
X168746479Y-70472054D01*
X168553511Y-70583462D01*
X168487595Y-70634042D01*
X169288941Y-71435387D01*
X169268409Y-71440889D01*
X169131592Y-71519881D01*
X169019881Y-71631592D01*
X168940889Y-71768409D01*
X168935387Y-71788940D01*
X168134042Y-70987595D01*
X168083462Y-71053511D01*
X167972054Y-71246479D01*
X167972045Y-71246497D01*
X167886763Y-71452381D01*
X167829088Y-71667632D01*
X167829085Y-71667645D01*
X167800000Y-71888575D01*
X163700499Y-71888575D01*
X163700499Y-70752128D01*
X163694385Y-70695248D01*
X163694385Y-70695246D01*
X163694092Y-70692519D01*
X163643797Y-70557671D01*
X163643793Y-70557664D01*
X163557547Y-70442455D01*
X163557544Y-70442452D01*
X163442335Y-70356206D01*
X163442328Y-70356202D01*
X163307482Y-70305908D01*
X163307483Y-70305908D01*
X163247883Y-70299501D01*
X163247881Y-70299500D01*
X163247873Y-70299500D01*
X163247864Y-70299500D01*
X160752129Y-70299500D01*
X160752123Y-70299501D01*
X160692516Y-70305908D01*
X160557671Y-70356202D01*
X160557664Y-70356206D01*
X160442455Y-70442452D01*
X160442452Y-70442455D01*
X160356206Y-70557664D01*
X160356202Y-70557671D01*
X160305908Y-70692517D01*
X160299501Y-70752116D01*
X160299501Y-70752123D01*
X160299500Y-70752135D01*
X45000500Y-70752135D01*
X45000500Y-61780755D01*
X50384000Y-61780755D01*
X50384000Y-62219244D01*
X50418402Y-62656355D01*
X50418404Y-62656374D01*
X50486995Y-63089438D01*
X50589353Y-63515794D01*
X50589360Y-63515817D01*
X50724850Y-63932817D01*
X50892646Y-64337910D01*
X50892652Y-64337923D01*
X51091723Y-64728623D01*
X51091726Y-64728629D01*
X51320810Y-65102458D01*
X51320824Y-65102480D01*
X51578554Y-65457213D01*
X51578566Y-65457228D01*
X51843279Y-65767167D01*
X53636818Y-63973627D01*
X53686208Y-64035560D01*
X53928440Y-64277792D01*
X53990371Y-64327180D01*
X52196831Y-66120719D01*
X52196831Y-66120720D01*
X52506771Y-66385433D01*
X52506786Y-66385445D01*
X52861519Y-66643175D01*
X52861541Y-66643189D01*
X53235370Y-66872273D01*
X53235376Y-66872276D01*
X53626076Y-67071347D01*
X53626089Y-67071353D01*
X54031182Y-67239149D01*
X54448182Y-67374639D01*
X54448205Y-67374646D01*
X54874561Y-67477004D01*
X55307625Y-67545595D01*
X55307644Y-67545597D01*
X55744755Y-67579999D01*
X55744769Y-67580000D01*
X56183231Y-67580000D01*
X56183244Y-67579999D01*
X56620355Y-67545597D01*
X56620374Y-67545595D01*
X57053438Y-67477004D01*
X57479794Y-67374646D01*
X57479817Y-67374639D01*
X57896817Y-67239149D01*
X58301910Y-67071353D01*
X58301923Y-67071347D01*
X58692623Y-66872276D01*
X58692629Y-66872273D01*
X59066458Y-66643189D01*
X59066480Y-66643175D01*
X59421213Y-66385445D01*
X59421215Y-66385443D01*
X59731167Y-66120719D01*
X57937628Y-64327180D01*
X57999560Y-64277792D01*
X58241792Y-64035560D01*
X58291180Y-63973628D01*
X60084719Y-65767167D01*
X60349443Y-65457215D01*
X60349445Y-65457213D01*
X60607175Y-65102480D01*
X60607189Y-65102458D01*
X60836273Y-64728629D01*
X60836276Y-64728623D01*
X61035347Y-64337923D01*
X61035353Y-64337910D01*
X61203149Y-63932817D01*
X61338639Y-63515817D01*
X61338646Y-63515794D01*
X61441004Y-63089438D01*
X61509595Y-62656374D01*
X61509597Y-62656355D01*
X61543999Y-62219244D01*
X61544000Y-62219231D01*
X61544000Y-61780768D01*
X61543999Y-61780755D01*
X61509597Y-61343644D01*
X61509595Y-61343625D01*
X61441004Y-60910561D01*
X61338646Y-60484205D01*
X61338639Y-60484182D01*
X61203149Y-60067182D01*
X61035353Y-59662089D01*
X61035347Y-59662076D01*
X60836276Y-59271376D01*
X60836273Y-59271370D01*
X60607189Y-58897541D01*
X60607175Y-58897519D01*
X60349445Y-58542786D01*
X60349433Y-58542771D01*
X60084719Y-58232831D01*
X58291180Y-60026370D01*
X58241792Y-59964440D01*
X57999560Y-59722208D01*
X57937627Y-59672818D01*
X59731167Y-57879279D01*
X59731167Y-57879278D01*
X59421228Y-57614566D01*
X59421213Y-57614554D01*
X59066480Y-57356824D01*
X59066458Y-57356810D01*
X58692629Y-57127726D01*
X58692623Y-57127723D01*
X58301923Y-56928652D01*
X58301910Y-56928646D01*
X57896817Y-56760850D01*
X57479817Y-56625360D01*
X57479794Y-56625353D01*
X57053438Y-56522995D01*
X56620374Y-56454404D01*
X56620355Y-56454402D01*
X56183244Y-56420000D01*
X55744755Y-56420000D01*
X55307644Y-56454402D01*
X55307625Y-56454404D01*
X54874561Y-56522995D01*
X54448205Y-56625353D01*
X54448182Y-56625360D01*
X54031182Y-56760850D01*
X53626089Y-56928646D01*
X53626076Y-56928652D01*
X53235376Y-57127723D01*
X53235370Y-57127726D01*
X52861541Y-57356810D01*
X52861519Y-57356824D01*
X52506786Y-57614554D01*
X52196831Y-57879279D01*
X53990371Y-59672819D01*
X53928440Y-59722208D01*
X53686208Y-59964440D01*
X53636819Y-60026371D01*
X51843279Y-58232831D01*
X51578554Y-58542786D01*
X51320824Y-58897519D01*
X51320810Y-58897541D01*
X51091726Y-59271370D01*
X51091723Y-59271376D01*
X50892652Y-59662076D01*
X50892646Y-59662089D01*
X50724850Y-60067182D01*
X50589360Y-60484182D01*
X50589353Y-60484205D01*
X50486995Y-60910561D01*
X50418404Y-61343625D01*
X50418402Y-61343644D01*
X50384000Y-61780755D01*
X45000500Y-61780755D01*
X45000500Y-54565736D01*
X99204500Y-54565736D01*
X99204500Y-55004263D01*
X99238905Y-55441424D01*
X99238905Y-55441425D01*
X99307503Y-55874539D01*
X99307504Y-55874542D01*
X99409874Y-56300942D01*
X99409878Y-56300953D01*
X99545380Y-56717991D01*
X99713191Y-57123119D01*
X99713197Y-57123133D01*
X99832261Y-57356810D01*
X99912286Y-57513868D01*
X99912289Y-57513873D01*
X100141397Y-57887742D01*
X100141405Y-57887753D01*
X100399151Y-58242512D01*
X100399161Y-58242526D01*
X100655596Y-58542771D01*
X100683951Y-58575970D01*
X100994030Y-58886049D01*
X100994036Y-58886054D01*
X101327473Y-59170838D01*
X101327480Y-59170843D01*
X101682248Y-59428596D01*
X101682252Y-59428598D01*
X101682257Y-59428602D01*
X102056126Y-59657710D01*
X102056131Y-59657713D01*
X102056136Y-59657715D01*
X102056145Y-59657721D01*
X102446867Y-59856803D01*
X102706724Y-59964440D01*
X102852008Y-60024619D01*
X102958050Y-60059073D01*
X103269058Y-60160126D01*
X103695458Y-60262496D01*
X104128576Y-60331095D01*
X104565742Y-60365500D01*
X104565750Y-60365500D01*
X105004250Y-60365500D01*
X105004258Y-60365500D01*
X105441424Y-60331095D01*
X105874542Y-60262496D01*
X106300942Y-60160126D01*
X106717997Y-60024617D01*
X107123133Y-59856803D01*
X107513855Y-59657721D01*
X107887752Y-59428596D01*
X108242520Y-59170843D01*
X108575970Y-58886049D01*
X108886049Y-58575970D01*
X109170843Y-58242520D01*
X109428596Y-57887752D01*
X109657721Y-57513855D01*
X109856803Y-57123133D01*
X110024617Y-56717997D01*
X110160126Y-56300942D01*
X110262496Y-55874542D01*
X110331095Y-55441424D01*
X110365500Y-55004258D01*
X110365500Y-54565742D01*
X110331095Y-54128576D01*
X110262496Y-53695458D01*
X110160126Y-53269058D01*
X110024617Y-52852003D01*
X109856803Y-52446867D01*
X109657721Y-52056145D01*
X109657715Y-52056136D01*
X109657713Y-52056131D01*
X109657710Y-52056126D01*
X109428602Y-51682257D01*
X109428598Y-51682252D01*
X109428596Y-51682248D01*
X109170843Y-51327480D01*
X109170838Y-51327473D01*
X108886054Y-50994036D01*
X108886049Y-50994030D01*
X108575970Y-50683951D01*
X108575963Y-50683945D01*
X108242526Y-50399161D01*
X108242512Y-50399151D01*
X107887753Y-50141405D01*
X107887742Y-50141397D01*
X107513873Y-49912289D01*
X107513868Y-49912286D01*
X107513858Y-49912281D01*
X107513855Y-49912279D01*
X107123133Y-49713197D01*
X107123119Y-49713191D01*
X106717991Y-49545380D01*
X106421256Y-49448966D01*
X106300942Y-49409874D01*
X106300930Y-49409871D01*
X105874539Y-49307503D01*
X105441425Y-49238905D01*
X105004263Y-49204500D01*
X105004258Y-49204500D01*
X104565742Y-49204500D01*
X104565736Y-49204500D01*
X104128575Y-49238905D01*
X104128574Y-49238905D01*
X103695460Y-49307503D01*
X103269069Y-49409871D01*
X103269063Y-49409872D01*
X103269058Y-49409874D01*
X103269046Y-49409878D01*
X102852008Y-49545380D01*
X102446880Y-49713191D01*
X102446867Y-49713197D01*
X102056131Y-49912286D01*
X102056126Y-49912289D01*
X101682257Y-50141397D01*
X101682246Y-50141405D01*
X101327487Y-50399151D01*
X101327473Y-50399161D01*
X100994036Y-50683945D01*
X100994022Y-50683958D01*
X100683958Y-50994022D01*
X100683945Y-50994036D01*
X100399161Y-51327473D01*
X100399151Y-51327487D01*
X100141405Y-51682246D01*
X100141397Y-51682257D01*
X99912289Y-52056126D01*
X99912286Y-52056131D01*
X99713197Y-52446867D01*
X99713191Y-52446880D01*
X99545380Y-52852008D01*
X99409878Y-53269046D01*
X99409871Y-53269069D01*
X99307503Y-53695460D01*
X99238905Y-54128574D01*
X99238905Y-54128575D01*
X99204500Y-54565736D01*
X45000500Y-54565736D01*
X45000500Y-47780736D01*
X50419500Y-47780736D01*
X50419500Y-48219263D01*
X50453905Y-48656424D01*
X50453905Y-48656425D01*
X50522503Y-49089539D01*
X50599409Y-49409874D01*
X50624874Y-49515942D01*
X50624878Y-49515953D01*
X50760380Y-49932991D01*
X50846709Y-50141405D01*
X50928197Y-50338133D01*
X51104403Y-50683958D01*
X51127286Y-50728868D01*
X51127289Y-50728873D01*
X51356397Y-51102742D01*
X51356402Y-51102749D01*
X51356404Y-51102752D01*
X51509249Y-51313126D01*
X51614151Y-51457512D01*
X51614161Y-51457526D01*
X51845911Y-51728868D01*
X51898951Y-51790970D01*
X52209030Y-52101049D01*
X52211012Y-52102742D01*
X52542473Y-52385838D01*
X52542480Y-52385843D01*
X52897248Y-52643596D01*
X52897252Y-52643598D01*
X52897257Y-52643602D01*
X53271126Y-52872710D01*
X53271131Y-52872713D01*
X53271136Y-52872715D01*
X53271145Y-52872721D01*
X53661867Y-53071803D01*
X54067003Y-53239617D01*
X54067008Y-53239619D01*
X54157576Y-53269046D01*
X54484058Y-53375126D01*
X54910458Y-53477496D01*
X55343576Y-53546095D01*
X55780742Y-53580500D01*
X55780750Y-53580500D01*
X56219250Y-53580500D01*
X56219258Y-53580500D01*
X56656424Y-53546095D01*
X57089542Y-53477496D01*
X57515942Y-53375126D01*
X57932997Y-53239617D01*
X58338133Y-53071803D01*
X58728855Y-52872721D01*
X59102752Y-52643596D01*
X59457520Y-52385843D01*
X59790970Y-52101049D01*
X60101049Y-51790970D01*
X60385843Y-51457520D01*
X60643596Y-51102752D01*
X60872721Y-50728855D01*
X61071803Y-50338133D01*
X61239617Y-49932997D01*
X61375126Y-49515942D01*
X61477496Y-49089542D01*
X61526406Y-48780736D01*
X146419500Y-48780736D01*
X146419500Y-49219263D01*
X146453905Y-49656424D01*
X146453905Y-49656425D01*
X146522503Y-50089539D01*
X146596835Y-50399151D01*
X146624874Y-50515942D01*
X146624878Y-50515953D01*
X146760380Y-50932991D01*
X146928110Y-51337923D01*
X146928197Y-51338133D01*
X147127161Y-51728623D01*
X147127286Y-51728868D01*
X147127289Y-51728873D01*
X147356397Y-52102742D01*
X147356405Y-52102753D01*
X147614151Y-52457512D01*
X147614161Y-52457526D01*
X147773081Y-52643596D01*
X147898951Y-52790970D01*
X148209030Y-53101049D01*
X148209036Y-53101054D01*
X148542473Y-53385838D01*
X148542480Y-53385843D01*
X148897248Y-53643596D01*
X148897252Y-53643598D01*
X148897257Y-53643602D01*
X149271126Y-53872710D01*
X149271131Y-53872713D01*
X149271136Y-53872715D01*
X149271145Y-53872721D01*
X149661867Y-54071803D01*
X150065873Y-54239149D01*
X150067008Y-54239619D01*
X150173050Y-54274073D01*
X150484058Y-54375126D01*
X150910458Y-54477496D01*
X151343576Y-54546095D01*
X151780742Y-54580500D01*
X151780750Y-54580500D01*
X152219250Y-54580500D01*
X152219258Y-54580500D01*
X152656424Y-54546095D01*
X153089542Y-54477496D01*
X153515942Y-54375126D01*
X153932997Y-54239617D01*
X154338133Y-54071803D01*
X154728855Y-53872721D01*
X155102752Y-53643596D01*
X155457520Y-53385843D01*
X155790970Y-53101049D01*
X156101049Y-52790970D01*
X156385843Y-52457520D01*
X156643596Y-52102752D01*
X156872721Y-51728855D01*
X157071803Y-51338133D01*
X157239617Y-50932997D01*
X157239676Y-50932817D01*
X157244252Y-50918729D01*
X157375126Y-50515942D01*
X157477496Y-50089542D01*
X157546095Y-49656424D01*
X157580500Y-49219258D01*
X157580500Y-48780755D01*
X161920000Y-48780755D01*
X161920000Y-49219244D01*
X161954402Y-49656355D01*
X161954404Y-49656374D01*
X162022995Y-50089438D01*
X162125353Y-50515794D01*
X162125360Y-50515817D01*
X162260850Y-50932817D01*
X162428646Y-51337910D01*
X162428652Y-51337923D01*
X162627723Y-51728623D01*
X162627726Y-51728629D01*
X162856810Y-52102458D01*
X162856824Y-52102480D01*
X163114554Y-52457213D01*
X163114566Y-52457228D01*
X163379279Y-52767167D01*
X165172818Y-50973627D01*
X165222208Y-51035560D01*
X165464440Y-51277792D01*
X165526371Y-51327180D01*
X163732831Y-53120719D01*
X163732831Y-53120720D01*
X164042771Y-53385433D01*
X164042786Y-53385445D01*
X164397519Y-53643175D01*
X164397541Y-53643189D01*
X164771370Y-53872273D01*
X164771376Y-53872276D01*
X165162076Y-54071347D01*
X165162089Y-54071353D01*
X165567182Y-54239149D01*
X165984182Y-54374639D01*
X165984205Y-54374646D01*
X166410561Y-54477004D01*
X166843625Y-54545595D01*
X166843644Y-54545597D01*
X167280755Y-54579999D01*
X167280769Y-54580000D01*
X167719231Y-54580000D01*
X167719244Y-54579999D01*
X168156355Y-54545597D01*
X168156374Y-54545595D01*
X168589438Y-54477004D01*
X169015794Y-54374646D01*
X169015817Y-54374639D01*
X169432817Y-54239149D01*
X169837910Y-54071353D01*
X169837923Y-54071347D01*
X170228623Y-53872276D01*
X170228629Y-53872273D01*
X170602458Y-53643189D01*
X170602480Y-53643175D01*
X170957213Y-53385445D01*
X170957215Y-53385443D01*
X171267167Y-53120719D01*
X169473628Y-51327180D01*
X169535560Y-51277792D01*
X169777792Y-51035560D01*
X169827180Y-50973628D01*
X171620719Y-52767167D01*
X171885443Y-52457215D01*
X171885445Y-52457213D01*
X172143175Y-52102480D01*
X172143189Y-52102458D01*
X172372273Y-51728629D01*
X172372276Y-51728623D01*
X172571347Y-51337923D01*
X172571353Y-51337910D01*
X172739149Y-50932817D01*
X172874639Y-50515817D01*
X172874646Y-50515794D01*
X172977004Y-50089438D01*
X173045595Y-49656374D01*
X173045597Y-49656355D01*
X173079999Y-49219244D01*
X173080000Y-49219231D01*
X173080000Y-48780768D01*
X173079999Y-48780755D01*
X173045597Y-48343644D01*
X173045595Y-48343625D01*
X172977004Y-47910561D01*
X172874646Y-47484205D01*
X172874639Y-47484182D01*
X172739149Y-47067182D01*
X172571353Y-46662089D01*
X172571347Y-46662076D01*
X172372276Y-46271376D01*
X172372273Y-46271370D01*
X172143189Y-45897541D01*
X172143175Y-45897519D01*
X171885445Y-45542786D01*
X171885433Y-45542771D01*
X171620719Y-45232831D01*
X169827180Y-47026370D01*
X169777792Y-46964440D01*
X169535560Y-46722208D01*
X169473627Y-46672818D01*
X171267167Y-44879279D01*
X171267167Y-44879278D01*
X170957228Y-44614566D01*
X170957213Y-44614554D01*
X170602480Y-44356824D01*
X170602458Y-44356810D01*
X170228629Y-44127726D01*
X170228623Y-44127723D01*
X169837923Y-43928652D01*
X169837910Y-43928646D01*
X169432817Y-43760850D01*
X169015817Y-43625360D01*
X169015794Y-43625353D01*
X168589438Y-43522995D01*
X168156374Y-43454404D01*
X168156355Y-43454402D01*
X167719244Y-43420000D01*
X167280755Y-43420000D01*
X166843644Y-43454402D01*
X166843625Y-43454404D01*
X166410561Y-43522995D01*
X165984205Y-43625353D01*
X165984182Y-43625360D01*
X165567182Y-43760850D01*
X165162089Y-43928646D01*
X165162076Y-43928652D01*
X164771376Y-44127723D01*
X164771370Y-44127726D01*
X164397541Y-44356810D01*
X164397519Y-44356824D01*
X164042786Y-44614554D01*
X163732831Y-44879279D01*
X165526371Y-46672819D01*
X165464440Y-46722208D01*
X165222208Y-46964440D01*
X165172819Y-47026371D01*
X163379279Y-45232831D01*
X163114554Y-45542786D01*
X162856824Y-45897519D01*
X162856810Y-45897541D01*
X162627726Y-46271370D01*
X162627723Y-46271376D01*
X162428652Y-46662076D01*
X162428646Y-46662089D01*
X162260850Y-47067182D01*
X162125360Y-47484182D01*
X162125353Y-47484205D01*
X162022995Y-47910561D01*
X161954404Y-48343625D01*
X161954402Y-48343644D01*
X161920000Y-48780755D01*
X157580500Y-48780755D01*
X157580500Y-48780742D01*
X157546095Y-48343576D01*
X157477496Y-47910458D01*
X157375126Y-47484058D01*
X157274073Y-47173050D01*
X157239619Y-47067008D01*
X157071895Y-46662089D01*
X157071803Y-46661867D01*
X156872721Y-46271145D01*
X156872715Y-46271136D01*
X156872713Y-46271131D01*
X156872710Y-46271126D01*
X156643602Y-45897257D01*
X156643598Y-45897252D01*
X156643596Y-45897248D01*
X156385843Y-45542480D01*
X156385838Y-45542473D01*
X156101054Y-45209036D01*
X156101049Y-45209030D01*
X155790970Y-44898951D01*
X155767936Y-44879278D01*
X155457526Y-44614161D01*
X155457512Y-44614151D01*
X155103330Y-44356824D01*
X155102752Y-44356404D01*
X155102749Y-44356402D01*
X155102742Y-44356397D01*
X154728873Y-44127289D01*
X154728868Y-44127286D01*
X154728858Y-44127281D01*
X154728855Y-44127279D01*
X154338133Y-43928197D01*
X154338119Y-43928191D01*
X153932991Y-43760380D01*
X153636256Y-43663966D01*
X153515942Y-43624874D01*
X153515930Y-43624871D01*
X153089539Y-43522503D01*
X152656425Y-43453905D01*
X152219263Y-43419500D01*
X152219258Y-43419500D01*
X151780742Y-43419500D01*
X151780736Y-43419500D01*
X151343575Y-43453905D01*
X151343574Y-43453905D01*
X150910460Y-43522503D01*
X150484069Y-43624871D01*
X150484063Y-43624872D01*
X150484058Y-43624874D01*
X150455523Y-43634145D01*
X150067008Y-43760380D01*
X149661880Y-43928191D01*
X149661867Y-43928197D01*
X149271131Y-44127286D01*
X149271126Y-44127289D01*
X148897257Y-44356397D01*
X148897246Y-44356405D01*
X148542487Y-44614151D01*
X148542473Y-44614161D01*
X148209036Y-44898945D01*
X148209022Y-44898958D01*
X147898958Y-45209022D01*
X147898945Y-45209036D01*
X147614161Y-45542473D01*
X147614151Y-45542487D01*
X147356405Y-45897246D01*
X147356397Y-45897257D01*
X147127289Y-46271126D01*
X147127286Y-46271131D01*
X146928197Y-46661867D01*
X146928191Y-46661880D01*
X146760380Y-47067008D01*
X146624878Y-47484046D01*
X146624871Y-47484069D01*
X146522503Y-47910460D01*
X146453905Y-48343574D01*
X146453905Y-48343575D01*
X146419500Y-48780736D01*
X61526406Y-48780736D01*
X61546095Y-48656424D01*
X61580500Y-48219258D01*
X61580500Y-47780742D01*
X61546095Y-47343576D01*
X61477496Y-46910458D01*
X61375126Y-46484058D01*
X61239617Y-46067003D01*
X61071803Y-45661867D01*
X60872721Y-45271145D01*
X60872715Y-45271136D01*
X60872713Y-45271131D01*
X60872710Y-45271126D01*
X60643602Y-44897257D01*
X60643598Y-44897252D01*
X60643596Y-44897248D01*
X60385843Y-44542480D01*
X60385838Y-44542473D01*
X60101054Y-44209036D01*
X60101049Y-44209030D01*
X59790970Y-43898951D01*
X59790963Y-43898945D01*
X59457526Y-43614161D01*
X59457512Y-43614151D01*
X59190285Y-43420000D01*
X59102752Y-43356404D01*
X59102749Y-43356402D01*
X59102742Y-43356397D01*
X58728873Y-43127289D01*
X58728868Y-43127286D01*
X58728858Y-43127281D01*
X58728855Y-43127279D01*
X58338133Y-42928197D01*
X58338119Y-42928191D01*
X57932991Y-42760380D01*
X57636256Y-42663966D01*
X57515942Y-42624874D01*
X57515930Y-42624871D01*
X57089539Y-42522503D01*
X56656425Y-42453905D01*
X56219263Y-42419500D01*
X56219258Y-42419500D01*
X55780742Y-42419500D01*
X55780736Y-42419500D01*
X55343575Y-42453905D01*
X55343574Y-42453905D01*
X54910460Y-42522503D01*
X54484069Y-42624871D01*
X54484063Y-42624872D01*
X54484058Y-42624874D01*
X54484046Y-42624878D01*
X54067008Y-42760380D01*
X53661880Y-42928191D01*
X53661867Y-42928197D01*
X53271131Y-43127286D01*
X53271126Y-43127289D01*
X52897257Y-43356397D01*
X52897246Y-43356405D01*
X52542487Y-43614151D01*
X52542473Y-43614161D01*
X52209036Y-43898945D01*
X52209022Y-43898958D01*
X51898958Y-44209022D01*
X51898945Y-44209036D01*
X51614161Y-44542473D01*
X51614151Y-44542487D01*
X51356405Y-44897246D01*
X51356397Y-44897257D01*
X51127289Y-45271126D01*
X51127286Y-45271131D01*
X50928197Y-45661867D01*
X50928191Y-45661880D01*
X50760380Y-46067008D01*
X50624878Y-46484046D01*
X50624871Y-46484069D01*
X50522503Y-46910460D01*
X50453905Y-47343574D01*
X50453905Y-47343575D01*
X50419500Y-47780736D01*
X45000500Y-47780736D01*
X45000500Y-37852486D01*
X49249500Y-37852486D01*
X49249500Y-38147513D01*
X49281571Y-38391113D01*
X49288007Y-38439993D01*
X49288008Y-38439995D01*
X49364361Y-38724951D01*
X49364364Y-38724961D01*
X49477254Y-38997500D01*
X49477258Y-38997510D01*
X49624761Y-39252993D01*
X49804352Y-39487040D01*
X49804358Y-39487047D01*
X50012952Y-39695641D01*
X50012959Y-39695647D01*
X50247006Y-39875238D01*
X50502489Y-40022741D01*
X50502490Y-40022741D01*
X50502493Y-40022743D01*
X50775048Y-40135639D01*
X51060007Y-40211993D01*
X51352494Y-40250500D01*
X51352501Y-40250500D01*
X51647499Y-40250500D01*
X51647506Y-40250500D01*
X51939993Y-40211993D01*
X52224952Y-40135639D01*
X52497507Y-40022743D01*
X52752994Y-39875238D01*
X52987042Y-39695646D01*
X53195646Y-39487042D01*
X53375238Y-39252994D01*
X53522743Y-38997507D01*
X53635639Y-38724952D01*
X53711993Y-38439993D01*
X53750500Y-38147506D01*
X53750500Y-37852494D01*
X53750499Y-37852486D01*
X165249500Y-37852486D01*
X165249500Y-38147513D01*
X165281571Y-38391113D01*
X165288007Y-38439993D01*
X165288008Y-38439995D01*
X165364361Y-38724951D01*
X165364364Y-38724961D01*
X165477254Y-38997500D01*
X165477258Y-38997510D01*
X165624761Y-39252993D01*
X165804352Y-39487040D01*
X165804358Y-39487047D01*
X166012952Y-39695641D01*
X166012959Y-39695647D01*
X166247006Y-39875238D01*
X166502489Y-40022741D01*
X166502490Y-40022741D01*
X166502493Y-40022743D01*
X166775048Y-40135639D01*
X167060007Y-40211993D01*
X167352494Y-40250500D01*
X167352501Y-40250500D01*
X167647499Y-40250500D01*
X167647506Y-40250500D01*
X167939993Y-40211993D01*
X168224952Y-40135639D01*
X168497507Y-40022743D01*
X168752994Y-39875238D01*
X168987042Y-39695646D01*
X169195646Y-39487042D01*
X169375238Y-39252994D01*
X169522743Y-38997507D01*
X169635639Y-38724952D01*
X169711993Y-38439993D01*
X169750500Y-38147506D01*
X169750500Y-37852494D01*
X169711993Y-37560007D01*
X169635639Y-37275048D01*
X169522743Y-37002493D01*
X169375238Y-36747006D01*
X169195646Y-36512958D01*
X169195641Y-36512952D01*
X168987047Y-36304358D01*
X168987040Y-36304352D01*
X168752993Y-36124761D01*
X168497510Y-35977258D01*
X168497500Y-35977254D01*
X168224961Y-35864364D01*
X168224954Y-35864362D01*
X168224952Y-35864361D01*
X167939993Y-35788007D01*
X167891113Y-35781571D01*
X167647513Y-35749500D01*
X167647506Y-35749500D01*
X167352494Y-35749500D01*
X167352486Y-35749500D01*
X167074085Y-35786153D01*
X167060007Y-35788007D01*
X166775048Y-35864361D01*
X166775038Y-35864364D01*
X166502499Y-35977254D01*
X166502489Y-35977258D01*
X166247006Y-36124761D01*
X166012959Y-36304352D01*
X166012952Y-36304358D01*
X165804358Y-36512952D01*
X165804352Y-36512959D01*
X165624761Y-36747006D01*
X165477258Y-37002489D01*
X165477254Y-37002499D01*
X165364364Y-37275038D01*
X165364361Y-37275048D01*
X165290458Y-37550862D01*
X165288008Y-37560004D01*
X165288006Y-37560015D01*
X165249500Y-37852486D01*
X53750499Y-37852486D01*
X53711993Y-37560007D01*
X53635639Y-37275048D01*
X53522743Y-37002493D01*
X53375238Y-36747006D01*
X53195646Y-36512958D01*
X53195641Y-36512952D01*
X52987047Y-36304358D01*
X52987040Y-36304352D01*
X52752993Y-36124761D01*
X52497510Y-35977258D01*
X52497500Y-35977254D01*
X52224961Y-35864364D01*
X52224954Y-35864362D01*
X52224952Y-35864361D01*
X51939993Y-35788007D01*
X51891113Y-35781571D01*
X51647513Y-35749500D01*
X51647506Y-35749500D01*
X51352494Y-35749500D01*
X51352486Y-35749500D01*
X51074085Y-35786153D01*
X51060007Y-35788007D01*
X50775048Y-35864361D01*
X50775038Y-35864364D01*
X50502499Y-35977254D01*
X50502489Y-35977258D01*
X50247006Y-36124761D01*
X50012959Y-36304352D01*
X50012952Y-36304358D01*
X49804358Y-36512952D01*
X49804352Y-36512959D01*
X49624761Y-36747006D01*
X49477258Y-37002489D01*
X49477254Y-37002499D01*
X49364364Y-37275038D01*
X49364361Y-37275048D01*
X49290458Y-37550862D01*
X49288008Y-37560004D01*
X49288006Y-37560015D01*
X49249500Y-37852486D01*
X45000500Y-37852486D01*
X45000500Y-37550862D01*
X45020185Y-37483823D01*
X45036819Y-37463181D01*
X48963181Y-33536819D01*
X49024504Y-33503334D01*
X49050862Y-33500500D01*
X172449138Y-33500500D01*
X172516177Y-33520185D01*
G37*
%TD.AperFunction*%
%TD*%
M02*
