%TF.GenerationSoftware,KiCad,Pcbnew,9.0.0*%
%TF.CreationDate,2025-03-06T09:36:57-05:00*%
%TF.ProjectId,PCB_Tutorial_Lect,5043425f-5475-4746-9f72-69616c5f4c65,rev?*%
%TF.SameCoordinates,Original*%
%TF.FileFunction,Paste,Top*%
%TF.FilePolarity,Positive*%
%FSLAX46Y46*%
G04 Gerber Fmt 4.6, Leading zero omitted, Abs format (unit mm)*
G04 Created by KiCad (PCBNEW 9.0.0) date 2025-03-06 09:36:57*
%MOMM*%
%LPD*%
G01*
G04 APERTURE LIST*
G04 Aperture macros list*
%AMRoundRect*
0 Rectangle with rounded corners*
0 $1 Rounding radius*
0 $2 $3 $4 $5 $6 $7 $8 $9 X,Y pos of 4 corners*
0 Add a 4 corners polygon primitive as box body*
4,1,4,$2,$3,$4,$5,$6,$7,$8,$9,$2,$3,0*
0 Add four circle primitives for the rounded corners*
1,1,$1+$1,$2,$3*
1,1,$1+$1,$4,$5*
1,1,$1+$1,$6,$7*
1,1,$1+$1,$8,$9*
0 Add four rect primitives between the rounded corners*
20,1,$1+$1,$2,$3,$4,$5,0*
20,1,$1+$1,$4,$5,$6,$7,0*
20,1,$1+$1,$6,$7,$8,$9,0*
20,1,$1+$1,$8,$9,$2,$3,0*%
G04 Aperture macros list end*
%ADD10RoundRect,0.250000X-0.650000X1.000000X-0.650000X-1.000000X0.650000X-1.000000X0.650000X1.000000X0*%
%ADD11RoundRect,0.250000X0.350000X0.450000X-0.350000X0.450000X-0.350000X-0.450000X0.350000X-0.450000X0*%
%ADD12RoundRect,0.250000X-0.262500X-0.450000X0.262500X-0.450000X0.262500X0.450000X-0.262500X0.450000X0*%
%ADD13RoundRect,0.250000X-0.250000X-0.475000X0.250000X-0.475000X0.250000X0.475000X-0.250000X0.475000X0*%
%ADD14RoundRect,0.243750X-0.243750X-0.456250X0.243750X-0.456250X0.243750X0.456250X-0.243750X0.456250X0*%
%ADD15RoundRect,0.250000X0.450000X-0.350000X0.450000X0.350000X-0.450000X0.350000X-0.450000X-0.350000X0*%
%ADD16RoundRect,0.250000X-1.000000X-0.650000X1.000000X-0.650000X1.000000X0.650000X-1.000000X0.650000X0*%
%ADD17RoundRect,0.250000X0.250000X0.475000X-0.250000X0.475000X-0.250000X-0.475000X0.250000X-0.475000X0*%
%ADD18RoundRect,0.243750X0.243750X0.456250X-0.243750X0.456250X-0.243750X-0.456250X0.243750X-0.456250X0*%
%ADD19RoundRect,0.250000X-0.350000X-0.450000X0.350000X-0.450000X0.350000X0.450000X-0.350000X0.450000X0*%
%ADD20RoundRect,0.250000X-0.475000X0.337500X-0.475000X-0.337500X0.475000X-0.337500X0.475000X0.337500X0*%
%ADD21RoundRect,0.250000X0.262500X0.450000X-0.262500X0.450000X-0.262500X-0.450000X0.262500X-0.450000X0*%
%ADD22R,1.701800X0.558800*%
%ADD23R,6.451600X4.114800*%
%ADD24RoundRect,0.250000X0.625000X-0.400000X0.625000X0.400000X-0.625000X0.400000X-0.625000X-0.400000X0*%
G04 APERTURE END LIST*
D10*
%TO.C,D1*%
X100464000Y-72446000D03*
X100464000Y-76446000D03*
%TD*%
D11*
%TO.C,R7*%
X171229000Y-95676354D03*
X169229000Y-95676354D03*
%TD*%
D12*
%TO.C,R2*%
X167175000Y-91000000D03*
X169000000Y-91000000D03*
%TD*%
D13*
%TO.C,C11*%
X65054000Y-85446000D03*
X66954000Y-85446000D03*
%TD*%
D14*
%TO.C,D5*%
X61000000Y-88500000D03*
X62875000Y-88500000D03*
%TD*%
D15*
%TO.C,R10*%
X75464000Y-77446000D03*
X75464000Y-75446000D03*
%TD*%
D16*
%TO.C,D6*%
X73964000Y-71946000D03*
X77964000Y-71946000D03*
%TD*%
D14*
%TO.C,D2*%
X79026500Y-99000000D03*
X80901500Y-99000000D03*
%TD*%
D15*
%TO.C,R11*%
X72964000Y-77446000D03*
X72964000Y-75446000D03*
%TD*%
D17*
%TO.C,C7*%
X62914000Y-82446000D03*
X61014000Y-82446000D03*
%TD*%
D18*
%TO.C,D3*%
X170937500Y-98000000D03*
X169062500Y-98000000D03*
%TD*%
D19*
%TO.C,R9*%
X47964000Y-76946000D03*
X49964000Y-76946000D03*
%TD*%
D13*
%TO.C,C4*%
X92514000Y-76946000D03*
X94414000Y-76946000D03*
%TD*%
D11*
%TO.C,R13*%
X74901500Y-66946000D03*
X72901500Y-66946000D03*
%TD*%
D20*
%TO.C,C9*%
X52464000Y-76908500D03*
X52464000Y-78983500D03*
%TD*%
D14*
%TO.C,D4*%
X49125000Y-85000000D03*
X51000000Y-85000000D03*
%TD*%
%TO.C,D7*%
X77062500Y-67000000D03*
X78937500Y-67000000D03*
%TD*%
D21*
%TO.C,R1*%
X169000000Y-88500000D03*
X167175000Y-88500000D03*
%TD*%
D22*
%TO.C,U5*%
X59079200Y-75041000D03*
X59079200Y-76311000D03*
X59079200Y-77581000D03*
X59079200Y-78851000D03*
X69848800Y-78851000D03*
X69848800Y-77581000D03*
X69848800Y-76311000D03*
X69848800Y-75041000D03*
%TD*%
D21*
%TO.C,R3*%
X169000000Y-83500000D03*
X167175000Y-83500000D03*
%TD*%
D13*
%TO.C,C1*%
X167137500Y-86000000D03*
X169037500Y-86000000D03*
%TD*%
D20*
%TO.C,C8*%
X55464000Y-76958500D03*
X55464000Y-79033500D03*
%TD*%
D13*
%TO.C,C2*%
X155500000Y-98712500D03*
X157400000Y-98712500D03*
%TD*%
D23*
%TO.C,L1*%
X116150199Y-88500000D03*
X137849801Y-88500000D03*
%TD*%
D12*
%TO.C,R4*%
X163125000Y-83500000D03*
X164950000Y-83500000D03*
%TD*%
D24*
%TO.C,R12*%
X78964000Y-78546000D03*
X78964000Y-75446000D03*
%TD*%
D13*
%TO.C,C12*%
X65054000Y-88456000D03*
X66954000Y-88456000D03*
%TD*%
%TO.C,C6*%
X51054000Y-89021000D03*
X52954000Y-89021000D03*
%TD*%
D19*
%TO.C,R8*%
X48964000Y-82946000D03*
X50964000Y-82946000D03*
%TD*%
D13*
%TO.C,C10*%
X65054000Y-82436000D03*
X66954000Y-82436000D03*
%TD*%
D19*
%TO.C,R6*%
X78964000Y-96946000D03*
X80964000Y-96946000D03*
%TD*%
D11*
%TO.C,R5*%
X62964000Y-85446000D03*
X60964000Y-85446000D03*
%TD*%
M02*
